/* XPM */
static char *result[] = {
/* columns rows colors chars-per-pixel */
"64 64 177 2 ",
"   c #C04F2D",
".  c #BF4E2C",
"X  c #BB4623",
"o  c #E1886B",
"O  c #E2886B",
"+  c #DD8062",
"@  c #BE4C2A",
"#  c #DD7F62",
"$  c #BE4D2A",
"%  c #E78E72",
"&  c #E78F72",
"*  c #E18568",
"=  c #BF4D2B",
"-  c #E89276",
";  c #E2886C",
":  c #BF4E2B",
">  c #E37A57",
",  c #E37A58",
"<  c #DE7351",
"1  c #BF4B28",
"2  c #E37957",
"3  c #E37C5B",
"4  c #E1724E",
"5  c #E1714D",
"6  c #DC6C48",
"7  c #BE4A27",
"8  c #E27552",
"9  c #DC592E",
"0  c #DD5B31",
"q  c #DC582D",
"w  c #D8562C",
"e  c #BE4723",
"r  c #DD5C32",
"t  c #DC582C",
"y  c #DF6740",
"u  c #DC572C",
"i  c #DB5427",
"p  c #DB5428",
"a  c #D75227",
"s  c #540101",
"d  c #DB5327",
"f  c #BE4622",
"g  c #DB5529",
"h  c #DF6841",
"j  c #F71A15",
"k  c #D75328",
"l  c #DF6741",
"z  c #F72520",
"x  c #F7241F",
"c  c #D8562B",
"v  c #DC5428",
"b  c #E2896C",
"n  c #D45127",
"m  c #BD4623",
"M  c #F9F9F9",
"N  c #F4EEED",
"B  c #F8EBEA",
"V  c #A42821",
"C  c #BD4622",
"Z  c #BA4521",
"A  c #E21D18",
"S  c #F6B3B1",
"D  c #F6B5B3",
"F  c #F73A36",
"G  c #F8F8F8",
"H  c #F8DEDE",
"J  c #BA4523",
"K  c #F1E6E6",
"L  c #F71D18",
"P  c #F65B57",
"I  c #F62925",
"U  c #F6F1F1",
"Y  c black",
"T  c #BA4623",
"R  c #F5EFEF",
"E  c #F6211C",
"W  c #F72A25",
"Q  c #F6F2F2",
"!  c #F8F0F0",
"~  c #F74541",
"^  c #F8EFEF",
"/  c #F72D28",
"(  c #F7817E",
")  c #F7F4F4",
"_  c #F5F0F0",
"`  c #F8E8E8",
"'  c #F61C17",
"]  c #F8CECC",
"[  c #F8F6F6",
"{  c #F8201C",
"}  c #E8D0CE",
"|  c #F8F5F5",
" . c #F62723",
".. c #F7DBDA",
"X. c #F7201C",
"o. c #A52B24",
"O. c #F7B4B3",
"+. c #F8ECEC",
"@. c #EEDEDD",
"#. c #EF1B16",
"$. c #A5251E",
"%. c #A42720",
"&. c #3F1111",
"*. c #784040",
"=. c #711F1E",
"-. c #E8B080",
";. c #24235F",
":. c #D0D0CF",
">. c #F8D0B8",
",. c #343289",
"<. c #FDFDFC",
"1. c #333188",
"2. c gray97",
"3. c #F6F5F5",
"4. c #363388",
"5. c #743D3D",
"6. c #733C3C",
"7. c #763E3E",
"8. c #D89870",
"9. c #E3AC7D",
"0. c #D8A275",
"q. c #78403F",
"w. c #150E0A",
"e. c #020101",
"r. c #020201",
"t. c #090605",
"y. c #040302",
"u. c #E5AD7D",
"i. c #C9956A",
"p. c #DF714D",
"a. c #010101",
"s. c #E4AD7D",
"d. c #773F3F",
"f. c #D6966E",
"g. c #D3946D",
"h. c #E7AF7F",
"j. c #763F3E",
"k. c #733E3B",
"l. c #C98C66",
"z. c #CA8D67",
"x. c #DC582E",
"c. c #E1724D",
"v. c #1A63B0",
"b. c #DCD710",
"n. c #DC5529",
"m. c white",
"M. c #7F331D",
"N. c #935541",
"B. c #D0D0D0",
"V. c #9B614F",
"C. c #975B48",
"Z. c #9A5F4C",
"A. c #75333C",
"S. c #97513A",
"D. c #964C34",
"F. c #964B33",
"G. c #933B1F",
"H. c #933A1D",
"J. c #975B47",
"K. c #92381A",
"L. c #95452B",
"P. c #92391B",
"I. c #92381B",
"U. c #7F341D",
"Y. c #7F2F17",
"T. c #8F371A",
"R. c #8F371B",
"E. c #90391D",
"W. c #DD7351",
"Q. c #E18567",
"!. c #D35027",
"~. c #D35127",
"^. c #BF4723",
"/. c #BF4824",
"(. c #C04C29",
"). c #BA4522",
"_. c #BB4522",
/* pixels */
"                    . X X .                                                                         . X X .                     ",
"o o o o o o o o o O + @ @ + O o o o o o o o o o o o o o o o o o o o o o o o o o o o o o o o o o o O # @ $ + O o o o o o o o o o ",
"% % % % % % % % % & * = = * & % % % % % % % % % % % % % % % % % % % % % % % % % % % % % % % % % & - ; : = * & % % % % % % % % % ",
"> > > > > > > > > , < 1 1 < , > > > > > > > > > > > > > > > > > > > > > > > > > > > > > > > 2 2 3 & O . 1 < , > > > > > > > > > ",
"4 5 4 4 4 4 4 4 5 4 6 7 7 6 4 4 4 4 4 4 5 4 4 4 4 4 4 5 4 4 4 4 4 4 4 4 5 4 4 4 4 4 4 4 4 4 4 8 2 % O . 7 6 4 4 4 4 4 4 4 5 4 4 ",
"9 0 9 q q q q 9 0 9 w e e w q q q q q 9 0 9 q q q q 9 0 9 q q q q q q 9 0 9 q q q q q q q q r 4 2 % O . e w q q q q q q 9 0 9 q ",
"t y u i p p i u y u a e e a p p p p i u y u i p p i u y s s s s s s s s s s s s s s p u p d q 4 > % O . f a p u p p p i u y u i ",
"g u g p p p p g u g a e e a p p p p p g u g p p p p g u s s s s s s s s s s s s s s u h u i q 4 > % O . f a u h u p p p g u g p ",
"p p p g u g p p p p a e e a p g u g p p p p g u g p s s j j j j j j j j j j j j j j s s s s q 4 > % O . f a g u g g u g p p p p ",
"p p p u h u p p p p a e e a p u h u p p p p u h u p s s j j j j j j j j j j j j j j s s s s q 4 > % O . f a p p p u h u p p p p ",
"p p p g u g g u g p a e e a p g u g g u g p g u s s j j j j j j j j j j j j j j j j j j j j s s > % O . f a p p p g u g p p p p ",
"g u g p p p u h u p a e e a p p p p u h u p p p s s j j j j j j j j j j j j j j j j j j j j s s > % O . f k u g p p p p g u g p ",
"q l u p p p g u g p a e e a p p p p g u g p p p s s z x j j j j j j j j j j j j j j j j j j s s > % O . f c h u p p p p u h u p ",
"g u g p p p p p p v a e e a v p p p p p p p p p s s z x j j j j j j j j j j j j j j j j j j s s , & b . f k t g p p p p g u g p ",
"a a a a a a a a a a n m m n a a a a a a a a s s M N M B j j j j j j j j j j j j j j j j j j V V s s + = C n a a a a a a a a a a ",
"f f f f f f f f f f C Z Z C f f f f f f f f s A S D F G H j j j j j j j j j j j j j j j j j V V s s @ J Z C f e e f f f f f f f ",
". . . . . . . . . . . . . . . . . . . . s s K L P I j U H j j j j j j j j j j j j j j j j j V V Y Y : . . . = T T = . . . . . . ",
"O O O O O O O O O O O O O O O O O O O O s s R E j W j Q ! j j j j j j j j j j j j j j j j j V V Y Y O O O b + $ $ + b O O O O O ",
"% % % % % % % % % % % % % % % % % % Y Y j ~ ^ / P ( j ) _ V j j j j j j j j j j j j j j V V V V Y Y % % % & * = = * & % % % % % ",
"> > > > > > > > > > > > > > > > > > Y Y j j ` ' ] [ { G } V j j j j j j j j j j j j j j V V V V Y Y > > > , < 1 1 < , > > > > > ",
"4 4 5 4 4 4 4 4 4 4 4 4 4 4 4 4 4 4 Y Y j j |  ...M X.G o.V V V V V V V V V V V V V V V V V V V Y Y 4 5 4 4 6 7 7 6 4 4 4 5 4 4 ",
"q 9 0 9 q q q q q q q q q q q q q q Y Y j j j O.+.@.#.V V V V V V V V V V V V V V V V V V V V V Y Y 9 0 9 q w e e w q q 9 0 9 q ",
"i u y u i p p p p p u p p p p p u p Y Y V V $.$.V %.V V V V V V V V V V V V V V V V V V V V V V Y Y u y u i a e e a p i u y u i ",
"p g u g p p p p p u h u p p p u h u Y Y V V $.$.V V V V V V V V V V V V V V V V V V V V V V V V Y Y g u g p a e e a p p g u g p ",
"p p p p p p g u g g u g p p p g u g p i Y Y V V V V V V V V V V V V V V V V V V V V V V V V Y Y &.&.p p p p a e e a p p p p p p ",
"p p p p p p u h u p p p g u g p p p g u Y Y V V V V V V V V V V V V V V V V V V V V V V V V Y Y &.&.p p p p a e e a g u g p p p ",
"p p p p p p g u g p p p u h u p p p u y *.*.Y Y Y Y s s Y Y Y Y Y Y Y Y Y Y Y Y Y Y Y Y Y Y =.=.&.&.g u g p a e e a u h u p p p ",
"p p p p p p p p p g u g g u g g u g g u *.*.Y Y Y Y s s Y Y Y Y Y Y Y Y Y Y Y Y Y Y Y Y Y Y =.=.&.&.u h u p a e e a g u g g u g ",
"p g u g p p p p p u h u p p p u h u p i *.*.-.-.;.;.:.:.>.>.>.>.&.&.=.=.&.&.=.=.=.=.=.=.=.=.&.&.p p g u g p a e e a p p p u l q ",
"p u h u p p p p p g u g p p p g u g p p *.*.-.-.,.,.<.<.>.>.>.>.&.&.=.=.&.&.=.=.=.=.=.=.=.=.&.&.p p p p p v a e e a v p p g u g ",
"a k c k a a a a a a a a a a a a a a a a *.*.-.-.1.1.G 2.-.-.>.>.&.&.*.*.*.*.&.&.=.=.=.=.&.&.a a a a a a a a n m m n a a a a a a ",
"f f f f f f f f f e e f f f f f f f f f *.*.-.-.1.1.G 3.-.-.>.>.&.&.*.*.*.*.&.&.=.=.=.=.&.&.f f f f f f f f C Z Z C f f f f f f ",
". . . . . . . . = T T = . . . . . . . . *.*.-.-.4.4.G G -.-.-.-.*.*.>.>.>.>.5.6.=.=.=.=.&.&.. . . . . . . . . . . . . . . . . . ",
"O O O O O O O ; + $ $ + b O O O O O O O *.*.-.-.4.4.G G -.-.-.-.*.*.>.>.>.>.7.5.=.=.=.=.&.&.O O O O O O O O O O O O O O O O O O ",
"% % % % % % & - ; : = * & % % % % % % % Y Y Y Y Y Y Y Y Y Y -.-.8.8.-.-.9.0.*.q.8.8.*.*.% % % % % % % % % % % % % % % % % % % % ",
"> > > > 2 2 3 & O . 1 < , > > > > > > > w.e.e.e.r.t.Y y.y.-.-.-.8.8.-.-.u.i.q.q.8.8.*.*.> > > > > > > > > > > > > > > > > > > > ",
"4 4 4 4 4 8 2 % O . 7 6 4 4 4 4 4 4 4 4 p.Y Y Y Y Y a.r.s.-.-.-.-.-.d.d.*.d.f.g.Y Y 4 4 4 4 4 4 4 4 4 4 4 4 4 4 4 4 4 4 4 4 4 4 ",
"q q q q r 4 2 % O . e w q q q q q q q q q q *.*.-.h.-.h.h.-.-.-.-.-.d.d.j.k.l.z.Y Y q q q q q q q q q q q q q q q q q q q q q q ",
"p p p u x.c.> % O . f a p p p p u p p p p u p p *.*.*.*.*.*.*.*.8.8.8.8.*.*.Y Y e a p u p p p p p p u p p p p p u p p p p p u p ",
"p i u y 0 5 > % O . f a p p p u h u i p u h u p *.*.*.*.*.*.*.*.8.8.8.8.*.*.Y Y e a u h u p p p p u h u p p p u h u p p p u l q ",
"g u g u 9 4 > % O . f a p p p g u g u g g u g g u g g u ;.;.j j v.v.v.v.;.;.Y Y e a g u g g u g p g u g g u g g u g g u g g u g ",
"q l u d q 4 > % O . f a p g u g i u h u p p p u h u p p ;.;.j j v.v.v.v.;.;.Y Y e a p p p u h u p p i p u h u p p p u h u p i p ",
"g u g u 9 4 > % O . f a p u h u i g u g p p p g u g p i ;.;.;.;.j j j j ;.;.Y Y e a p p p g u g p g u g g u g p p p g u g g u g ",
"p i u y 0 5 > % O . f a p g u g u g p p g u g p p p g u j j ;.;.j j j j v.v.;.;.e a g u g p p p p u h u p p p g u g p p p u l q ",
"p p g u 9 4 > % O . f a p p i u h u p p u h u p p p u h j j ;.;.j j j j v.v.;.;.e a u h u p p p p g u g p p p u h u p p p g u g ",
"p p p i q 4 , & b . f a v p p g u g p p g u g p p p ;.;.b.b.;.;.j j j j ;.;.;.;.Y Y n.u g p p p p p p p p p p g u g p p p p p p ",
"a a a a w 6 < * + = C n a a a a a a a a a a a a a a ;.;.b.b.;.;.j j j j ;.;.;.;.Y Y a a a a a a a a a a a a a a a a a a a a a a ",
"f f f f e 7 1 = @ J Z C f f f f f f f f f f f f f f ;.;.Y Y m.m.m.m.j j v.v.v.v.Y Y f f f f f f f f f f f f f f e e f f f f f f ",
". . . . . . . : : . . . . . . . . . . . . . . . . M.;.;.Y Y m.m.m.m.j j v.v.v.v.Y Y . . . . . . . . . . . . . = T T = . . . . . ",
"O O O O O O O O O O O O O O O O O O O O O O O O ; N.;.;.Y Y B.B.B.B.Y Y v.v.v.v.v.v.Y Y O O O O O O O O O O b + $ $ + b O O O O ",
"% % % % % % % % % % % % % % % % % % % % % % % & V.C.;.;.Y Y B.B.B.B.Y Y v.v.v.v.v.v.Y Y Z.% % % % % % % % % & * = = * & % % % % ",
"> > > > > > > > > > > > > > > > > > > > > 2 2 3 Y Y A.A.v.v.Y Y Y Y v.v.v.v.v.v.v.v.Y Y S.> > > > > > > > > , < 1 1 < , > > > > ",
"4 4 4 4 5 4 4 4 4 4 4 4 4 4 4 4 4 4 4 4 4 4 8 2 Y Y A.A.v.v.Y Y Y Y v.v.v.v.v.v.v.v.Y Y D.F.D.4 4 4 4 4 4 4 4 6 7 7 6 4 4 4 4 4 ",
"q q q 9 0 9 q q q q q q q q q q q q q q q r 4 2 Y Y A.A.A.A.A.A.;.;.;.;.v.v.;.;.;.;.A.A.Y Y G.q q q q q q q q w e e w q q q q q ",
"p p i u y u i p p p p u p p p p p p p u p q 4 > Y Y A.A.A.A.A.A.;.;.;.;.v.v.;.;.;.;.A.A.Y Y H.i p p p p u p p a e e a p p p u p ",
"p p p g u g p p p p u h u p p p p p u h u q 4 > Z.J.Y Y Y Y Y Y K.H.L.H.Y Y A.A.A.A.A.A.Y Y P.p p p p u h u p a e e a p p u l q ",
"p p p p p p g u g p g u g p g u g p g u p q 4 > Z.J.Y Y Y Y Y Y H.P.H.P.Y Y A.A.A.A.A.A.Y Y I.g u g p g u g u k e e k u g g u g ",
"g u g p p p u h u p p p p p u h u p p p p q 4 > Z.J.U.Y.T.I.I.H.L.H.K.I.I.H.Y Y Y Y Y Y H.I.I.u h u p p i u h c f f c h u p p p ",
"q l u i p p g u g p p p p p g u g g u g p q 4 > Z.J.U.Y.T.I.I.P.H.P.I.I.I.P.Y Y Y Y Y Y P.p p g u g p p p g u k e e k u g p p p ",
"g u g u g p p p p p g u g p p p p u h u i q 4 > Z.J.U.Y.R.H.P.I.I.P.H.P.I.I.I.P.H.P.I.I.P.u g p p p p g u g p a e e a p p g u g ",
"p i u h u p p p p p u h u p p p p g u g p q 4 > Z.J.U.Y.E.L.H.I.I.H.L.H.I.I.I.H.L.H.I.p u h u p p p p u h u p a e e a p p u l q ",
"p p g u g p p p p p g u g p p p p p p p p q 4 , & b . f k t g p p g u g p p p g u g p p g u g p p p p g u g v a e e a v p g u g ",
"a a a a a a a a a a a a a a a a a a a a a w 6 W.Q.+ = C !.a a a a a a a a a a a a a a a a a a a a a a a a a a ~.m m ~.a a a a a ",
"^.^.^.^.^.^.^.^.^.^.^.^.^.^.^.^.^.^.^.^.^./.1 (.  . X ).e ^.^.^.^.^.^.^.^.^.^.^.^.^.^.^.^.^.^.^.^.^.^.^.^.^.^.e _._.e ^.^.^.^.^."
};
