/* XPM */
static char *_b442966ac994bcbce25bde771daa027lbXdoVfZ6LShXfzN[] = {
/* columns rows colors chars-per-pixel */
"64 64 173 2 ",
"   c #C04F2D",
".  c #BF4E2C",
"X  c #BB4623",
"o  c #E1886B",
"O  c #E2886B",
"+  c #DD8062",
"@  c #BE4C2A",
"#  c #DD7F62",
"$  c #BE4D2A",
"%  c #E78E72",
"&  c #E78F72",
"*  c #E18568",
"=  c #BF4D2B",
"-  c #E89276",
";  c #E2886C",
":  c #BF4E2B",
">  c #E37A57",
",  c #E37A58",
"<  c #DE7351",
"1  c #BF4B28",
"2  c #E37957",
"3  c #E37C5B",
"4  c #E1724E",
"5  c #E1714D",
"6  c #DC6C48",
"7  c #BE4A27",
"8  c #E27552",
"9  c #DC592E",
"0  c #DD5B31",
"q  c #DC582D",
"w  c #D8562C",
"e  c #BE4723",
"r  c #DD5C32",
"t  c #DC582C",
"y  c #DF6740",
"u  c #DC572C",
"i  c #DB5427",
"p  c #DB5428",
"a  c #D75227",
"s  c #DB5327",
"d  c #BE4622",
"f  c #DB5529",
"g  c #DF6841",
"h  c #540101",
"j  c #F71A15",
"k  c #D75328",
"l  c #DF6741",
"z  c #D8562B",
"x  c #DC5428",
"c  c #E2896C",
"v  c #D45127",
"b  c #BD4623",
"n  c #F7241F",
"m  c #F72520",
"M  c #BD4622",
"N  c #BA4521",
"B  c #BA4523",
"V  c #A42821",
"C  c #F8EBEA",
"Z  c #F9F9F9",
"A  c #F4EEED",
"S  c #BA4623",
"D  c #F8DEDE",
"F  c #F8F8F8",
"G  c #F73A36",
"H  c #F6B5B3",
"J  c #F6B3B1",
"K  c #E21D18",
"L  c black",
"P  c #F6F1F1",
"I  c #F62925",
"U  c #F65B57",
"Y  c #F71D18",
"T  c #F1E6E6",
"R  c #F8F0F0",
"E  c #F6F2F2",
"W  c #F72A25",
"Q  c #F6211C",
"!  c #F5EFEF",
"~  c #F5F0F0",
"^  c #F7F4F4",
"/  c #F7817E",
"(  c #F72D28",
")  c #F8EFEF",
"_  c #F74541",
"`  c #E8D0CE",
"'  c #F8201C",
"]  c #F8F6F6",
"[  c #F8CECC",
"{  c #F61C17",
"}  c #F8E8E8",
"|  c #A52B24",
" . c #F7201C",
".. c #F7DBDA",
"X. c #F62723",
"o. c #F8F5F5",
"O. c #EF1B16",
"+. c #EEDEDD",
"@. c #F8ECEC",
"#. c #F7B4B3",
"$. c #A42720",
"%. c #A5251E",
"&. c #3F1111",
"*. c #711F1E",
"=. c #784040",
"-. c #F8D0B8",
";. c #D0D0CF",
":. c #24235F",
">. c #E8B080",
",. c #FDFDFC",
"<. c #343289",
"1. c gray97",
"2. c #333188",
"3. c #F6F5F5",
"4. c #733C3C",
"5. c #743D3D",
"6. c #363388",
"7. c #763E3E",
"8. c #D89870",
"9. c #78403F",
"0. c #D8A275",
"q. c #E3AC7D",
"w. c #C9956A",
"e. c #E5AD7D",
"r. c #040302",
"t. c #090605",
"y. c #020201",
"u. c #020101",
"i. c #150E0A",
"p. c #DC582E",
"a. c #E1724D",
"s. c #D3946D",
"d. c #D6966E",
"f. c #773F3F",
"g. c #E4AD7D",
"h. c #010101",
"j. c #D95328",
"k. c #CA8D67",
"l. c #C98C66",
"z. c #733E3B",
"x. c #763F3E",
"c. c #E7AF7F",
"v. c #1A63B0",
"b. c #2B255D",
"n. c #DC5529",
"m. c #DCD710",
"M. c #D8D410",
"N. c #DAD510",
"B. c #1A5DA9",
"V. c white",
"C. c #1A62AF",
"Z. c #1A5FAB",
"A. c #D0D0D0",
"S. c #1A61AE",
"D. c #9A5F4C",
"F. c #975B47",
"G. c #75333C",
"H. c #933B1E",
"J. c #95452B",
"K. c #933A1D",
"L. c #7F341D",
"P. c #7F2F17",
"I. c #92381B",
"U. c #92391B",
"Y. c #DD7351",
"T. c #E18567",
"R. c #D35027",
"E. c #D35127",
"W. c #BF4723",
"Q. c #BF4824",
"!. c #C04C29",
"~. c #BA4522",
"^. c #BB4522",
/* pixels */
"                    . X X .                                                                         . X X .                     ",
"o o o o o o o o o O + @ @ + O o o o o o o o o o o o o o o o o o o o o o o o o o o o o o o o o o o O # @ $ + O o o o o o o o o o ",
"% % % % % % % % % & * = = * & % % % % % % % % % % % % % % % % % % % % % % % % % % % % % % % % % & - ; : = * & % % % % % % % % % ",
"> > > > > > > > > , < 1 1 < , > > > > > > > > > > > > > > > > > > > > > > > > > > > > > > > 2 2 3 & O . 1 < , > > > > > > > > > ",
"4 5 4 4 4 4 4 4 5 4 6 7 7 6 4 4 4 4 4 4 5 4 4 4 4 4 4 5 4 4 4 4 4 4 4 4 5 4 4 4 4 4 4 4 4 4 4 8 2 % O . 7 6 4 4 4 4 4 4 4 5 4 4 ",
"9 0 9 q q q q 9 0 9 w e e w q q q q q 9 0 9 q q q q 9 0 9 q q q q q q 9 0 9 q q q q q q q q r 4 2 % O . e w q q q q q q 9 0 9 q ",
"t y u i p p i u y u a e e a p p p p i u y u i p p i u y u i p p p p i u y u i p p p p u p s q 4 > % O . d a p u p p p i u y u i ",
"f u f p p p p f u f a e e a p p p p p f u f p p p p f u f p p p p p p f u f p p p p u g u i q 4 > % O . d a u g u p p p f u f p ",
"p p p f u f p p p p a e e a p f u f p p p p f u h h h h h h h h h h h h h h f u f p f u f p q 4 > % O . d a f u f f u f p p p p ",
"p p p u g u p p p p a e e a p u g u p p p p u g h h h h h h h h h h h h h h u g u p p p p p q 4 > % O . d a p p p u g u p p p p ",
"p p p f u f f u f p a e e a p f u f f u h h h h j j j j j j j j j j j j j j h h f p p p p p q 4 > % O . d a p p p f u f p p p p ",
"f u f p p p u g u p a e e a p p p p u g h h h h j j j j j j j j j j j j j j h h p p p p p p q 4 > % O . d k u f p p p p f u f p ",
"q l u p p p f u f p a e e a p p p p h h j j j j j j j j j j j j j j j j j j j j h h f u f p q 4 > % O . d z g u p p p p u g u p ",
"f u f p p p p p p x a e e a x p p p h h j j j j j j j j j j j j j j j j j j j j h h u g u i q 4 , & c . d k t f p p p p f u f p ",
"a a a a a a a a a a v b b v a a a a h h j j j j j j j j j j j j j j j j j j n m h h k z k a w 6 < * + = M v a a a a a a a a a a ",
"d d d d d d d d d d M N N M d d d d h h j j j j j j j j j j j j j j j j j j n m h h d d d d e 7 1 = @ B N M d e e d d d d d d d ",
". . . . . . . . . . . . . . . . h h V V j j j j j j j j j j j j j j j j j j C Z A Z h h . . . . . : : . . . = S S = . . . . . . ",
"O O O O O O O O O O O O O O O O h h V V j j j j j j j j j j j j j j j j j D F G H J K h O O O O O O O O O c + $ $ + c O O O O O ",
"% % % % % % % % % % % % % % % % L L V V j j j j j j j j j j j j j j j j j D P j I U Y T h h % % % % % % % & * = = * & % % % % % ",
"> > > > > > > > > > > > > > > > L L V V j j j j j j j j j j j j j j j j j R E j W j Q ! h h > > > > > > > , < 1 1 < , > > > > > ",
"4 4 5 4 4 4 4 4 4 4 4 4 4 4 4 4 L L V V V V j j j j j j j j j j j j j j V ~ ^ j / U ( ) _ j L L 4 4 4 5 4 4 6 7 7 6 4 4 4 5 4 4 ",
"q 9 0 9 q q q q q q q q q q q q L L V V V V j j j j j j j j j j j j j j V ` F ' ] [ { } j j L L q q 9 0 9 q w e e w q q 9 0 9 q ",
"i u y u i p p p p p u p p p p p L L V V V V V V V V V V V V V V V V V V V | F  .Z ..X.o.j j L L i s u y u i a e e a p i u y u i ",
"p f u f p p p p p u g u p p p u L L V V V V V V V V V V V V V V V V V V V V V O.+.@.#.j j j L L u f f u f p a e e a p p f u f p ",
"p p p p p p f u f f u f p p p f L L V V V V V V V V V V V V V V V V V V V V V V $.V %.%.V V L L g u p p p p a e e a p p p p p p ",
"p p p p p p u g u p p p f u f p L L V V V V V V V V V V V V V V V V V V V V V V V V %.%.V V L L u f p p p p a e e a f u f p p p ",
"p p p p p p f u f p p p u g u p &.&.L L V V V V V V V V V V V V V V V V V V V V V V V V L L p p p p f u f p a e e a u g u p p p ",
"p p p p p p p p p f u f f u f f &.&.L L V V V V V V V V V V V V V V V V V V V V V V V V L L p p p p u g u p a e e a f u f f u f ",
"p f u f p p p p p u g u p p p u &.&.*.*.L L L L L L L L L L L L L L L L L L h h L L L L =.=.p p p p f u f p a e e a p p p u l q ",
"p u g u p p p p p f u f p p p f &.&.*.*.L L L L L L L L L L L L L L L L L L h h L L L L =.=.p p p p p p p x a e e a x p p f u f ",
"a k z k a a a a a a a a a a a a a a &.&.*.*.*.*.*.*.*.*.&.&.*.*.&.&.-.-.-.-.;.;.:.:.>.>.=.=.a a a a a a a a v b b v a a a a a a ",
"d d d d d d d d d e e d d d d d d d &.&.*.*.*.*.*.*.*.*.&.&.*.*.&.&.-.-.-.-.,.,.<.<.>.>.=.=.d d d d d d d d M N N M d d d d d d ",
". . . . . . . . = S S = . . . . . . . . &.&.*.*.*.*.&.&.=.=.=.=.&.&.-.-.>.>.1.F 2.2.>.>.=.=.. . . . . . . . . . . . . . . . . . ",
"O O O O O O O ; + $ $ + c O O O O O O O &.&.*.*.*.*.&.&.=.=.=.=.&.&.-.-.>.>.3.F 2.2.>.>.=.=.O O O O O O O O O O O O O O O O O O ",
"% % % % % % & - ; : = * & % % % % % % % &.&.*.*.*.*.4.5.-.-.-.-.=.=.>.>.>.>.F F 6.6.>.>.=.=.% % % % % % % % % % % % % % % % % % ",
"> > > > 2 2 3 & O . 1 < , > > > > > > > &.&.*.*.*.*.5.7.-.-.-.-.=.=.>.>.>.>.F F 6.6.>.>.=.=.> > > > > > > > > > > > > > > > > > ",
"4 4 4 4 4 8 2 % O . 7 6 4 4 4 4 4 4 4 4 4 4 =.=.8.8.9.=.0.q.>.>.8.8.>.>.L L L L L L L L L L 4 4 4 4 4 4 4 4 4 4 4 4 4 4 4 4 4 4 ",
"q q q q r 4 2 % O . e w q q q q q q q q q q =.=.8.8.9.9.w.e.>.>.8.8.>.>.>.r.r.L t.y.u.u.u.i.q q q q q q q q q q q q q q q q q q ",
"p p p u p.a.> % O . d a p p p p u p p p p u p p L L s.d.f.=.f.f.>.>.>.>.>.g.y.h.L L L L L j.p p p p u p p p p p u p p p p p u p ",
"p i u y 0 5 > % O . d a p p p u g u i p u g u p L L k.l.z.x.f.f.>.>.>.>.>.c.c.>.c.>.=.=.u p p p p u g u p p p u g u p p p u l q ",
"f u f u 9 4 > % O . d a p p p f u f u f f u f f u f L L =.=.8.8.8.8.=.=.=.=.=.=.=.=.f u f f u f p f u f f u f f u f f u f f u f ",
"q l u s q 4 > % O . d a p f u f i u g u p p p u g u L L =.=.8.8.8.8.=.=.=.=.=.=.=.=.p p p u g u p p i p u g u p p p u g u p i p ",
"f u f u 9 4 > % O . d a p u g u i f u f p p p f u f L L *.*.v.v.v.v.v.:.j j *.e e a p p p f u f p f u f f u f p p p f u f f u f ",
"p i u y 0 5 > % O . d a p f u f u f p p f u f p p p L L *.*.v.v.v.v.v.:.j j *.e e a f u f p p p p u g u p p p f u f p p p u l q ",
"p p f u 9 4 > % O . d a p p i u g u p p u g u p p p L L j j j j :.:.v.:.j j b.e e a u g u p p p p f u f p p p u g u p p p f u f ",
"p p p i q 4 , & c . d a x p p f u f p p f u f p p p L L j j j j :.:.v.:.j j :.e e a n.u f p p p p p p p p p p f u f p p p p p p ",
"a a a a w 6 < * + = M v a a a a a a a a a a a a a a *.*.j j j j :.:.v.m.M.v.:.b b v a a a a a a a a a a a a a a a a a a a a a a ",
"d d d d e 7 1 = @ B N M d d d d d d d d d d d d d d *.*.j j j j :.:.v.N.M.v.:.N N M d d d d d d d d d d d d d d e e d d d d d d ",
". . . . . . . : : . . . . . . . . . . . . . . . L L v.v.j j j j :.:.v.v.v.v.:.:.. . . . . . . . . . . . . . . = S S = . . . . . ",
"O O O O O O O O O O O O O O O O O O O O O O O O L L v.v.j j j j :.:.v.v.v.v.B.:.O O O O O O O O O O O O O O c + $ $ + c O O O O ",
"% % % % % % % % % % % % % % % % % % % % % % % & L L v.v.L L V.V.V.V.L L v.v.C.:.% % % % % % % % % % % % % % & * = = * & % % % % ",
"> > > > > > > > > > > > > > > > > > > > > 2 2 3 L L v.v.L L V.V.V.V.L L v.v.Z.:.> > > > > > > > > > > > > > , < 1 1 < , > > > > ",
"4 4 4 4 5 4 4 4 4 4 4 4 4 4 4 4 4 4 4 4 4 4 8 2 L L v.v.L L A.A.A.A.L L v.v.S.:.4 4 4 4 4 5 4 4 4 4 4 4 4 4 4 6 7 7 6 4 4 4 4 4 ",
"q q q 9 0 9 q q q q q q q q q q q q q q q r 4 2 L L v.v.L L A.A.A.A.L L v.v.C.:.q q q q 9 0 9 q q q q q q q q w e e w q q q q q ",
"p p i u y u i p p p p u p p p p p p p u p q 4 > D.F.L L v.v.L L L L v.v.v.v.Z.:.p p p i u y u i p p p p u p p a e e a p p p u p ",
"p p p f u f p p p p u g u p p p p p u g u q 4 > D.F.L L v.v.L L L L v.v.v.v.:.:.u p p p f u f p p p p u g u p a e e a p p u l q ",
"p p p p p p f u f p f u f p f u f p f u p q 4 > D.F.L L G.G.G.G.G.G.G.G.L L H.H.f p f u f p p f u f p f u f u k e e k u f f u f ",
"f u f p p p u g u p p p p p u g u p p p p q 4 > D.F.L L G.G.G.G.G.G.G.G.L L J.K.p p u g u p p u g u p p i u g z d d z g u p p p ",
"q l u i p p f u f p p p p p f u f f u f p q 4 > D.F.L.P.L L L L L L L L I.U.K.U.p p f u f p p f u f p p p f u k e e k u f p p p ",
"f u f u f p p p p p f u f p p p p u g u i q 4 > D.F.L.P.L L L L L L L L I.I.I.U.u f p p f u f p p p p f u f p a e e a p p f u f ",
"p i u g u p p p p p u g u p p p p f u f p q 4 > % O . d z g u p p u g u p p p u g u p p u g u p p p p u g u p a e e a p p u l q ",
"p p f u f p p p p p f u f p p p p p p p p q 4 , & c . d k t f p p f u f p p p f u f p p f u f p p p p f u f x a e e a x p f u f ",
"a a a a a a a a a a a a a a a a a a a a a w 6 Y.T.+ = M R.a a a a a a a a a a a a a a a a a a a a a a a a a a E.b b E.a a a a a ",
"W.W.W.W.W.W.W.W.W.W.W.W.W.W.W.W.W.W.W.W.W.Q.1 !.  . X ~.e W.W.W.W.W.W.W.W.W.W.W.W.W.W.W.W.W.W.W.W.W.W.W.W.W.W.e ^.^.e W.W.W.W.W."
};
