/* XPM */
static char *_492fd9683f445e79b5aee6bebeea6f0DQ0g4cD6CK7wYS3I[] = {
/* columns rows colors chars-per-pixel */
"64 64 105 2 ",
"   c #C04F2D",
".  c #BF4E2C",
"X  c #BB4623",
"o  c #E1886B",
"O  c #E2886B",
"+  c #DD8062",
"@  c #BE4C2A",
"#  c #DD7F62",
"$  c #BE4D2A",
"%  c #E78E72",
"&  c #E78F72",
"*  c #E18568",
"=  c #BF4D2B",
"-  c #E89276",
";  c #E2886C",
":  c #BF4E2B",
">  c #E37A57",
",  c #E37A58",
"<  c #DE7351",
"1  c #BF4B28",
"2  c #E37957",
"3  c #E37C5B",
"4  c #E1724E",
"5  c #E1714D",
"6  c #DC6C48",
"7  c #BE4A27",
"8  c #E27552",
"9  c #DC592E",
"0  c #DD5B31",
"q  c #DC582D",
"w  c #D8562C",
"e  c #BE4723",
"r  c #DD5C32",
"t  c #DC582C",
"y  c #DF6740",
"u  c #DC572C",
"i  c #DB5427",
"p  c #DB5428",
"a  c #D75227",
"s  c #DB5327",
"d  c #BE4622",
"f  c #DB5529",
"g  c #DF6841",
"h  c #711F1E",
"j  c #D75328",
"k  c #DF6741",
"l  c black",
"z  c #F71A15",
"x  c #D8562B",
"c  c #DC5428",
"v  c #E2896C",
"b  c #D45127",
"n  c #BD4623",
"m  c #BD4622",
"M  c #BA4521",
"N  c #BA4523",
"B  c #BA4623",
"V  c #B10F07",
"C  c #401010",
"Z  c #D8A078",
"A  c #691417",
"S  c #DC582E",
"D  c #E1724D",
"F  c #000100",
"G  c #000200",
"H  c #2562A9",
"J  c #2562A8",
"K  c #34619E",
"L  c #1A63B0",
"P  c #A42821",
"I  c #D0D0D0",
"U  c #2563AA",
"Y  c #24235F",
"T  c white",
"R  c #97513A",
"E  c #964C34",
"W  c #974E37",
"Q  c #933B1E",
"!  c #933D21",
"~  c #933B1F",
"^  c #92381B",
"/  c #933A1D",
"(  c #9A5F4C",
")  c #975B47",
"_  c #92381A",
"`  c #95452B",
"'  c #92391B",
"]  c #7F341D",
"[  c #7F2F17",
"{  c #8F371B",
"}  c #8F371A",
"|  c #75333C",
" . c #90391D",
".. c #97513B",
"X. c #975B48",
"o. c #933B1D",
"O. c #DD7351",
"+. c #E18567",
"@. c #D35027",
"#. c #D35127",
"$. c #BF4723",
"%. c #BF4824",
"&. c #C04C29",
"*. c #BA4522",
"=. c #BB4522",
/* pixels */
"                    . X X .                                                                         . X X .                     ",
"o o o o o o o o o O + @ @ + O o o o o o o o o o o o o o o o o o o o o o o o o o o o o o o o o o o O # @ $ + O o o o o o o o o o ",
"% % % % % % % % % & * = = * & % % % % % % % % % % % % % % % % % % % % % % % % % % % % % % % % % & - ; : = * & % % % % % % % % % ",
"> > > > > > > > > , < 1 1 < , > > > > > > > > > > > > > > > > > > > > > > > > > > > > > > > 2 2 3 & O . 1 < , > > > > > > > > > ",
"4 5 4 4 4 4 4 4 5 4 6 7 7 6 4 4 4 4 4 4 5 4 4 4 4 4 4 5 4 4 4 4 4 4 4 4 5 4 4 4 4 4 4 4 4 4 4 8 2 % O . 7 6 4 4 4 4 4 4 4 5 4 4 ",
"9 0 9 q q q q 9 0 9 w e e w q q q q q 9 0 9 q q q q 9 0 9 q q q q q q 9 0 9 q q q q q q q q r 4 2 % O . e w q q q q q q 9 0 9 q ",
"t y u i p p i u y u a e e a p p p p i u y u i p p i u y u i p p p p i u y u i p p p p u p s q 4 > % O . d a p u p p p i u y u i ",
"f u f p p p p f u f a e e a p p p p p f u f p p p p f u f p p p p p p f u f p p p p u g u i q 4 > % O . d a u g u p p p f u f p ",
"p p p f u f p p p p a e e a p f u f p p p p f u f p p p p p f u f p p p p p f u f p f u f p q 4 > % O . d a f u f f u f p p p p ",
"p p p u g u p p p p a e e a p u g u p p p p u g u p p p p p u g u p p p p p u g u p p p p p q 4 > % O . d a p p p u g u p p p p ",
"p p p f u f f u f p a e e a p f u f f u f p f u h h h h h h h h h h h h h h f u f p p p p p q 4 > % O . d a p p p f u f p p p p ",
"f u f p p p u g u p a e e a p p p p u g u p p p h h h h h h h h h h h h h h p p p p p p p p q 4 > % O . d j u f p p p p f u f p ",
"q k u p p p f u f p a e e a p p p p f u l l h h z z z z z z z z z z z z z z h h l l f u f p q 4 > % O . d x g u p p p p u g u p ",
"f u f p p p p p p c a e e a c p p p p p l l h h z z z z z z z z z z z z z z h h l l u g u i q 4 , & v . d j t f p p p p f u f p ",
"a a a a a a a a a a b n n b a a a a l l h h z z z z z z z z z z z z z z z z z z h h l l j a w 6 < * + = m b a a a a a a a a a a ",
"d d d d d d d d d d m M M m d d d d l l h h z z z z z z z z z z z z z z z z z z h h l l d d e 7 1 = @ N M m d e e d d d d d d d ",
". . . . . . . . . . . . . . . . . . h h z z z z z z z z z z z z z z z z z z z z z z h h . . . . . : : . . . = B B = . . . . . . ",
"O O O O O O O O O O O O O O O O O O h h z z z z z z z z z z z z z z z z z z z z z z h h O O O O O O O O O v + $ $ + v O O O O O ",
"% % % % % % % % % % % % % % % % l l V V z z z z z z z z z z z z z z z z z z z z z z V V l l % % % % % % % & * = = * & % % % % % ",
"> > > > > > > > > > > > > > > > l l V V z z z z z z z z z z z z z z z z z z z z z z V V l l > > > > > > > , < 1 1 < , > > > > > ",
"4 4 5 4 4 4 4 4 4 4 4 4 4 4 4 4 l l V V z z z z z z z z z z z z z z z z z z z z z z V V l l 4 4 4 4 4 5 4 4 6 7 7 6 4 4 4 5 4 4 ",
"q 9 0 9 q q q q q q q q q q q q l l V V z z z z z z z z z z z z z z z z z z z z z z V V l l q q q q 9 0 9 q w e e w q q 9 0 9 q ",
"i u y u i p p p p p u p p p p p l l V V V V z z z z z z z z z z z z z z z z z z V V V V l l i p i s u y u i a e e a p i u y u i ",
"p f u f p p p p p u g u p p p u l l V V V V z z z z z z z z z z z z z z z z z z V V V V l l p f u f f u f p a e e a p p f u f p ",
"p p p p p p f u f f u f p p p f l l V V V V V V V V z z z z z z z z z z V V V V V V V V l l p u g u p p p p a e e a p p p p p p ",
"p p p p p p u g u p p p f u f p l l V V V V V V V V z z z z z z z z z z V V V V V V V V l l p f u f p p p p a e e a f u f p p p ",
"p p p p p p f u f p p p u g C C h h h h V V V V V V V V V V V V V V V V V V V V V V h h h h C C p p f u f p a e e a u g u p p p ",
"p p p p p p p p p f u f f u C C h h h h V V V V V V V V V V V V V V V V V V V V V V h h h h C C p p u g u p a e e a f u f f u f ",
"p f u f p p p p p u g u p p l l Z Z l l V V V V V V V V V V V V V V V V V V V V V V l l Z Z l l p p f u f p a e e a p p p u k q ",
"p u g u p p p p p f u f p p l l Z Z l l V V V V V V V V V V V V V V V V V V V V V V l l Z Z l l p p p p p c a e e a c p p f u f ",
"a j x j a a a a a a a a a a l l Z Z C C l l l l V V V V V V V V V V V V V V l l l l C C Z Z l l a a a a a a b n n b a a a a a a ",
"d d d d d d d d d e e d d d l l Z Z C C l l l l V V V V V V V V V V V V V V l l l l C C Z Z l l d d d d d d m M M m d d d d d d ",
". . . . . . . . = B B = . . . . l l C C A A C C l l l l l l l l l l l l l l A A A A C C l l . . . . . . . . . . . . . . . . . . ",
"O O O O O O O ; + $ $ + v O O O l l C C A A C C l l l l l l l l l l l l l l A A A A C C l l O O O O O O O O O O O O O O O O O O ",
"% % % % % % & - ; : = * & % % % % % l l C C A A A A A A A A A A A A A A A A A A C C l l % % % % % % % % % % % % % % % % % % % % ",
"> > > > 2 2 3 & O . 1 < , > > > > > l l C C A A A A A A A A A A A A A A A A A A C C l l > > > > > > > > > > > > > > > > > > > > ",
"4 4 4 4 4 8 2 % O . 7 6 4 4 4 4 4 4 4 4 l l C C A A A A A A A A A A A A A A C C l l 4 4 4 4 4 4 4 4 4 4 4 4 4 4 4 4 4 4 4 4 4 4 ",
"q q q q r 4 2 % O . e w q q q q q q q q l l C C A A A A A A A A A A A A A A C C l l q q q q q q q q q q q q q q q q q q q q q q ",
"p p p u S D > % O . d a p p p p u p p p F G l l l l C C A A A A A A C C l l l l z z l l l l p p p p u p p p p p u p p p p p u p ",
"p i u y 0 5 > % O . d a p p p u g u i p F G l l l l C C A A A A A A C C l l l l z z l l l l p p p u g u p p p u g u p p p u k q ",
"f u f u 9 4 > % O . d a p p p f u f u f l l z z H J C C C C C C C C C C K K L L z z P P I I l l p f u f f u f f u f f u f f u f ",
"q k u s q 4 > % O . d a p f u f i u g u l l z z U H C C C C C C C C C C K K L L z z P P I I l l p p i p u g u p p p u g u p i p ",
"f u f u 9 4 > % O . d a p u g u i f l l P P z z L L Y Y P P P P P P Y Y L L L L z z P P I I l l p f u f f u f p p p f u f f u f ",
"p i u y 0 5 > % O . d a p f u f u f l l P P z z L L Y Y P P P P P P Y Y L L L L z z P P I I l l p u g u p p p f u f p p p u k q ",
"p p f u 9 4 > % O . d a p p i u g u l l z z z z L L Y Y z z z z z z Y Y L L l l P P P P P P p p p f u f p p p u g u p p p f u f ",
"p p p i q 4 , & v . d a c p p f u f l l z z z z L L Y Y z z z z z z Y Y L L l l P P P P P P p p p p p p p p p f u f p p p p p p ",
"a a a a w 6 < * + = m b a a a a l l T T T T z z L L L L L L L L L L L L L L l l P P a a a a a a a a a a a a a a a a a a a a a a ",
"d d d d e 7 1 = @ N M m d d d d l l T T T T z z L L L L L L L L L L L L L L l l P P d d d d d d d d d d d d d d e e d d d d d d ",
". . . . . . . : : . . . . . . . l l I I I I l l Y Y L L L L L L L L L L L L Y Y l l . . . . . . . . . . . . . = B B = . . . . . ",
"O O O O O O O O O O O O O O O O l l I I I I l l Y Y L L L L L L L L L L L L Y Y l l O O O O O O O O O O O O v + $ $ + v O O O O ",
"% % % % % % % % % % % % % % % % % % l l l l l l Y Y L L L L L L L L L L L L Y Y l l % % % % % % % % % % % % & * = = * & % % % % ",
"> > > > > > > > > > > > > > > > > > l l l l l l Y Y L L L L L L L L L L L L Y Y l l R > > > > > > > > > > > , < 1 1 < , > > > > ",
"4 4 4 4 5 4 4 4 4 4 4 4 4 4 4 4 4 4 4 E E E W R l l L L L L L L L L L L L L Y Y l l E 4 4 5 4 4 4 4 4 4 4 4 4 6 7 7 6 4 4 4 4 4 ",
"q q q 9 0 9 q q q q q q q q q q q Q Q Q Q ! E R l l L L L L L L L L L L L L Y Y l l Q Q ~ 0 9 q q q q q q q q w e e w q q q q q ",
"p p i u y u i p p p p u p p p p p ^ ^ / ^ Q E R ( ) l l l l l l L L Y Y Y Y l l ^ ^ ^ _ / y u i p p p p u p p a e e a p p p u p ",
"p p p f u f p p p p u g u p p p p ^ / ` / Q E R ( ) l l l l l l L L Y Y Y Y l l / ^ ^ ^ ' u f p p p p u g u p a e e a p p u k q ",
"p p p p p p f u f p f u f p f u f ^ ' / ^ Q E R ( ) ] [ { / ' ' Y Y Y Y Y Y l l ' ^ ' / ' p p f u f p f u f u j e e j u f f u f ",
"f u f p p p u g u p p p p p u g u ^ ^ ^ ^ Q E R ( ) ] [ } ^ ^ / Y Y Y Y Y Y l l ^ ^ / ` / p p u g u p p i u g x d d x g u p p p ",
"q k u i p p f u f p p p p p f u f ' / ' ^ Q E R ( ) ] [ } ^ ^ ' l l | | | | l l ^ ^ ' / ' p p f u f p p p f u j e e j u f p p p ",
"f u f u f p p p p p f u f p p p p u g / _ Q E R ( ) ] [ { / ' ^ l l | | | | l l / ' ^ p f u f p p p p f u f p a e e a p p f u f ",
"p i u g u p p p p p u g u p p p p f u ' ^ Q E R ( ) ] [  .` / ^ ^ / l l l l ^ / ` / ^ p u g u p p p p u g u p a e e a p p u k q ",
"p p f u f p p p p p f u f p p p p p p p p Q E ..( X.] [ { o.' ^ ^ ' l l l l ^ ' / f p p f u f p p p p f u f c a e e a c p f u f ",
"a a a a a a a a a a a a a a a a a a a a a w 6 O.+.+ = m @.a a a a a a a a a a a a a a a a a a a a a a a a a a #.n n #.a a a a a ",
"$.$.$.$.$.$.$.$.$.$.$.$.$.$.$.$.$.$.$.$.$.%.1 &.  . X *.e $.$.$.$.$.$.$.$.$.$.$.$.$.$.$.$.$.$.$.$.$.$.$.$.$.$.e =.=.e $.$.$.$.$."
};
