/* XPM */
static char *result[] = {
/* columns rows colors chars-per-pixel */
"64 64 171 2 ",
"   c #C04F2D",
".  c #BF4E2C",
"X  c #BB4623",
"o  c #E1886B",
"O  c #E2886B",
"+  c #DD8062",
"@  c #BE4C2A",
"#  c #DD7F62",
"$  c #BE4D2A",
"%  c #E78E72",
"&  c #E78F72",
"*  c #E18568",
"=  c #BF4D2B",
"-  c #E89276",
";  c #E2886C",
":  c #BF4E2B",
">  c #E37A57",
",  c #E37A58",
"<  c #DE7351",
"1  c #BF4B28",
"2  c #E37957",
"3  c #E37C5B",
"4  c #E1724E",
"5  c #E1714D",
"6  c #DC6C48",
"7  c #BE4A27",
"8  c #E27552",
"9  c #DC592E",
"0  c #DD5B31",
"q  c #DC582D",
"w  c #D8562C",
"e  c #BE4723",
"r  c #DD5C32",
"t  c #DC582C",
"y  c #DF6740",
"u  c #DC572C",
"i  c #DB5427",
"p  c #DB5428",
"a  c #D75227",
"s  c #DB5327",
"d  c #BE4622",
"f  c #DB5529",
"g  c #DF6841",
"h  c #540101",
"j  c #F71A15",
"k  c #D75328",
"l  c #DF6741",
"z  c #D8562B",
"x  c #DC5428",
"c  c #E2896C",
"v  c #D45127",
"b  c #BD4623",
"n  c #F72520",
"m  c #F7241F",
"M  c #BD4622",
"N  c #BA4521",
"B  c #BA4523",
"V  c #F9F9F9",
"C  c #F4EEED",
"Z  c #F8EBEA",
"A  c #A42821",
"S  c #BA4623",
"D  c #E21D18",
"F  c #F6B3B1",
"G  c #F6B5B3",
"H  c #F73A36",
"J  c #F8F8F8",
"K  c #F8DEDE",
"L  c #F1E6E6",
"P  c #F71D18",
"I  c #F65B57",
"U  c #F62925",
"Y  c #F6F1F1",
"T  c black",
"R  c #F5EFEF",
"E  c #F6211C",
"W  c #F72A25",
"Q  c #F6F2F2",
"!  c #F8F0F0",
"~  c #F74541",
"^  c #F8EFEF",
"/  c #F72D28",
"(  c #F7817E",
")  c #F7F4F4",
"_  c #F5F0F0",
"`  c #F8E8E8",
"'  c #F61C17",
"]  c #F8CECC",
"[  c #F8F6F6",
"{  c #F8201C",
"}  c #E8D0CE",
"|  c #F8F5F5",
" . c #F62723",
".. c #F7DBDA",
"X. c #F7201C",
"o. c #A52B24",
"O. c #F7B4B3",
"+. c #F8ECEC",
"@. c #EEDEDD",
"#. c #EF1B16",
"$. c #A5251E",
"%. c #A42720",
"&. c #3F1111",
"*. c #784040",
"=. c #711F1E",
"-. c #E8B080",
";. c #24235F",
":. c #D0D0CF",
">. c #F8D0B8",
",. c #343289",
"<. c #FDFDFC",
"1. c #333188",
"2. c gray97",
"3. c #F6F5F5",
"4. c #363388",
"5. c #743D3D",
"6. c #733C3C",
"7. c #763E3E",
"8. c #D89870",
"9. c #E3AC7D",
"0. c #D8A275",
"q. c #78403F",
"w. c #150E0A",
"e. c #020101",
"r. c #020201",
"t. c #090605",
"y. c #040302",
"u. c #E5AD7D",
"i. c #C9956A",
"p. c #DC582E",
"a. c #E1724D",
"s. c #D95328",
"d. c #010101",
"f. c #E4AD7D",
"g. c #773F3F",
"h. c #D6966E",
"j. c #D3946D",
"k. c #E7AF7F",
"l. c #763F3E",
"z. c #733E3B",
"x. c #C98C66",
"c. c #CA8D67",
"v. c #1A63B0",
"b. c #2B265E",
"n. c #DC5529",
"m. c #D8D410",
"M. c #DCD710",
"N. c #DAD510",
"B. c #1A5DA9",
"V. c #1A62AF",
"C. c white",
"Z. c #1A5FAB",
"A. c #1A61AE",
"S. c #D0D0D0",
"D. c #92381B",
"F. c #933A1D",
"G. c #7F341D",
"H. c #7F2F17",
"J. c #75333C",
"K. c #92391B",
"L. c #8F371A",
"P. c #8F371B",
"I. c #DD7351",
"U. c #E18567",
"Y. c #D35027",
"T. c #D35127",
"R. c #BF4723",
"E. c #BF4824",
"W. c #C04C29",
"Q. c #BA4522",
"!. c #BB4522",
/* pixels */
"                    . X X .                                                                         . X X .                     ",
"o o o o o o o o o O + @ @ + O o o o o o o o o o o o o o o o o o o o o o o o o o o o o o o o o o o O # @ $ + O o o o o o o o o o ",
"% % % % % % % % % & * = = * & % % % % % % % % % % % % % % % % % % % % % % % % % % % % % % % % % & - ; : = * & % % % % % % % % % ",
"> > > > > > > > > , < 1 1 < , > > > > > > > > > > > > > > > > > > > > > > > > > > > > > > > 2 2 3 & O . 1 < , > > > > > > > > > ",
"4 5 4 4 4 4 4 4 5 4 6 7 7 6 4 4 4 4 4 4 5 4 4 4 4 4 4 5 4 4 4 4 4 4 4 4 5 4 4 4 4 4 4 4 4 4 4 8 2 % O . 7 6 4 4 4 4 4 4 4 5 4 4 ",
"9 0 9 q q q q 9 0 9 w e e w q q q q q 9 0 9 q q q q 9 0 9 q q q q q q 9 0 9 q q q q q q q q r 4 2 % O . e w q q q q q q 9 0 9 q ",
"t y u i p p i u y u a e e a p p p p i u y u i p p i u y u i p p p p i u y u i p p p p u p s q 4 > % O . d a p u p p p i u y u i ",
"f u f p p p p f u f a e e a p p p p p f u f p p p p f u f p p p p p p f u f p p p p u g u i q 4 > % O . d a u g u p p p f u f p ",
"p p p f u f p p p p a e e a p f u f p p p p f u f p p p h h h h h h h h h h h h h h f u f p q 4 > % O . d a f u f f u f p p p p ",
"p p p u g u p p p p a e e a p u g u p p p p u g u p p p h h h h h h h h h h h h h h p p p p q 4 > % O . d a p p p u g u p p p p ",
"p p p f u f f u f p a e e a p f u f f u f p f u f p h h j j j j j j j j j j j j j j h h h h q 4 > % O . d a p p p f u f p p p p ",
"f u f p p p u g u p a e e a p p p p u g u p p p p p h h j j j j j j j j j j j j j j h h h h q 4 > % O . d k u f p p p p f u f p ",
"q l u p p p f u f p a e e a p p p p f u f p p p h h j j j j j j j j j j j j j j j j j j j j h h > % O . d z g u p p p p u g u p ",
"f u f p p p p p p x a e e a x p p p p p p p p p h h j j j j j j j j j j j j j j j j j j j j h h , & c . d k t f p p p p f u f p ",
"a a a a a a a a a a v b b v a a a a a a a a a a h h n m j j j j j j j j j j j j j j j j j j h h < * + = M v a a a a a a a a a a ",
"d d d d d d d d d d M N N M d d d d d d d d d d h h n m j j j j j j j j j j j j j j j j j j h h 1 = @ B N M d e e d d d d d d d ",
". . . . . . . . . . . . . . . . . . . . . . h h V C V Z j j j j j j j j j j j j j j j j j j A A h h : . . . = S S = . . . . . . ",
"O O O O O O O O O O O O O O O O O O O O O O h D F G H J K j j j j j j j j j j j j j j j j j A A h h O O O c + $ $ + c O O O O O ",
"% % % % % % % % % % % % % % % % % % % % h h L P I U j Y K j j j j j j j j j j j j j j j j j A A T T % % % & * = = * & % % % % % ",
"> > > > > > > > > > > > > > > > > > > > h h R E j W j Q ! j j j j j j j j j j j j j j j j j A A T T > > > , < 1 1 < , > > > > > ",
"4 4 5 4 4 4 4 4 4 4 4 4 4 4 4 4 4 4 T T j ~ ^ / I ( j ) _ A j j j j j j j j j j j j j j A A A A T T 4 5 4 4 6 7 7 6 4 4 4 5 4 4 ",
"q 9 0 9 q q q q q q q q q q q q q q T T j j ` ' ] [ { J } A j j j j j j j j j j j j j j A A A A T T 9 0 9 q w e e w q q 9 0 9 q ",
"i u y u i p p p p p u p p p p p u p T T j j |  ...V X.J o.A A A A A A A A A A A A A A A A A A A T T u y u i a e e a p i u y u i ",
"p f u f p p p p p u g u p p p u g u T T j j j O.+.@.#.A A A A A A A A A A A A A A A A A A A A A T T f u f p a e e a p p f u f p ",
"p p p p p p f u f f u f p p p f u f T T A A $.$.A %.A A A A A A A A A A A A A A A A A A A A A A T T p p p p a e e a p p p p p p ",
"p p p p p p u g u p p p f u f p p p T T A A $.$.A A A A A A A A A A A A A A A A A A A A A A A A T T p p p p a e e a f u f p p p ",
"p p p p p p f u f p p p u g u p p p u y T T A A A A A A A A A A A A A A A A A A A A A A A A T T &.&.f u f p a e e a u g u p p p ",
"p p p p p p p p p f u f f u f f u f f u T T A A A A A A A A A A A A A A A A A A A A A A A A T T &.&.u g u p a e e a f u f f u f ",
"p f u f p p p p p u g u p p p u g u p i *.*.T T T T h h T T T T T T T T T T T T T T T T T T =.=.&.&.f u f p a e e a p p p u l q ",
"p u g u p p p p p f u f p p p f u f p p *.*.T T T T h h T T T T T T T T T T T T T T T T T T =.=.&.&.p p p x a e e a x p p f u f ",
"a k z k a a a a a a a a a a a a a a a a *.*.-.-.;.;.:.:.>.>.>.>.&.&.=.=.&.&.=.=.=.=.=.=.=.=.&.&.a a a a a a v b b v a a a a a a ",
"d d d d d d d d d e e d d d d d d d d d *.*.-.-.,.,.<.<.>.>.>.>.&.&.=.=.&.&.=.=.=.=.=.=.=.=.&.&.d d d d d d M N N M d d d d d d ",
". . . . . . . . = S S = . . . . . . . . *.*.-.-.1.1.J 2.-.-.>.>.&.&.*.*.*.*.&.&.=.=.=.=.&.&.. . . . . . . . . . . . . . . . . . ",
"O O O O O O O ; + $ $ + c O O O O O O O *.*.-.-.1.1.J 3.-.-.>.>.&.&.*.*.*.*.&.&.=.=.=.=.&.&.O O O O O O O O O O O O O O O O O O ",
"% % % % % % & - ; : = * & % % % % % % % *.*.-.-.4.4.J J -.-.-.-.*.*.>.>.>.>.5.6.=.=.=.=.&.&.% % % % % % % % % % % % % % % % % % ",
"> > > > 2 2 3 & O . 1 < , > > > > > > > *.*.-.-.4.4.J J -.-.-.-.*.*.>.>.>.>.7.5.=.=.=.=.&.&.> > > > > > > > > > > > > > > > > > ",
"4 4 4 4 4 8 2 % O . 7 6 4 4 4 4 4 4 4 4 T T T T T T T T T T -.-.8.8.-.-.9.0.*.q.8.8.*.*.4 4 4 4 4 4 4 4 4 4 4 4 4 4 4 4 4 4 4 4 ",
"q q q q r 4 2 % O . e w q q q q q q q q w.e.e.e.r.t.T y.y.-.-.-.8.8.-.-.u.i.q.q.8.8.*.*.q q q q q q q q q q q q q q q q q q q q ",
"p p p u p.a.> % O . d a p p p p u p p p s.T T T T T d.r.f.-.-.-.-.-.g.g.*.g.h.j.T T p u p p p p p p u p p p p p u p p p p p u p ",
"p i u y 0 5 > % O . d a p p p u g u i p u g *.*.-.k.-.k.k.-.-.-.-.-.g.g.l.z.x.c.T T u g u p p p p u g u p p p u g u p p p u l q ",
"f u f u 9 4 > % O . d a p p p f u f u f f u f f *.*.*.*.*.*.*.*.8.8.8.8.*.*.T T e a f u f f u f p f u f f u f f u f f u f f u f ",
"q l u s q 4 > % O . d a p f u f i u g u p p p u *.*.*.*.*.*.*.*.8.8.8.8.*.*.T T e a p p p u g u p p i p u g u p p p u g u p i p ",
"f u f u 9 4 > % O . d a p u g u i f u f p p p f u f p =.j j ;.v.v.v.v.v.=.=.T T e a p p p f u f p f u f f u f p p p f u f f u f ",
"p i u y 0 5 > % O . d a p f u f u f p p f u f p p p f =.j j ;.v.v.v.v.v.=.=.T T e a f u f p p p p u g u p p p f u f p p p u l q ",
"p p f u 9 4 > % O . d a p p i u g u p p u g u p p p u b.j j ;.v.;.;.j j j j T T e a u g u p p p p f u f p p p u g u p p p f u f ",
"p p p i q 4 , & c . d a x p p f u f p p f u f p p p f ;.j j ;.v.;.;.j j j j T T e a n.u f p p p p p p p p p p f u f p p p p p p ",
"a a a a w 6 < * + = M v a a a a a a a a a a a a a a a ;.v.m.M.v.;.;.j j j j =.=.b v a a a a a a a a a a a a a a a a a a a a a a ",
"d d d d e 7 1 = @ B N M d d d d d d d d d d d d d d e ;.v.m.N.v.;.;.j j j j =.=.N M d d d d d d d d d d d d d d e e d d d d d d ",
". . . . . . . : : . . . . . . . . . . . . . . . . = ;.;.v.v.v.v.;.;.j j j j v.v.T T . . . . . . . . . . . . . = S S = . . . . . ",
"O O O O O O O O O O O O O O O O O O O O O O O O ; + ;.B.v.v.v.v.;.;.j j j j v.v.T T O O O O O O O O O O O O c + $ $ + c O O O O ",
"% % % % % % % % % % % % % % % % % % % % % % % & - ; ;.V.v.v.T T C.C.C.C.T T v.v.T T % % % % % % % % % % % % & * = = * & % % % % ",
"> > > > > > > > > > > > > > > > > > > > > 2 2 3 & O ;.Z.v.v.T T C.C.C.C.T T v.v.T T > > > > > > > > > > > > , < 1 1 < , > > > > ",
"4 4 4 4 5 4 4 4 4 4 4 4 4 4 4 4 4 4 4 4 4 4 8 2 % O ;.A.v.v.T T S.S.S.S.T T v.v.T T 4 4 4 5 4 4 4 4 4 4 4 4 4 6 7 7 6 4 4 4 4 4 ",
"q q q 9 0 9 q q q q q q q q q q q q q q q r 4 2 % O ;.V.v.v.T T S.S.S.S.T T v.v.T T q q 9 0 9 q q q q q q q q w e e w q q q q q ",
"p p i u y u i p p p p u p p p p p p p u p q 4 > % O ;.Z.v.v.v.v.T T T T v.v.T T D.D.p i u y u i p p p p u p p a e e a p p p u p ",
"p p p f u f p p p p u g u p p p p p u g u q 4 > % O ;.;.v.v.v.v.T T T T v.v.T T F.D.p p f u f p p p p u g u p a e e a p p u l q ",
"p p p p p p f u f p f u f p f u f p f u p q 4 > % O G.H.T T J.J.J.J.J.J.J.J.T T K.D.f u f p p f u f p f u f u k e e k u f f u f ",
"f u f p p p u g u p p p p p u g u p p p p q 4 > % O G.H.T T J.J.J.J.J.J.J.J.T T D.D.u g u p p u g u p p i u g z d d z g u p p p ",
"q l u i p p f u f p p p p p f u f f u f p q 4 > % O G.H.L.D.T T T T T T T T F.K.D.D.f u f p p f u f p p p f u k e e k u f p p p ",
"f u f u f p p p p p f u f p p p p u g u i q 4 > % O G.H.P.F.T T T T T T T T D.K.F.K.p p f u f p p p p f u f p a e e a p p f u f ",
"p i u g u p p p p p u g u p p p p f u f p q 4 > % O . d z g u p p u g u p p p u g u p p u g u p p p p u g u p a e e a p p u l q ",
"p p f u f p p p p p f u f p p p p p p p p q 4 , & c . d k t f p p f u f p p p f u f p p f u f p p p p f u f x a e e a x p f u f ",
"a a a a a a a a a a a a a a a a a a a a a w 6 I.U.+ = M Y.a a a a a a a a a a a a a a a a a a a a a a a a a a T.b b T.a a a a a ",
"R.R.R.R.R.R.R.R.R.R.R.R.R.R.R.R.R.R.R.R.R.E.1 W.  . X Q.e R.R.R.R.R.R.R.R.R.R.R.R.R.R.R.R.R.R.R.R.R.R.R.R.R.R.e !.!.e R.R.R.R.R."
};
