/* XPM */
static char *eb81277806784c1ca9920779bc277bd3dUWrDorLHrTPimd5[] = {
/* columns rows colors chars-per-pixel */
"64 64 175 2 ",
"   c #C04F2D",
".  c #BF4E2C",
"X  c #BB4623",
"o  c #E1886B",
"O  c #E2886B",
"+  c #DD8062",
"@  c #BE4C2A",
"#  c #DD7F62",
"$  c #BE4D2A",
"%  c #E78E72",
"&  c #E78F72",
"*  c #E18568",
"=  c #BF4D2B",
"-  c #E89276",
";  c #E2886C",
":  c #BF4E2B",
">  c #E37A57",
",  c #E37A58",
"<  c #DE7351",
"1  c #BF4B28",
"2  c #E37957",
"3  c #E37C5B",
"4  c #E1724E",
"5  c #E1714D",
"6  c #DC6C48",
"7  c #BE4A27",
"8  c #E27552",
"9  c #DC592E",
"0  c #DD5B31",
"q  c #DC582D",
"w  c #D8562C",
"e  c #BE4723",
"r  c #DD5C32",
"t  c #DC582C",
"y  c #DF6740",
"u  c #DC572C",
"i  c #DB5427",
"p  c #DB5428",
"a  c #D75227",
"s  c #DB5327",
"d  c #BE4622",
"f  c #DB5529",
"g  c #540101",
"h  c #DF6841",
"j  c #F71A15",
"k  c #D75328",
"l  c #DF6741",
"z  c #D8562B",
"x  c #DC5428",
"c  c #F7241F",
"v  c #F72520",
"b  c #E2896C",
"n  c #D45127",
"m  c #BD4623",
"M  c #BD4622",
"N  c #BA4521",
"B  c #A42821",
"V  c #F8EBEA",
"C  c #F9F9F9",
"Z  c #F4EEED",
"A  c #BA4523",
"S  c #F8DEDE",
"D  c #F8F8F8",
"F  c #F73A36",
"G  c #F6B5B3",
"H  c #F6B3B1",
"J  c #E21D18",
"K  c #BA4623",
"L  c black",
"P  c #F6F1F1",
"I  c #F62925",
"U  c #F65B57",
"Y  c #F71D18",
"T  c #F1E6E6",
"R  c #F8F0F0",
"E  c #F6F2F2",
"W  c #F72A25",
"Q  c #F6211C",
"!  c #F5EFEF",
"~  c #F5F0F0",
"^  c #F7F4F4",
"/  c #F7817E",
"(  c #F72D28",
")  c #F8EFEF",
"_  c #F74541",
"`  c #E8D0CE",
"'  c #F8201C",
"]  c #F8F6F6",
"[  c #F8CECC",
"{  c #F61C17",
"}  c #F8E8E8",
"|  c #A52B24",
" . c #F7201C",
".. c #F7DBDA",
"X. c #F62723",
"o. c #F8F5F5",
"O. c #EF1B16",
"+. c #EEDEDD",
"@. c #F8ECEC",
"#. c #F7B4B3",
"$. c #A42720",
"%. c #A5251E",
"&. c #3F1111",
"*. c #711F1E",
"=. c #784040",
"-. c #F8D0B8",
";. c #D0D0CF",
":. c #24235F",
">. c #E8B080",
",. c #FDFDFC",
"<. c #343289",
"1. c gray97",
"2. c #333188",
"3. c #F6F5F5",
"4. c #733C3C",
"5. c #743D3D",
"6. c #363388",
"7. c #763E3E",
"8. c #D89870",
"9. c #78403F",
"0. c #D8A275",
"q. c #E3AC7D",
"w. c #C9956A",
"e. c #E5AD7D",
"r. c #040302",
"t. c #090605",
"y. c #020201",
"u. c #020101",
"i. c #150E0A",
"p. c #D3946D",
"a. c #D6966E",
"s. c #773F3F",
"d. c #E4AD7D",
"f. c #010101",
"g. c #DA572D",
"h. c #DC582E",
"j. c #E1724D",
"k. c #CA8D67",
"l. c #C98C66",
"z. c #733E3B",
"x. c #763F3E",
"c. c #E7AF7F",
"v. c #1A63B0",
"b. c #DC5529",
"n. c #DCD710",
"m. c white",
"M. c #975B47",
"N. c #D0D0D0",
"B. c #9A5F4C",
"V. c #97513A",
"C. c #964C34",
"Z. c #75333C",
"A. c #933B1E",
"S. c #933D21",
"D. c #933A1D",
"F. c #95452B",
"G. c #92391B",
"H. c #92381B",
"J. c #8F371A",
"K. c #8F371B",
"L. c #7F341D",
"P. c #7F2F17",
"I. c #90391D",
"U. c #97513B",
"Y. c #975B48",
"T. c #933B1D",
"R. c #DD7351",
"E. c #E18567",
"W. c #D35027",
"Q. c #D35127",
"!. c #BF4723",
"~. c #BF4824",
"^. c #C04C29",
"/. c #BA4522",
"(. c #BB4522",
/* pixels */
"                    . X X .                                                                         . X X .                     ",
"o o o o o o o o o O + @ @ + O o o o o o o o o o o o o o o o o o o o o o o o o o o o o o o o o o o O # @ $ + O o o o o o o o o o ",
"% % % % % % % % % & * = = * & % % % % % % % % % % % % % % % % % % % % % % % % % % % % % % % % % & - ; : = * & % % % % % % % % % ",
"> > > > > > > > > , < 1 1 < , > > > > > > > > > > > > > > > > > > > > > > > > > > > > > > > 2 2 3 & O . 1 < , > > > > > > > > > ",
"4 5 4 4 4 4 4 4 5 4 6 7 7 6 4 4 4 4 4 4 5 4 4 4 4 4 4 5 4 4 4 4 4 4 4 4 5 4 4 4 4 4 4 4 4 4 4 8 2 % O . 7 6 4 4 4 4 4 4 4 5 4 4 ",
"9 0 9 q q q q 9 0 9 w e e w q q q q q 9 0 9 q q q q 9 0 9 q q q q q q 9 0 9 q q q q q q q q r 4 2 % O . e w q q q q q q 9 0 9 q ",
"t y u i p p i u y u a e e a p p p p i u y u i p p i u y u i p p p p i u y u i p p p p u p s q 4 > % O . d a p u p p p i u y u i ",
"f u f p p p p f u f a e e a p p p p p f u f p p g g g g g g g g g g g g g g p p p p u h u i q 4 > % O . d a u h u p p p f u f p ",
"p p p f u f p p p p a e e a p f u f p p p p f u g g g g g g g g g g g g g g f u f p f u f p q 4 > % O . d a f u f f u f p p p p ",
"p p p u h u p p p p a e e a p u h u p p g g g g j j j j j j j j j j j j j j g g u p p p p p q 4 > % O . d a p p p u h u p p p p ",
"p p p f u f f u f p a e e a p f u f f u g g g g j j j j j j j j j j j j j j g g f p p p p p q 4 > % O . d a p p p f u f p p p p ",
"f u f p p p u h u p a e e a p p p p g g j j j j j j j j j j j j j j j j j j j j g g p p p p q 4 > % O . d k u f p p p p f u f p ",
"q l u p p p f u f p a e e a p p p p g g j j j j j j j j j j j j j j j j j j j j g g f u f p q 4 > % O . d z h u p p p p u h u p ",
"f u f p p p p p p x a e e a x p p p g g j j j j j j j j j j j j j j j j j j c v g g u h u i q 4 , & b . d k t f p p p p f u f p ",
"a a a a a a a a a a n m m n a a a a g g j j j j j j j j j j j j j j j j j j c v g g k z k a w 6 < * + = M n a a a a a a a a a a ",
"d d d d d d d d d d M N N M d d g g B B j j j j j j j j j j j j j j j j j j V C Z C g g d d e 7 1 = @ A N M d e e d d d d d d d ",
". . . . . . . . . . . . . . . . g g B B j j j j j j j j j j j j j j j j j S D F G H J g . . . . . : : . . . = K K = . . . . . . ",
"O O O O O O O O O O O O O O O O L L B B j j j j j j j j j j j j j j j j j S P j I U Y T g g O O O O O O O b + $ $ + b O O O O O ",
"% % % % % % % % % % % % % % % % L L B B j j j j j j j j j j j j j j j j j R E j W j Q ! g g % % % % % % % & * = = * & % % % % % ",
"> > > > > > > > > > > > > > > > L L B B B B j j j j j j j j j j j j j j B ~ ^ j / U ( ) _ j L L > > > > > , < 1 1 < , > > > > > ",
"4 4 5 4 4 4 4 4 4 4 4 4 4 4 4 4 L L B B B B j j j j j j j j j j j j j j B ` D ' ] [ { } j j L L 4 4 4 5 4 4 6 7 7 6 4 4 4 5 4 4 ",
"q 9 0 9 q q q q q q q q q q q q L L B B B B B B B B B B B B B B B B B B B | D  .C ..X.o.j j L L q q 9 0 9 q w e e w q q 9 0 9 q ",
"i u y u i p p p p p u p p p p p L L B B B B B B B B B B B B B B B B B B B B B O.+.@.#.j j j L L i s u y u i a e e a p i u y u i ",
"p f u f p p p p p u h u p p p u L L B B B B B B B B B B B B B B B B B B B B B B $.B %.%.B B L L u f f u f p a e e a p p f u f p ",
"p p p p p p f u f f u f p p p f L L B B B B B B B B B B B B B B B B B B B B B B B B %.%.B B L L h u p p p p a e e a p p p p p p ",
"p p p p p p u h u p p p f u f p &.&.L L B B B B B B B B B B B B B B B B B B B B B B B B L L p f u f p p p p a e e a f u f p p p ",
"p p p p p p f u f p p p u h u p &.&.L L B B B B B B B B B B B B B B B B B B B B B B B B L L p p p p f u f p a e e a u h u p p p ",
"p p p p p p p p p f u f f u f f &.&.*.*.L L L L L L L L L L L L L L L L L L g g L L L L =.=.p p p p u h u p a e e a f u f f u f ",
"p f u f p p p p p u h u p p p u &.&.*.*.L L L L L L L L L L L L L L L L L L g g L L L L =.=.p p p p f u f p a e e a p p p u l q ",
"p u h u p p p p p f u f p p p f u f &.&.*.*.*.*.*.*.*.*.&.&.*.*.&.&.-.-.-.-.;.;.:.:.>.>.=.=.p p p p p p p x a e e a x p p f u f ",
"a k z k a a a a a a a a a a a a a a &.&.*.*.*.*.*.*.*.*.&.&.*.*.&.&.-.-.-.-.,.,.<.<.>.>.=.=.a a a a a a a a n m m n a a a a a a ",
"d d d d d d d d d e e d d d d d d d d d &.&.*.*.*.*.&.&.=.=.=.=.&.&.-.-.>.>.1.D 2.2.>.>.=.=.d d d d d d d d M N N M d d d d d d ",
". . . . . . . . = K K = . . . . . . . . &.&.*.*.*.*.&.&.=.=.=.=.&.&.-.-.>.>.3.D 2.2.>.>.=.=.. . . . . . . . . . . . . . . . . . ",
"O O O O O O O ; + $ $ + b O O O O O O O &.&.*.*.*.*.4.5.-.-.-.-.=.=.>.>.>.>.D D 6.6.>.>.=.=.O O O O O O O O O O O O O O O O O O ",
"% % % % % % & - ; : = * & % % % % % % % &.&.*.*.*.*.5.7.-.-.-.-.=.=.>.>.>.>.D D 6.6.>.>.=.=.% % % % % % % % % % % % % % % % % % ",
"> > > > 2 2 3 & O . 1 < , > > > > > > > > > =.=.8.8.9.=.0.q.>.>.8.8.>.>.L L L L L L L L L L > > > > > > > > > > > > > > > > > > ",
"4 4 4 4 4 8 2 % O . 7 6 4 4 4 4 4 4 4 4 4 4 =.=.8.8.9.9.w.e.>.>.8.8.>.>.>.r.r.L t.y.u.u.u.i.4 4 4 4 4 4 4 4 4 4 4 4 4 4 4 4 4 4 ",
"q q q q r 4 2 % O . e w q q q q q q q q q q q q L L p.a.s.=.s.s.>.>.>.>.>.d.y.f.L L L L L g.q q q q q q q q q q q q q q q q q q ",
"p p p u h.j.> % O . d a p p p p u p p p p u p p L L k.l.z.x.s.s.>.>.>.>.>.c.c.>.c.>.=.=.p p p p p p u p p p p p u p p p p p u p ",
"p i u y 0 5 > % O . d a p p p u h u i p u h u p p p L L =.=.8.8.8.8.=.=.=.=.=.=.=.=.u h u p p p p u h u p p p u h u p p p u l q ",
"f u f u 9 4 > % O . d a p p p f u f u f f u f f u f L L =.=.8.8.8.8.=.=.=.=.=.=.=.=.f u f f u f p f u f f u f f u f f u f f u f ",
"q l u s q 4 > % O . d a p f u f i u h u p p p u h u L L :.:.v.v.v.v.j j :.:.a e e a p p p u h u p p i p u h u p p p u h u p i p ",
"f u f u 9 4 > % O . d a p u h u i f u f p p p f u f L L :.:.v.v.v.v.j j :.:.a e e a p p p f u f p f u f f u f p p p f u f f u f ",
"p i u y 0 5 > % O . d a p f u f u f p p f u f p p p L L :.:.j j j j :.:.:.:.a e e a f u f p p p p u h u p p p f u f p p p u l q ",
"p p f u 9 4 > % O . d a p p i u h u p p u h u p p p :.:.v.v.j j j j :.:.j j a e e a u h u p p p p f u f p p p u h u p p p f u f ",
"p p p i q 4 , & b . d a x p p f u f p p f u f p p p :.:.v.v.j j j j :.:.j j a e e a b.u f p p p p p p p p p p f u f p p p p p p ",
"a a a a w 6 < * + = M n a a a a a a a a a a a a L L :.:.:.:.j j j j :.:.n.n.:.:.m n a a a a a a a a a a a a a a a a a a a a a a ",
"d d d d e 7 1 = @ A N M d d d d d d d d d d d d L L :.:.:.:.j j j j :.:.n.n.:.:.N M d d d d d d d d d d d d d d e e d d d d d d ",
". . . . . . . : : . . . . . . . . . . . . . . . L L v.v.v.v.j j m.m.m.m.L L :.:.. . . . . . . . . . . . . . . = K K = . . . . . ",
"O O O O O O O O O O O O O O O O O O O O O O O O L L v.v.v.v.j j m.m.m.m.L L :.:.M.O O O O O O O O O O O O O b + $ $ + b O O O O ",
"% % % % % % % % % % % % % % % % % % % % % % L L v.v.v.v.v.v.L L N.N.N.N.L L :.:.B.% % % % % % % % % % % % % & * = = * & % % % % ",
"> > > > > > > > > > > > > > > > > > > > > V.L L v.v.v.v.v.v.L L N.N.N.N.L L :.:.V.V.> > > > > > > > > > > > , < 1 1 < , > > > > ",
"4 4 4 4 5 4 4 4 4 4 4 4 4 4 4 4 4 4 4 4 4 C.L L v.v.v.v.v.v.v.v.L L L L v.v.Z.Z.L L 4 4 4 5 4 4 4 4 4 4 4 4 4 6 7 7 6 4 4 4 4 4 ",
"q q q 9 0 9 q q q q q q q q q q q q q A.A.S.L L v.v.v.v.v.v.v.v.L L L L v.v.Z.Z.L L q q 9 0 9 q q q q q q q q w e e w q q q q q ",
"p p i u y u i p p p p u p p p p p p p D.L L Z.Z.:.:.:.:.v.v.:.:.:.:.Z.Z.Z.Z.Z.Z.L L p i u y u i p p p p u p p a e e a p p p u p ",
"p p p f u f p p p p u h u p p p p p u F.L L Z.Z.:.:.:.:.v.v.:.:.:.:.Z.Z.Z.Z.Z.Z.L L p p f u f p p p p u h u p a e e a p p u l q ",
"p p p p p p f u f p f u f p f u f p f D.L L Z.Z.Z.Z.Z.Z.L L G.G.D.G.L L L L L L G.H.f u f p p f u f p f u f u k e e k u f f u f ",
"f u f p p p u h u p p p p p u h u p p H.L L Z.Z.Z.Z.Z.Z.L L H.D.F.D.L L L L L L H.H.u h u p p u h u p p i u h z d d z h u p p p ",
"q l u i p p f u f p p p p p f u f f u G.H.A.L L L L L L J.H.H.G.D.G.H.H.H.G.D.G.H.H.f u f p p f u f p p p f u k e e k u f p p p ",
"f u f u f p p p p p f u f p p p p u h u i A.L L L L L L K.D.G.H.H.G.D.G.H.H.H.G.D.G.p p f u f p p p p f u f p a e e a p p f u f ",
"p i u h u p p p p p u h u p p p p f u f p A.C.V.B.M.L.P.I.F.D.H.H.D.F.D.H.H.H.D.F.D.p p u h u p p p p u h u p a e e a p p u l q ",
"p p f u f p p p p p f u f p p p p p p p p q 4 U.B.Y.L.P.K.T.G.H.H.G.D.G.H.H.H.G.D.G.p p f u f p p p p f u f x a e e a x p f u f ",
"a a a a a a a a a a a a a a a a a a a a a w 6 R.E.+ = M W.a a a a a a a a a a a a a a a a a a a a a a a a a a Q.m m Q.a a a a a ",
"!.!.!.!.!.!.!.!.!.!.!.!.!.!.!.!.!.!.!.!.!.~.1 ^.  . X /.e !.!.!.!.!.!.!.!.!.!.!.!.!.!.!.!.!.!.!.!.!.!.!.!.!.!.e (.(.e !.!.!.!.!."
};
