/* XPM */
static char *result[] = {
/* columns rows colors chars-per-pixel */
"64 64 218 2 ",
"   c #C04F2D",
".  c #BF4E2C",
"X  c #BB4623",
"o  c #E1886B",
"O  c #E2886B",
"+  c #DD8062",
"@  c #BE4C2A",
"#  c #DD7F62",
"$  c #BE4D2A",
"%  c #E78E72",
"&  c #E78F72",
"*  c #E18568",
"=  c #BF4D2B",
"-  c #E89276",
";  c #E2886C",
":  c #BF4E2B",
">  c #E37A57",
",  c #E37A58",
"<  c #DE7351",
"1  c #BF4B28",
"2  c #E37957",
"3  c #E37C5B",
"4  c #E1724E",
"5  c #E1714D",
"6  c #DC6C48",
"7  c #BE4A27",
"8  c #E27552",
"9  c #DC592E",
"0  c #DD5B31",
"q  c #DC582D",
"w  c #D8562C",
"e  c #BE4723",
"r  c #DD5C32",
"t  c #DC582C",
"y  c #DF6740",
"u  c #DC572C",
"i  c #DB5427",
"p  c #DB5428",
"a  c #D75227",
"s  c #DB5327",
"d  c #BE4622",
"f  c #DB5529",
"g  c #DF6841",
"h  c #A00800",
"j  c #D75328",
"k  c #DF6741",
"l  c #D8562B",
"z  c #DC5428",
"x  c #3A0002",
"c  c #E5251C",
"v  c #E2896C",
"b  c #D45127",
"n  c #BD4623",
"m  c #BD4622",
"M  c #BA4521",
"N  c #BA4523",
"B  c #BA4623",
"V  c #FEFEFE",
"C  c white",
"Z  c #FEF9F8",
"A  c #FEFDFD",
"S  c #A00801",
"D  c #784040",
"F  c #490002",
"G  c #631113",
"H  c #6A1618",
"J  c #6A1518",
"K  c #661215",
"L  c #460002",
"P  c #E8B080",
"I  c #681417",
"U  c #631013",
"Y  c #681316",
"T  c #510507",
"R  c #4B0103",
"E  c #691417",
"W  c #6D191A",
"Q  c #510407",
"!  c #73201F",
"~  c #6E1A1D",
"^  c #AD9180",
"/  c #772627",
"(  c #6B1619",
")  c #7A2825",
"_  c #83322C",
"`  c black",
"'  c #701D1D",
"]  c #6B1719",
"[  c #782828",
"{  c #803231",
"}  c #F8D0B8",
"|  c #701D1F",
" . c #722022",
".. c #6E1A1B",
"X. c #7B2925",
"o. c #C4C4C3",
"O. c #15153C",
"+. c #171741",
"@. c #742120",
"#. c #721F1E",
"$. c #2F2E85",
"%. c #343289",
"&. c gray99",
"*. c #F6CEB6",
"=. c #F7CFB7",
"-. c #323085",
";. c #333187",
":. c #53352F",
">. c #F3CBB4",
",. c #F4CCB5",
"<. c #593932",
"1. c #DC582E",
"2. c #E1724D",
"3. c #040403",
"4. c #0E0C0A",
"5. c #52342E",
"6. c #583831",
"7. c #181412",
"8. c #010000",
"9. c #52352F",
"0. c #51342E",
"q. c #D7562D",
"w. c #D6542A",
"e. c #E7AF7F",
"r. c #0F0B08",
"t. c #DCA779",
"y. c #773F3F",
"u. c #D2532B",
"i. c #D3552E",
"p. c #DA6741",
"a. c #F1CAB2",
"s. c #070605",
"d. c #0D0907",
"f. c #0F0D0B",
"g. c #DAB7A2",
"h. c #D5A275",
"j. c #E6AE7E",
"k. c #D2522A",
"l. c #DA5427",
"z. c #DA5529",
"x. c #E1261B",
"c. c #D89870",
"v. c #CE522B",
"b. c #CE532C",
"n. c #D4562E",
"m. c #D3542B",
"M. c #DB572C",
"N. c #1A63B0",
"B. c #A42821",
"V. c #CA512C",
"C. c #FBF7F4",
"Z. c #DEDBDA",
"A. c #5F5D5C",
"S. c #E8DF0A",
"D. c #E1DA10",
"F. c #87442F",
"G. c #934B33",
"H. c #8C381D",
"J. c #933B1E",
"K. c #903A1D",
"L. c #923A1E",
"P. c #933B1F",
"I. c #8E371A",
"U. c #91381B",
"Y. c #8E381C",
"T. c #75333C",
"R. c #90371A",
"E. c #933A1D",
"W. c #8E361A",
"Q. c #8D381C",
"!. c #90432A",
"~. c #8F371A",
"^. c #92391B",
"/. c #8B371C",
"(. c #883519",
"). c #923A1D",
"_. c #92381B",
"`. c #8A3519",
"'. c #91391D",
"]. c #94452B",
"[. c #90381B",
"{. c #8A371C",
"}. c #662A17",
"|. c #6C2813",
" X c #772D16",
".X c #792E16",
"XX c #792F17",
"oX c #7A3018",
"OX c #8E3619",
"+X c #8E391D",
"@X c #782E16",
"#X c #863419",
"$X c #863318",
"%X c #964C34",
"&X c #97513A",
"*X c #9A5F4C",
"=X c #975B47",
"-X c #7F341D",
";X c #7F2F17",
":X c #90391D",
">X c #95452B",
",X c #97513B",
"<X c #975B48",
"1X c #8F371B",
"2X c #933B1D",
"3X c #934830",
"4X c #934D36",
"5X c #965945",
"6X c #935541",
"7X c #7F331D",
"8X c #7E2F17",
"9X c #8D351A",
"0X c #D35127",
"qX c #BF4723",
"wX c #BF4824",
"eX c #C04C29",
"rX c #BA4522",
"tX c #BB4522",
/* pixels */
"                    . X X .                                                                         . X X .                     ",
"o o o o o o o o o O + @ @ + O o o o o o o o o o o o o o o o o o o o o o o o o o o o o o o o o o o O # @ $ + O o o o o o o o o o ",
"% % % % % % % % % & * = = * & % % % % % % % % % % % % % % % % % % % % % % % % % % % % % % % % % & - ; : = * & % % % % % % % % % ",
"> > > > > > > > > , < 1 1 < , > > > > > > > > > > > > > > > > > > > > > > > > > > > > > > > 2 2 3 & O . 1 < , > > > > > > > > > ",
"4 5 4 4 4 4 4 4 5 4 6 7 7 6 4 4 4 4 4 4 5 4 4 4 4 4 4 5 4 4 4 4 4 4 4 4 5 4 4 4 4 4 4 4 4 4 4 8 2 % O . 7 6 4 4 4 4 4 4 4 5 4 4 ",
"9 0 9 q q q q 9 0 9 w e e w q q q q q 9 0 9 q q q q 9 0 9 q q q q q q 9 0 9 q q q q q q q q r 4 2 % O . e w q q q q q q 9 0 9 q ",
"t y u i p p i u y u a e e a p p p p i u y u i p p i u y u i p p p p i u y u i p p p p u p s q 4 > % O . d a p u p p p i u y u i ",
"f u f p p p p f u f a e e a p p p p p f u f p p p p f u f p p p p p p f u f p p p p u g u i q 4 > % O . d a u g u p p p f u f p ",
"p p p f u f p p p p a e e a p f u f p p p p f u f p p p p p f u f p p p p p f u f p f u f p q 4 > % O . d a f u f f u f p p p p ",
"p p p u g u p p p p a e e a p u g u p p p p u g u p p p p p u g u p p p p p u g u p p p p p q 4 > % O . d a p p p u g u p p p p ",
"p p p f u f f u f p a e e a p f u f f u f p f u f p p p p p f u f p f u f p f u f p p p p p q 4 > % O . d a p p p f u f p p p p ",
"f u f p p p u g u p a e e a p p p p u g u p p p h h h h h h h h h h h h h h p p p p p p p p q 4 > % O . d j u f p p p p f u f p ",
"q k u p p p f u f p a e e a p p p p f u f p p p h h h h h h h h h h h h h h p p p p f u f p q 4 > % O . d l g u p p p p u g u p ",
"f u f p p p p p p z a e e a z p p p p p x x h h c c c c c c c c c c c c c c h h x x u g u i q 4 , & v . d j t f p p p p f u f p ",
"a a a a a a a a a a b n n b a a a a a a x x h h c c c c c c c c c c c c c c h h x x j l j a w 6 < * + = m b a a a a a a a a a a ",
"d d d d d d d d d d m M M m d d d d x x h h c c c c c c c c c c c c c c c c c c h h x x d d e 7 1 = @ N M m d e e d d d d d d d ",
". . . . . . . . . . . . . . . . . . x x h h c c c c c c c c c c c c c c c c c c h h x x . . . . . : : . . . = B B = . . . . . . ",
"O O O O O O O O O O O O O O O O O O h h c c c c c c c c c c c c c c c c c c c c c c h h O O O O O O O O O v + $ $ + v O O O O O ",
"% % % % % % % % % % % % % % % % % % h h c c c c c c c c c c c c c c c c c c c c c c h h % % % % % % % % % & * = = * & % % % % % ",
"> > > > > > > > > > > > > > > > x x h h c c c c c c c c V C C C C V V c c c c c c c h h x x > > > > > > > , < 1 1 < , > > > > > ",
"4 4 5 4 4 4 4 4 4 4 4 4 4 4 4 4 x x h h c c c c c c c C C C C C C C C C c c c c c c h h x x 4 4 4 4 4 5 4 4 6 7 7 6 4 4 4 5 4 4 ",
"q 9 0 9 q q q q q q q q q q q q x x h h h h c c c c C C C c Z C A c C C C c c c h h h h x x q q q q 9 0 9 q w e e w q q 9 0 9 q ",
"i u y u i p p p p p u p p p p p x x h h h h c c c c C C C c c V c c C C C c c c h h h h x x i p i s u y u i a e e a p i u y u i ",
"p f u f p p p p p u g u p p p u x x h h h h h h h h C C C c c c c c C C C h h h h h h h x x p f u f f u f p a e e a p p f u f p ",
"p p p p p p f u f f u f p p p f x x h h h h h h h h C C C c C c C c C C C h h h h h h h x x p u g u p p p p a e e a p p p p p p ",
"p p p p p p u g u p p p f u f p x x x x h h h h h h S C C c C C C c C C S h h h h h x x x x p f u f p p p p a e e a f u f p p p ",
"p p p p p p f u f p p p u g D D x x x x h h h h h h h h V c C C C c V h h h h h h h x x x x D D p p f u f p a e e a u g u p p p ",
"p p p p p p p p p f u f f u D D F F G H x x h h h h h h h h h h h h h h h h h h x x J K L L D D p p u g u p a e e a f u f f u f ",
"p f u f p p p p p u g u p p D D P P I U x x h h h h h h h h h h h h h h h h h h x x I I P P D D p p f u f p a e e a p p p u k q ",
"p u g u p p p p p f u f p p D D P P J Y T J x x x x c c c c c c c c c c x x x x J R E E P P D D p p p p p z a e e a z p p f u f ",
"a j l j a a a a a a a a a a D D P P H W Q G x x x x c c c c c c c c c c x x x x R R J ! P P D D a a a a a a b n n b a a a a a a ",
"d d d d d d d d d e e d d d D D P P J J ~ J ^ ^ x x x x x x x x x x x x x x ^ ^ / ( ) _ P P D D d d d d d d m M M m d d d d d d ",
". . . . . . . . = B B = . . . . ` ` ' ] [ { } } x x x x x x x x x x x x x x } } |  .] ..` ` . . . . . . . . . . . . . . . . . . ",
"O O O O O O O ; + $ $ + v O O O ` ` X.X.} } } } o.o.O.O.x x x x x x +.+.o.o.} } } } @.#.` ` O O O O O O O O O O O O O O O O O O ",
"% % % % % % & - ; : = * & % % % % % D D } } } } C C $.$.^ ^ ^ ^ ^ ^ $.$.C C } } } } D D % % % % % % % % % % % % % % % % % % % % ",
"> > > > 2 2 3 & O . 1 < , > > > > > D D } } } } C C %.%.} } } } } } %.%.C C } } } } D D > > > > > > > > > > > > > > > > > > > > ",
"4 4 4 4 4 8 2 % O . 7 6 4 4 4 4 4 4 ` ` } } } } &.&.%.%.*.} } =.} =.%.%.&.&.} } } } ` ` 4 4 4 4 4 4 4 4 4 4 4 4 4 4 4 4 4 4 4 4 ",
"q q q q r 4 2 % O . e w q q q q q q ` ` } } } } &.&.-.;.:.*.*.>.,.<.%.%.&.&.} } } } ` ` q q q q q q q q q q q q q q q q q q q q ",
"p p p u 1.2.> % O . d a p p p p u p p p D D } ,.` ` 3.4.5.*.=.=.=.6.7.` ` ` *.} D D p u p p p p p p u p p p p p u p p p p p u p ",
"p i u y 0 5 > % O . d a p p p u g u i p D D } } 3.` ` ` 8.9.0.0.:.` ` ` ` ` *.} D D u g u p p p p u g u p p p u g u p p p u k q ",
"f u f u 9 4 > % O . d a p p p f u f q.w.` ` D D e.r.` ` ` ` ` ` ` ` ` ` ` t.y.D ` ` u.i.f f u f p f u f f u f f u f f u f f u f ",
"q k u s q 4 > % O . d a p f u f i u p.q.` ` D D P e.a.` 3.s.d.d.f.f.f.g.h.j.y.D ` ` k.k.p u g u p p i p u g u p p p u g u p i p ",
"f u f u 9 4 > % O . d a p u g u l.z.` ` x.x.$.$.` ` D D c.c.c.c.c.c.D D ` ` $.$.x.x.` ` v.b.u f p f u f f u f p p p f u f f u f ",
"p i u y 0 5 > % O . d a p f u f n.m.` ` x.x.$.$.` ` D D c.c.c.c.c.c.D D ` ` $.$.x.x.` ` b.v.p p p u g u p p p f u f p p p u k q ",
"p p f u 9 4 > % O . d a p p l.M.` ` x.x.x.x.$.$.N.N.$.$.B.B.B.B.B.B.$.$.N.N.$.$.x.x.x.x.` ` V.V.p f u f p p p u g u p p p f u f ",
"p p p i q 4 , & v . d a z p p f ` ` x.x.x.x.$.$.N.N.$.$.B.B.B.B.B.B.$.$.N.N.$.$.x.x.x.x.` ` p p p p p p p p p f u f p p p p p p ",
"a a a a w 6 < * + = m b a a ` ` C.C.Z.Z.Z.Z.` ` N.N.$.$.x.x.x.x.x.x.$.$.N.N.` ` Z.Z.Z.Z.C.C.` ` a a a a a a a a a a a a a a a a ",
"d d d d e 7 1 = @ N M m d d ` ` C.C.Z.Z.Z.Z.` ` N.N.$.$.x.x.x.x.x.x.$.$.N.N.` ` Z.Z.Z.Z.C.C.` ` d d d d d d d d e e d d d d d d ",
". . . . . . . : : . . . . . ` ` Z.Z.Z.Z.A.A.` ` N.N.S.S.N.N.N.N.N.N.D.D.N.N.` ` A.A.Z.Z.Z.Z.` ` . . . . . . . = B B = . . . . . ",
"O O O O O O O O O O O O O O ` ` Z.Z.Z.Z.A.A.` ` N.N.S.S.N.N.N.N.N.N.D.D.N.N.` ` A.A.Z.Z.Z.Z.` ` O O O O O O v + $ $ + v O O O O ",
"% % % % % % % % % % % % % % % % ` ` ` ` ` ` N.N.N.N.N.N.N.N.N.N.N.N.N.N.N.N.N.N.` ` ` ` ` ` % % % % % % % % & * = = * & % % % % ",
"> > > > > > > > > > > > > > > > ` ` ` ` ` ` N.N.N.N.N.N.N.N.N.N.N.N.N.N.N.N.N.N.` ` ` ` ` ` > > > > > > > > , < 1 1 < , > > > > ",
"4 4 4 4 5 4 4 4 4 4 4 4 4 4 4 4 4 4 4 F.` ` $.$.N.N.N.N.N.N.N.N.N.N.N.N.N.N.$.$.` ` G.4 4 5 4 4 4 4 4 4 4 4 4 6 7 7 6 4 4 4 4 4 ",
"q q q 9 0 9 q q q q q q q q q q q H.J.K.` ` $.$.N.N.N.N.N.N.N.N.N.N.N.N.N.N.$.$.` ` L.K.P.0 9 q q q q q q q q w e e w q q q q q ",
"p p i u y u i p p p p u p p p p p I.U.Y.` ` T.T.$.$.$.$.N.N.N.N.N.N.$.$.$.$.T.T.` ` U.R.E.y u i p p p p u p p a e e a p p p u p ",
"p p p f u f p p p p u g u p p p p W.Q.!.` ` T.T.$.$.$.$.N.N.N.N.N.N.$.$.$.$.T.T.` ` W.~.^.u f p p p p u g u p a e e a p p u k q ",
"p p p p p p f u f p f u f p f u f U.U./.` ` T.T.T.T.` ` $.$.$.$.$.$.` ` T.T.T.T.` ` (.).^.p p f u f p f u f u j e e j u f f u f ",
"f u f p p p u g u p p p p p u g u U._.`.` ` T.T.T.T.` ` $.$.$.$.$.$.` ` T.T.T.T.` ` '.].E.p p u g u p p i u g l d d l g u p p p ",
"q k u i p p f u f p p p p p f u f [.E.[._.{.` ` ` ` }.|. X.X.XXXoXXX.X.X` ` ` ` R.U.[.'.^.p p f u f p p p f u j e e j u f p p p ",
"f u f u f p p p p p f u f p p p p u g E.OX+X` ` ` ` }.|.@XoX#X$X.XXXoXXX` ` ` ` E.^.I.p f u f p p p p f u f p a e e a p p f u f ",
"p i u g u p p p p p u g u p p p p f u ^._.J.%X&X*X=X-X;X:X>XE._._.E.>XE._._._.E.>XE._.p u g u p p p p u g u p a e e a p p u k q ",
"p p f u f p p p p p f u f p p p p p p p p J.%X,X*X<X-X;X1X2X^._._.^.E.^._._._.^.E.f p p f u f p p p p f u f z a e e a z p f u f ",
"a a a a a a a a a a a a a a a a a a a a a :X3X4X5X6X7X8X9X~.~.~.~.~.~.~.~.~.~.~.~.a a a a a a a a a a a a a a 0Xn n 0Xa a a a a ",
"qXqXqXqXqXqXqXqXqXqXqXqXqXqXqXqXqXqXqXqXqXwX1 eX  . X rXe qXqXqXqXqXqXqXqXqXqXqXqXqXqXqXqXqXqXqXqXqXqXqXqXqXqXe tXtXe qXqXqXqXqX"
};
