/* XPM */
static char *_32a798eb3434fabc00fc6c388b6c1e2eww6rtmd39VJYMAN[] = {
/* columns rows colors chars-per-pixel */
"64 64 168 2 ",
"   c #C04F2D",
".  c #BF4E2C",
"X  c #BB4623",
"o  c #E1886B",
"O  c #E2886B",
"+  c #DD8062",
"@  c #BE4C2A",
"#  c #DD7F62",
"$  c #BE4D2A",
"%  c #E78E72",
"&  c #E78F72",
"*  c #E18568",
"=  c #BF4D2B",
"-  c #E89276",
";  c #E2886C",
":  c #BF4E2B",
">  c #E37A57",
",  c #E37A58",
"<  c #DE7351",
"1  c #BF4B28",
"2  c #E37957",
"3  c #E37C5B",
"4  c #E1724E",
"5  c #E1714D",
"6  c #DC6C48",
"7  c #BE4A27",
"8  c #E27552",
"9  c #DC592E",
"0  c #DD5B31",
"q  c #DC582D",
"w  c #D8562C",
"e  c #BE4723",
"r  c #DD5C32",
"t  c #DC582C",
"y  c #DF6740",
"u  c #DC572C",
"i  c #DB5427",
"p  c #DB5428",
"a  c #D75227",
"s  c #540101",
"d  c #DB5327",
"f  c #BE4622",
"g  c #DB5529",
"h  c #DF6841",
"j  c #F71A15",
"k  c #D75328",
"l  c #DF6741",
"z  c #F7241F",
"x  c #F72520",
"c  c #D8562B",
"v  c #DC5428",
"b  c #E2896C",
"n  c #D45127",
"m  c #BD4623",
"M  c #A42821",
"N  c #F8EBEA",
"B  c #F9F9F9",
"V  c #F4EEED",
"C  c #BD4622",
"Z  c #BA4521",
"A  c #F8DEDE",
"S  c #F8F8F8",
"D  c #F73A36",
"F  c #F6B5B3",
"G  c #F6B3B1",
"H  c #E21D18",
"J  c #BA4523",
"K  c black",
"L  c #F6F1F1",
"P  c #F62925",
"I  c #F65B57",
"U  c #F71D18",
"Y  c #F1E6E6",
"T  c #BA4623",
"R  c #F8F0F0",
"E  c #F6F2F2",
"W  c #F72A25",
"Q  c #F6211C",
"!  c #F5EFEF",
"~  c #F5F0F0",
"^  c #F7F4F4",
"/  c #F7817E",
"(  c #F72D28",
")  c #F8EFEF",
"_  c #F74541",
"`  c #E8D0CE",
"'  c #F8201C",
"]  c #F8F6F6",
"[  c #F8CECC",
"{  c #F61C17",
"}  c #F8E8E8",
"|  c #A52B24",
" . c #F7201C",
".. c #F7DBDA",
"X. c #F62723",
"o. c #F8F5F5",
"O. c #EF1B16",
"+. c #EEDEDD",
"@. c #F8ECEC",
"#. c #F7B4B3",
"$. c #A42720",
"%. c #A5251E",
"&. c #3F1111",
"*. c #711F1E",
"=. c #784040",
"-. c #F8D0B8",
";. c #D0D0CF",
":. c #24235F",
">. c #E8B080",
",. c #FDFDFC",
"<. c #343289",
"1. c gray97",
"2. c #333188",
"3. c #F6F5F5",
"4. c #733C3C",
"5. c #743D3D",
"6. c #363388",
"7. c #763E3E",
"8. c #D89870",
"9. c #78403F",
"0. c #D8A275",
"q. c #E3AC7D",
"w. c #C9956A",
"e. c #E5AD7D",
"r. c #040302",
"t. c #090605",
"y. c #020201",
"u. c #020101",
"i. c #150E0A",
"p. c #D3946D",
"a. c #D6966E",
"s. c #773F3F",
"d. c #E4AD7D",
"f. c #010101",
"g. c #DF714D",
"h. c #CA8D67",
"j. c #C98C66",
"k. c #733E3B",
"l. c #763F3E",
"z. c #E7AF7F",
"x. c #DC582E",
"c. c #E1724D",
"v. c #1A63B0",
"b. c #D8D410",
"n. c #DC5529",
"m. c #975B47",
"M. c #D0D0D0",
"N. c #9A5F4C",
"B. c #97513A",
"V. c #75333C",
"C. c #964C34",
"Z. c #933B1E",
"A. c #8F371B",
"S. c #933A1D",
"D. c #8F371A",
"F. c #92381B",
"G. c #7F341D",
"H. c #7F2F17",
"J. c #92391B",
"K. c #DD7351",
"L. c #E18567",
"P. c #D35027",
"I. c #D35127",
"U. c #BF4723",
"Y. c #BF4824",
"T. c #C04C29",
"R. c #BA4522",
"E. c #BB4522",
/* pixels */
"                    . X X .                                                                         . X X .                     ",
"o o o o o o o o o O + @ @ + O o o o o o o o o o o o o o o o o o o o o o o o o o o o o o o o o o o O # @ $ + O o o o o o o o o o ",
"% % % % % % % % % & * = = * & % % % % % % % % % % % % % % % % % % % % % % % % % % % % % % % % % & - ; : = * & % % % % % % % % % ",
"> > > > > > > > > , < 1 1 < , > > > > > > > > > > > > > > > > > > > > > > > > > > > > > > > 2 2 3 & O . 1 < , > > > > > > > > > ",
"4 5 4 4 4 4 4 4 5 4 6 7 7 6 4 4 4 4 4 4 5 4 4 4 4 4 4 5 4 4 4 4 4 4 4 4 5 4 4 4 4 4 4 4 4 4 4 8 2 % O . 7 6 4 4 4 4 4 4 4 5 4 4 ",
"9 0 9 q q q q 9 0 9 w e e w q q q q q 9 0 9 q q q q 9 0 9 q q q q q q 9 0 9 q q q q q q q q r 4 2 % O . e w q q q q q q 9 0 9 q ",
"t y u i p p i u y u a e e a p p p p i u y u s s s s s s s s s s s s s s y u i p p p p u p d q 4 > % O . f a p u p p p i u y u i ",
"g u g p p p p g u g a e e a p p p p p g u g s s s s s s s s s s s s s s u g p p p p u h u i q 4 > % O . f a u h u p p p g u g p ",
"p p p g u g p p p p a e e a p g u g s s s s j j j j j j j j j j j j j j s s g u g p g u g p q 4 > % O . f a g u g g u g p p p p ",
"p p p u h u p p p p a e e a p u h u s s s s j j j j j j j j j j j j j j s s u h u p p p p p q 4 > % O . f a p p p u h u p p p p ",
"p p p g u g g u g p a e e a p g s s j j j j j j j j j j j j j j j j j j j j s s g p p p p p q 4 > % O . f a p p p g u g p p p p ",
"g u g p p p u h u p a e e a p p s s j j j j j j j j j j j j j j j j j j j j s s p p p p p p q 4 > % O . f k u g p p p p g u g p ",
"q l u p p p g u g p a e e a p p s s j j j j j j j j j j j j j j j j j j z x s s p p g u g p q 4 > % O . f c h u p p p p u h u p ",
"g u g p p p p p p v a e e a v p s s j j j j j j j j j j j j j j j j j j z x s s p p u h u i q 4 , & b . f k t g p p p p g u g p ",
"a a a a a a a a a a n m m n s s M M j j j j j j j j j j j j j j j j j j N B V B s s k c k a w 6 < * + = C n a a a a a a a a a a ",
"f f f f f f f f f f C Z Z C s s M M j j j j j j j j j j j j j j j j j A S D F G H s f f f f e 7 1 = @ J Z C f e e f f f f f f f ",
". . . . . . . . . . . . . . K K M M j j j j j j j j j j j j j j j j j A L j P I U Y s s . . . . . : : . . . = T T = . . . . . . ",
"O O O O O O O O O O O O O O K K M M j j j j j j j j j j j j j j j j j R E j W j Q ! s s O O O O O O O O O b + $ $ + b O O O O O ",
"% % % % % % % % % % % % % % K K M M M M j j j j j j j j j j j j j j M ~ ^ j / I ( ) _ j K K % % % % % % % & * = = * & % % % % % ",
"> > > > > > > > > > > > > > K K M M M M j j j j j j j j j j j j j j M ` S ' ] [ { } j j K K > > > > > > > , < 1 1 < , > > > > > ",
"4 4 5 4 4 4 4 4 4 4 4 4 4 4 K K M M M M M M M M M M M M M M M M M M M | S  .B ..X.o.j j K K 4 4 4 4 4 5 4 4 6 7 7 6 4 4 4 5 4 4 ",
"q 9 0 9 q q q q q q q q q q K K M M M M M M M M M M M M M M M M M M M M M O.+.@.#.j j j K K q q q q 9 0 9 q w e e w q q 9 0 9 q ",
"i u y u i p p p p p u p p p K K M M M M M M M M M M M M M M M M M M M M M M $.M %.%.M M K K i p i d u y u i a e e a p i u y u i ",
"p g u g p p p p p u h u p p K K M M M M M M M M M M M M M M M M M M M M M M M M %.%.M M K K p g u g g u g p a e e a p p g u g p ",
"p p p p p p g u g g u g p p &.&.K K M M M M M M M M M M M M M M M M M M M M M M M M K K p p p u h u p p p p a e e a p p p p p p ",
"p p p p p p u h u p p p g u &.&.K K M M M M M M M M M M M M M M M M M M M M M M M M K K p p p g u g p p p p a e e a g u g p p p ",
"p p p p p p g u g p p p u h &.&.*.*.K K K K K K K K K K K K K K K K K K s s K K K K =.=.u g p p p p g u g p a e e a u h u p p p ",
"p p p p p p p p p g u g g u &.&.*.*.K K K K K K K K K K K K K K K K K K s s K K K K =.=.h u p p p p u h u p a e e a g u g g u g ",
"p g u g p p p p p u h u p p p u &.&.*.*.*.*.*.*.*.*.&.&.*.*.&.&.-.-.-.-.;.;.:.:.>.>.=.=.u g p p p p g u g p a e e a p p p u l q ",
"p u h u p p p p p g u g p p p g &.&.*.*.*.*.*.*.*.*.&.&.*.*.&.&.-.-.-.-.,.,.<.<.>.>.=.=.p p p p p p p p p v a e e a v p p g u g ",
"a k c k a a a a a a a a a a a a a a &.&.*.*.*.*.&.&.=.=.=.=.&.&.-.-.>.>.1.S 2.2.>.>.=.=.a a a a a a a a a a n m m n a a a a a a ",
"f f f f f f f f f e e f f f f f f f &.&.*.*.*.*.&.&.=.=.=.=.&.&.-.-.>.>.3.S 2.2.>.>.=.=.f f f f f f f f f f C Z Z C f f f f f f ",
". . . . . . . . = T T = . . . . . . &.&.*.*.*.*.4.5.-.-.-.-.=.=.>.>.>.>.S S 6.6.>.>.=.=.. . . . . . . . . . . . . . . . . . . . ",
"O O O O O O O ; + $ $ + b O O O O O &.&.*.*.*.*.5.7.-.-.-.-.=.=.>.>.>.>.S S 6.6.>.>.=.=.O O O O O O O O O O O O O O O O O O O O ",
"% % % % % % & - ; : = * & % % % % % % % =.=.8.8.9.=.0.q.>.>.8.8.>.>.K K K K K K K K K K % % % % % % % % % % % % % % % % % % % % ",
"> > > > 2 2 3 & O . 1 < , > > > > > > > =.=.8.8.9.9.w.e.>.>.8.8.>.>.>.r.r.K t.y.u.u.u.i.> > > > > > > > > > > > > > > > > > > > ",
"4 4 4 4 4 8 2 % O . 7 6 4 4 4 4 4 4 4 4 4 4 K K p.a.s.=.s.s.>.>.>.>.>.d.y.f.K K K K K g.4 4 4 4 4 4 4 4 4 4 4 4 4 4 4 4 4 4 4 4 ",
"q q q q r 4 2 % O . e w q q q q q q q q q q K K h.j.k.l.s.s.>.>.>.>.>.z.z.>.z.>.=.=.q q q q q q q q q q q q q q q q q q q q q q ",
"p p p u x.c.> % O . f a p p p p u p p p p u p p K K =.=.8.8.8.8.=.=.=.=.=.=.=.=.e a p u p p p p p p u p p p p p u p p p p p u p ",
"p i u y 0 5 > % O . f a p p p u h u i p u h u p K K =.=.8.8.8.8.=.=.=.=.=.=.=.=.e a u h u p p p p u h u p p p u h u p p p u l q ",
"g u g u 9 4 > % O . f a p p p g u g u g g u g g u g K K :.:.v.v.v.v.j j :.:.a e e a g u g g u g p g u g g u g g u g g u g g u g ",
"q l u d q 4 > % O . f a p g u g i u h u p p p u h u K K :.:.v.v.v.v.j j :.:.a e e a p p p u h u p p i p u h u p p p u h u p i p ",
"g u g u 9 4 > % O . f a p u h u i g u g p p p g u g K K j j j j :.:.j j :.:.a e e a p p p g u g p g u g g u g p p p g u g g u g ",
"p i u y 0 5 > % O . f a p g u g u g p p g u g p p p K K j j j j :.:.j j :.:.a e e a g u g p p p p u h u p p p g u g p p p u l q ",
"p p g u 9 4 > % O . f a p p i u h u p p u h u p :.:.v.v.j j j j :.:.b.b.:.:.a e e a u h u p p p p g u g p p p u h u p p p g u g ",
"p p p i q 4 , & b . f a v p p g u g p p g u g p :.:.v.v.j j j j :.:.b.b.:.:.a e e a n.u g p p p p p p p p p p g u g p p p p p p ",
"a a a a w 6 < * + = C n a a a a a a a a a a a a :.:.K K j j j j :.:.v.v.:.:.:.:.m n a a a a a a a a a a a a a a a a a a a a a a ",
"f f f f e 7 1 = @ J Z C f f f f f f f f f f f f :.:.K K j j j j :.:.v.v.:.:.:.:.Z C f f f f f f f f f f f f f f e e f f f f f f ",
". . . . . . . : : . . . . . . . . . . . . . . . K K B B B B K K v.v.v.v.v.v.:.:.. . . . . . . . . . . . . . . = T T = . . . . . ",
"O O O O O O O O O O O O O O O O O O O O O O O O K K B B B B K K v.v.v.v.v.v.:.:.m.O O O O O O O O O O O O O b + $ $ + b O O O O ",
"% % % % % % % % % % % % % % % % % % % % % % K K K K M.M.M.M.K K v.v.v.v.v.v.:.:.N.% % % % % % % % % % % % % & * = = * & % % % % ",
"> > > > > > > > > > > > > > > > > > > > > B.K K K K M.M.M.M.K K v.v.v.v.v.v.:.:.B.B.> > > > > > > > > > > > , < 1 1 < , > > > > ",
"4 4 4 4 5 4 4 4 4 4 4 4 4 4 4 4 4 4 4 4 K K V.V.v.v.K K K K v.v.v.v.v.v.v.v.:.:.C.C.4 4 4 5 4 4 4 4 4 4 4 4 4 6 7 7 6 4 4 4 4 4 ",
"q q q 9 0 9 q q q q q q q q q q q q q q K K V.V.v.v.K K K K v.v.v.v.v.v.v.v.:.:.Z.Z.q q 9 0 9 q q q q q q q q w e e w q q q q q ",
"p p i u y u i p p p p u p p p p p p p u K K V.V.v.v.v.v.:.:.v.v.v.v.K K K K V.V.V.V.p i u y u i p p p p u p p a e e a p p p u p ",
"p p p g u g p p p p u h u p p p p p u h K K V.V.v.v.v.v.:.:.v.v.v.v.K K K K V.V.V.V.p p g u g p p p p u h u p a e e a p p u l q ",
"p p p p p p g u g p g u g p g u g p g u K K V.V.V.V.K K A.S.K K K K V.V.V.V.V.V.K K g u g p p g u g p g u g u k e e k u g g u g ",
"g u g p p p u h u p p p p p u h u p p p K K V.V.V.V.K K D.F.K K K K V.V.V.V.V.V.K K u h u p p u h u p p i u h c f f c h u p p p ",
"q l u i p p g u g p p p p p g u g g u g F.Z.K K K K G.H.D.F.F.J.S.J.K K K K K K F.F.g u g p p g u g p p p g u k e e k u g p p p ",
"g u g u g p p p p p g u g p p p p u h u i Z.K K K K G.H.A.S.J.F.F.J.K K K K K K S.J.p p g u g p p p p g u g p a e e a p p g u g ",
"p i u h u p p p p p u h u p p p p g u g p q 4 > % O . f c h u p p u h u p p p u h u p p u h u p p p p u h u p a e e a p p u l q ",
"p p g u g p p p p p g u g p p p p p p p p q 4 , & b . f k t g p p g u g p p p g u g p p g u g p p p p g u g v a e e a v p g u g ",
"a a a a a a a a a a a a a a a a a a a a a w 6 K.L.+ = C P.a a a a a a a a a a a a a a a a a a a a a a a a a a I.m m I.a a a a a ",
"U.U.U.U.U.U.U.U.U.U.U.U.U.U.U.U.U.U.U.U.U.Y.1 T.  . X R.e U.U.U.U.U.U.U.U.U.U.U.U.U.U.U.U.U.U.U.U.U.U.U.U.U.U.e E.E.e U.U.U.U.U."
};
