/* XPM */
static char *b7410c5385e24834f25ce839d96780dfiZzhD5XooA3CevGs[] = {
/* columns rows colors chars-per-pixel */
"64 64 110 2 ",
"   c #C04F2D",
".  c #BF4E2C",
"X  c #BB4623",
"o  c #E1886B",
"O  c #E2886B",
"+  c #DD8062",
"@  c #BE4C2A",
"#  c #DD7F62",
"$  c #BE4D2A",
"%  c #E78E72",
"&  c #E78F72",
"*  c #E18568",
"=  c #BF4D2B",
"-  c #E89276",
";  c #E2886C",
":  c #BF4E2B",
">  c #E37A57",
",  c #E37A58",
"<  c #DE7351",
"1  c #BF4B28",
"2  c #E37957",
"3  c #E37C5B",
"4  c #E1724E",
"5  c #E1714D",
"6  c #DC6C48",
"7  c #BE4A27",
"8  c #E27552",
"9  c #DC592E",
"0  c #DD5B31",
"q  c #DC582D",
"w  c #D8562C",
"e  c #BE4723",
"r  c #DD5C32",
"t  c #DC582C",
"y  c #DF6740",
"u  c #DC572C",
"i  c #DB5427",
"p  c #DB5428",
"a  c #D75227",
"s  c #DB5327",
"d  c #BE4622",
"f  c #DB5529",
"g  c #DF6841",
"h  c #D75328",
"j  c #DF6741",
"k  c #711F1E",
"l  c #D8562B",
"z  c #DC5428",
"x  c #E2896C",
"c  c #D45127",
"v  c #BD4623",
"b  c black",
"n  c #F71A15",
"m  c #BD4622",
"M  c #BA4521",
"N  c #BA4523",
"B  c #BA4623",
"V  c #B10F07",
"C  c #401010",
"Z  c #D8A078",
"A  c #691417",
"S  c #DC582E",
"D  c #E1724D",
"F  c #001400",
"G  c #DE6841",
"H  c #C55027",
"J  c #DA5529",
"K  c #1A63B0",
"L  c #24235F",
"P  c #DB572C",
"I  c #CB522D",
"U  c #A42821",
"Y  c #A32720",
"T  c #BF502F",
"R  c #A22720",
"E  c #D55329",
"W  c #DA5428",
"Q  c white",
"!  c #D0D0D0",
"~  c #1A5DA9",
"^  c #1A5AA4",
"/  c #1A5DA8",
"(  c #964C34",
")  c #933B1E",
"_  c #933B1F",
"`  c #92381B",
"'  c #933A1D",
"]  c #1A539C",
"[  c #1C2B67",
"{  c #202763",
"}  c #1D4488",
"|  c #92381A",
" . c #95452B",
".. c #1A62AF",
"X. c #1A61AE",
"o. c #92391B",
"O. c #75333C",
"+. c #7F341D",
"@. c #7F2F17",
"#. c #8F371A",
"$. c #8F371B",
"%. c #DD7351",
"&. c #E18567",
"*. c #D35027",
"=. c #D35127",
"-. c #BF4723",
";. c #BF4824",
":. c #C04C29",
">. c #BA4522",
",. c #BB4522",
/* pixels */
"                    . X X .                                                                         . X X .                     ",
"o o o o o o o o o O + @ @ + O o o o o o o o o o o o o o o o o o o o o o o o o o o o o o o o o o o O # @ $ + O o o o o o o o o o ",
"% % % % % % % % % & * = = * & % % % % % % % % % % % % % % % % % % % % % % % % % % % % % % % % % & - ; : = * & % % % % % % % % % ",
"> > > > > > > > > , < 1 1 < , > > > > > > > > > > > > > > > > > > > > > > > > > > > > > > > 2 2 3 & O . 1 < , > > > > > > > > > ",
"4 5 4 4 4 4 4 4 5 4 6 7 7 6 4 4 4 4 4 4 5 4 4 4 4 4 4 5 4 4 4 4 4 4 4 4 5 4 4 4 4 4 4 4 4 4 4 8 2 % O . 7 6 4 4 4 4 4 4 4 5 4 4 ",
"9 0 9 q q q q 9 0 9 w e e w q q q q q 9 0 9 q q q q 9 0 9 q q q q q q 9 0 9 q q q q q q q q r 4 2 % O . e w q q q q q q 9 0 9 q ",
"t y u i p p i u y u a e e a p p p p i u y u i p p i u y u i p p p p i u y u i p p p p u p s q 4 > % O . d a p u p p p i u y u i ",
"f u f p p p p f u f a e e a p p p p p f u f p p p p f u f p p p p p p f u f p p p p u g u i q 4 > % O . d a u g u p p p f u f p ",
"p p p f u f p p p p a e e a p f u f p p p p f u f p p p p p f u f p p p p p f u f p f u f p q 4 > % O . d a f u f f u f p p p p ",
"p p p u g u p p p p a e e a p u g u p p p p u g u p p p p p u g u p p p p p u g u p p p p p q 4 > % O . d a p p p u g u p p p p ",
"p p p f u f f u f p a e e a p f u f f u f p f u f p p p p p f u f p f u f p f u f p p p p p q 4 > % O . d a p p p f u f p p p p ",
"f u f p p p u g u p a e e a p p p p u g u p p p p p f u f p p p p p u g u p p p p p p p p p q 4 > % O . d h u f p p p p f u f p ",
"q j u p p p f u f p a e e a p p p p f u f p p p k k k k k k k k k k k k k k p p p p f u f p q 4 > % O . d l g u p p p p u g u p ",
"f u f p p p p p p z a e e a z p p p p p p p p p k k k k k k k k k k k k k k p p p p u g u i q 4 , & x . d h t f p p p p f u f p ",
"a a a a a a a a a a c v v c a a a a a a b b k k n n n n n n n n n n n n n n k k b b h l h a w 6 < * + = m c a a a a a a a a a a ",
"d d d d d d d d d d m M M m d d d d d d b b k k n n n n n n n n n n n n n n k k b b d d d d e 7 1 = @ N M m d e e d d d d d d d ",
". . . . . . . . . . . . . . . . . . b b k k n n n n n n n n n n n n n n n n n n k k b b . . . . . : : . . . = B B = . . . . . . ",
"O O O O O O O O O O O O O O O O O O b b k k n n n n n n n n n n n n n n n n n n k k b b O O O O O O O O O x + $ $ + x O O O O O ",
"% % % % % % % % % % % % % % % % % % k k n n n n n n n n n n n n n n n n n n n n n n k k % % % % % % % % % & * = = * & % % % % % ",
"> > > > > > > > > > > > > > > > > > k k n n n n n n n n n n n n n n n n n n n n n n k k > > > > > > > > > , < 1 1 < , > > > > > ",
"4 4 5 4 4 4 4 4 4 4 4 4 4 4 4 4 b b V V n n n n n n n n n n n n n n n n n n n n n n V V b b 4 4 4 4 4 5 4 4 6 7 7 6 4 4 4 5 4 4 ",
"q 9 0 9 q q q q q q q q q q q q b b V V n n n n n n n n n n n n n n n n n n n n n n V V b b q q q q 9 0 9 q w e e w q q 9 0 9 q ",
"i u y u i p p p p p u p p p p p b b V V n n n n n n n n n n n n n n n n n n n n n n V V b b i p i s u y u i a e e a p i u y u i ",
"p f u f p p p p p u g u p p p u b b V V n n n n n n n n n n n n n n n n n n n n n n V V b b p f u f f u f p a e e a p p f u f p ",
"p p p p p p f u f f u f p p p f b b V V V V n n n n n n n n n n n n n n n n n n V V V V b b p u g u p p p p a e e a p p p p p p ",
"p p p p p p u g u p p p f u f p b b V V V V n n n n n n n n n n n n n n n n n n V V V V b b p f u f p p p p a e e a f u f p p p ",
"p p p p p p f u f p p p u g u p b b V V V V V V V V n n n n n n n n n n V V V V V V V V b b p p p p f u f p a e e a u g u p p p ",
"p p p p p p p p p f u f f u f f b b V V V V V V V V n n n n n n n n n n V V V V V V V V b b p p p p u g u p a e e a f u f f u f ",
"p f u f p p p p p u g u p p C C k k k k V V V V V V V V V V V V V V V V V V V V V V k k k k C C p p f u f p a e e a p p p u j q ",
"p u g u p p p p p f u f p p C C k k k k V V V V V V V V V V V V V V V V V V V V V V k k k k C C p p p p p z a e e a z p p f u f ",
"a h l h a a a a a a a a a a b b Z Z b b V V V V V V V V V V V V V V V V V V V V V V b b Z Z b b a a a a a a c v v c a a a a a a ",
"d d d d d d d d d e e d d d b b Z Z b b V V V V V V V V V V V V V V V V V V V V V V b b Z Z b b d d d d d d m M M m d d d d d d ",
". . . . . . . . = B B = . . b b Z Z C C b b b b V V V V V V V V V V V V V V b b b b C C Z Z b b . . . . . . . . . . . . . . . . ",
"O O O O O O O ; + $ $ + x O b b Z Z C C b b b b V V V V V V V V V V V V V V b b b b C C Z Z b b O O O O O O O O O O O O O O O O ",
"% % % % % % & - ; : = * & % % % b b C C A A C C b b b b b b b b b b b b b b A A A A C C b b % % % % % % % % % % % % % % % % % % ",
"> > > > 2 2 3 & O . 1 < , > > > b b C C A A C C b b b b b b b b b b b b b b A A A A C C b b > > > > > > > > > > > > > > > > > > ",
"4 4 4 4 4 8 2 % O . 7 6 4 4 4 4 4 4 b b C C A A A A A A A A A A A A A A A A A A C C b b 4 4 4 4 4 4 4 4 4 4 4 4 4 4 4 4 4 4 4 4 ",
"q q q q r 4 2 % O . e w q q q q q q b b C C A A A A A A A A A A A A A A A A A A C C b b q q q q q q q q q q q q q q q q q q q q ",
"p p p u S D > % O . d a p p p p u p p p b b C C A A A A A A A A A A A A A A C C b b p u p p p p p p u p p p p p u p p p p p u p ",
"p i u y 0 5 > % O . d a p p p u g u i p b b C C A A A A A A A A A A A A A A C C b b u g u p p p p u g u p p p u g u p p p u j q ",
"f u f u 9 4 > % O . d a p p p f u f u f F F b b b b C C A A A A A A C C b b b b F F f u f f u f p f u f f u f f u f f u f f u f ",
"q j u s q 4 > % O . d a p f u f i u G H F F b b b b C C A A A A A A C C b b b b F F p p p u g u p p i p u g u p p p u g u p i p ",
"f u f u 9 4 > % O . d a p u g u i J b b n n K K L L C C C C C C C C C C L L K K n n b b p f u f p f u f f u f p p p f u f f u f ",
"p i u y 0 5 > % O . d a p f u f P I b b n n K K L L C C C C C C C C C C L L K K n n b b f p p p p u g u p p p f u f p p p u j q ",
"p p f u 9 4 > % O . d a p p i P b b A A n n K K K K L L U Y Y Y Y U L L K K K K n n A A b b p p p f u f p p p u g u p p p f u f ",
"p p p i q 4 , & x . d a z p p T b b A A n n K K K K L L U R Y Y R U L L K K K K n n A A b b E W p p p p p p p f u f p p p p p p ",
"a a a a w 6 < * + = m c a a b b Q Q A A n n b b K K L L n n n n n n L L K K b b n n A A Q Q b b a a a a a a a a a a a a a a a a ",
"d d d d e 7 1 = @ N M m d d b b Q Q A A n n b b K K L L n n n n n n L L K K b b n n A A Q Q b b d d d d d d d d e e d d d d d d ",
". . . . . . . : : . . . . . b b ! ! ! ! b b b b K K K K K K K K K K K K K K b b b b ! ! ! ! b b . . . . . . . = B B = . . . . . ",
"O O O O O O O O O O O O O O b b ! ! ! ! b b b b K K K K K K K K K K K K K K b b b b ! ! ! ! b b O O O O O O x + $ $ + x O O O O ",
"% % % % % % % % % % % % % % % % b b b b b b ~ ~ K K K K K K K K K K K K K K ^ ^ b b b b b b % % % % % % % % & * = = * & % % % % ",
"> > > > > > > > > > > > > > > > b b b b b b / / K K K K K K K K K K K K K K ^ ^ b b b b b b > > > > > > > > , < 1 1 < , > > > > ",
"4 4 4 4 5 4 4 4 4 4 4 4 4 4 4 4 4 4 4 ( b b L L K K K K K K K K K K K K K K L L b b ( 4 4 5 4 4 4 4 4 4 4 4 4 6 7 7 6 4 4 4 4 4 ",
"q q q 9 0 9 q q q q q q q q q q q ) ) ) b b L L K K K K K K K K K K K K K K L L b b ) ) _ 0 9 q q q q q q q q w e e w q q q q q ",
"p p i u y u i p p p p u p p p p p ` ` ' b b ] [ L L L L L L L L L L L L L L { } b b ` | ' y u i p p p p u p p a e e a p p p u p ",
"p p p f u f p p p p u g u p p p p ` '  .b b ..] L L L L L L L L L L L L L L } X.b b ` ` o.u f p p p p u g u p a e e a p p u j q ",
"p p p p p p f u f p f u f p f u f ` o.' b b O.O.O.O.b b L L L L L L b b O.O.O.O.b b o.' o.p p f u f p f u f u h e e h u f f u f ",
"f u f p p p u g u p p p p p u g u ` ` ` b b O.O.O.O.b b L L L L L L b b O.O.O.O.b b '  .' p p u g u p p i u g l d d l g u p p p ",
"q j u i p p f u f p p p p p f u f o.' o.` ) b b b b +.@.#.` ` o.' o.` ` b b b b ` ` o.' o.p p f u f p p p f u h e e h u f p p p ",
"f u f u f p p p p p f u f p p p p u g ' | ) b b b b +.@.$.' o.` ` o.' o.b b b b ' o.` p f u f p p p p f u f p a e e a p p f u f ",
"p i u g u p p p p p u g u p p p p f u f p q 4 > % O . d l g u p p u g u p p p u g u p p u g u p p p p u g u p a e e a p p u j q ",
"p p f u f p p p p p f u f p p p p p p p p q 4 , & x . d h t f p p f u f p p p f u f p p f u f p p p p f u f z a e e a z p f u f ",
"a a a a a a a a a a a a a a a a a a a a a w 6 %.&.+ = m *.a a a a a a a a a a a a a a a a a a a a a a a a a a =.v v =.a a a a a ",
"-.-.-.-.-.-.-.-.-.-.-.-.-.-.-.-.-.-.-.-.-.;.1 :.  . X >.e -.-.-.-.-.-.-.-.-.-.-.-.-.-.-.-.-.-.-.-.-.-.-.-.-.-.e ,.,.e -.-.-.-.-."
};
