/* XPM */
static char *result[] = {
/* columns rows colors chars-per-pixel */
"64 64 186 2 ",
"   c #C04F2D",
".  c #BF4E2C",
"X  c #BB4623",
"o  c #E1886B",
"O  c #E2886B",
"+  c #DD8062",
"@  c #BE4C2A",
"#  c #DD7F62",
"$  c #BE4D2A",
"%  c #E78E72",
"&  c #E78F72",
"*  c #E18568",
"=  c #BF4D2B",
"-  c #E89276",
";  c #E2886C",
":  c #BF4E2B",
">  c #E37A57",
",  c #E37A58",
"<  c #DE7351",
"1  c #BF4B28",
"2  c #E37957",
"3  c #E37C5B",
"4  c #E1724E",
"5  c #E1714D",
"6  c #DC6C48",
"7  c #BE4A27",
"8  c #E27552",
"9  c #DC592E",
"0  c #DD5B31",
"q  c #DC582D",
"w  c #D8562C",
"e  c #BE4723",
"r  c #DD5C32",
"t  c #DC582C",
"y  c #DF6740",
"u  c #DC572C",
"i  c #DB5427",
"p  c #DB5428",
"a  c #D75227",
"s  c #DB5327",
"d  c #BE4622",
"f  c #DB5529",
"g  c #DF6841",
"h  c #A00800",
"j  c #3A0002",
"k  c #E5251C",
"l  c #D75328",
"z  c #DF6741",
"x  c #D8562B",
"c  c #DC5428",
"v  c #E2896C",
"b  c #D45127",
"n  c #BD4623",
"m  c #BD4622",
"M  c #BA4521",
"N  c #BA4523",
"B  c #BA4623",
"V  c #FEFEFE",
"C  c white",
"Z  c #FEF9F8",
"A  c #FEFDFD",
"S  c #A00801",
"D  c #784040",
"F  c #490002",
"G  c #631113",
"H  c #6A1618",
"J  c #6A1518",
"K  c #661215",
"L  c #460002",
"P  c #E8B080",
"I  c #681417",
"U  c #631013",
"Y  c #681316",
"T  c #510507",
"R  c #4B0103",
"E  c #691417",
"W  c #6D191A",
"Q  c #510407",
"!  c #73201F",
"~  c #6E1A1D",
"^  c #AD9180",
"/  c #772627",
"(  c #6B1619",
")  c #7A2825",
"_  c #83322C",
"`  c black",
"'  c #701D1D",
"]  c #6B1719",
"[  c #782828",
"{  c #803231",
"}  c #F8D0B8",
"|  c #701D1F",
" . c #722022",
".. c #6E1A1B",
"X. c #7B2925",
"o. c #C4C4C3",
"O. c #15153C",
"+. c #171741",
"@. c #742120",
"#. c #721F1E",
"$. c #2F2E85",
"%. c #343289",
"&. c gray99",
"*. c #F6CEB6",
"=. c #F7CFB7",
"-. c #323085",
";. c #333187",
":. c #53352F",
">. c #F3CBB4",
",. c #F4CCB5",
"<. c #593932",
"1. c #040403",
"2. c #0E0C0A",
"3. c #52342E",
"4. c #583831",
"5. c #181412",
"6. c #010000",
"7. c #52352F",
"8. c #51342E",
"9. c #DC582E",
"0. c #E1724D",
"q. c #D7976F",
"w. c #0E0A07",
"e. c #CC906A",
"r. c #773F3F",
"t. c #D89870",
"y. c #F1CAB2",
"u. c #070605",
"i. c #0D0907",
"p. c #0F0D0B",
"a. c #DAB7A2",
"s. c #C78C67",
"d. c #D6966F",
"f. c gray77",
"g. c #1A63B0",
"h. c #A42821",
"j. c #FCFAFA",
"k. c #A12821",
"l. c #9E2922",
"z. c #D5D315",
"x. c #D8D413",
"c. c #DDD710",
"v. c #DCD710",
"b. c #D47251",
"n. c #964C34",
"m. c #974E37",
"M. c #97513A",
"N. c #C36344",
"B. c #933B1E",
"V. c #933D21",
"C. c #DA572D",
"Z. c #D3552C",
"A. c #92381B",
"S. c #933A1D",
"D. c #9A5F4C",
"F. c #975B47",
"G. c #7F341D",
"H. c #7F2F17",
"J. c #2F2E82",
"K. c #D75226",
"L. c #95452B",
"P. c #92391B",
"I. c #8F371B",
"U. c #302E81",
"Y. c #312E80",
"T. c #322F7F",
"R. c #BF4B26",
"E. c #D95429",
"W. c #8F371A",
"Q. c #D9562B",
"!. c #75333C",
"~. c #CC4F26",
"^. c #92381A",
"/. c #90391D",
"(. c #97513B",
"). c #975B48",
"_. c #933B1D",
"`. c #DD7351",
"'. c #E18567",
"]. c #D35027",
"[. c #D35127",
"{. c #BF4723",
"}. c #BF4824",
"|. c #C04C29",
" X c #BA4522",
".X c #BB4522",
/* pixels */
"                    . X X .                                                                         . X X .                     ",
"o o o o o o o o o O + @ @ + O o o o o o o o o o o o o o o o o o o o o o o o o o o o o o o o o o o O # @ $ + O o o o o o o o o o ",
"% % % % % % % % % & * = = * & % % % % % % % % % % % % % % % % % % % % % % % % % % % % % % % % % & - ; : = * & % % % % % % % % % ",
"> > > > > > > > > , < 1 1 < , > > > > > > > > > > > > > > > > > > > > > > > > > > > > > > > 2 2 3 & O . 1 < , > > > > > > > > > ",
"4 5 4 4 4 4 4 4 5 4 6 7 7 6 4 4 4 4 4 4 5 4 4 4 4 4 4 5 4 4 4 4 4 4 4 4 5 4 4 4 4 4 4 4 4 4 4 8 2 % O . 7 6 4 4 4 4 4 4 4 5 4 4 ",
"9 0 9 q q q q 9 0 9 w e e w q q q q q 9 0 9 q q q q 9 0 9 q q q q q q 9 0 9 q q q q q q q q r 4 2 % O . e w q q q q q q 9 0 9 q ",
"t y u i p p i u y u a e e a p p p p i u y u i p p i u y u i p p p p i u y u i p p p p u p s q 4 > % O . d a p u p p p i u y u i ",
"f u f p p p p f u f a e e a p p p p p f u f p p p p f u f p p p p p p f u f p p p p u g u i q 4 > % O . d a u g u p p p f u f p ",
"p p p f u f p p p p a e e a p f u f p p p p f u f p p p p p f u f p p p p p f u f p f u f p q 4 > % O . d a f u f f u f p p p p ",
"p p p u g u p p p p a e e a p u g u p p p p u g h h h h h h h h h h h h h h u g u p p p p p q 4 > % O . d a p p p u g u p p p p ",
"p p p f u f f u f p a e e a p f u f f u f p f u h h h h h h h h h h h h h h f u f p p p p p q 4 > % O . d a p p p f u f p p p p ",
"f u f p p p u g u p a e e a p p p p u g j j h h k k k k k k k k k k k k k k h h j j p p p p q 4 > % O . d l u f p p p p f u f p ",
"q z u p p p f u f p a e e a p p p p f u j j h h k k k k k k k k k k k k k k h h j j f u f p q 4 > % O . d x g u p p p p u g u p ",
"f u f p p p p p p c a e e a c p p p j j h h k k k k k k k k k k k k k k k k k k h h j j u i q 4 , & v . d l t f p p p p f u f p ",
"a a a a a a a a a a b n n b a a a a j j h h k k k k k k k k k k k k k k k k k k h h j j l a w 6 < * + = m b a a a a a a a a a a ",
"d d d d d d d d d d m M M m d d d d h h k k k k k k k k k k k k k k k k k k k k k k h h d d e 7 1 = @ N M m d e e d d d d d d d ",
". . . . . . . . . . . . . . . . . . h h k k k k k k k k k k k k k k k k k k k k k k h h . . . . . : : . . . = B B = . . . . . . ",
"O O O O O O O O O O O O O O O O j j h h k k k k k k k k V C C C C V V k k k k k k k h h j j O O O O O O O v + $ $ + v O O O O O ",
"% % % % % % % % % % % % % % % % j j h h k k k k k k k C C C C C C C C C k k k k k k h h j j % % % % % % % & * = = * & % % % % % ",
"> > > > > > > > > > > > > > > > j j h h h h k k k k C C C k Z C A k C C C k k k h h h h j j > > > > > > > , < 1 1 < , > > > > > ",
"4 4 5 4 4 4 4 4 4 4 4 4 4 4 4 4 j j h h h h k k k k C C C k k V k k C C C k k k h h h h j j 4 4 4 4 4 5 4 4 6 7 7 6 4 4 4 5 4 4 ",
"q 9 0 9 q q q q q q q q q q q q j j h h h h h h h h C C C k k k k k C C C h h h h h h h j j q q q q 9 0 9 q w e e w q q 9 0 9 q ",
"i u y u i p p p p p u p p p p p j j h h h h h h h h C C C k C k C k C C C h h h h h h h j j i p i s u y u i a e e a p i u y u i ",
"p f u f p p p p p u g u p p p u j j j j h h h h h h S C C k C C C k C C S h h h h h j j j j p f u f f u f p a e e a p p f u f p ",
"p p p p p p f u f f u f p p D D j j j j h h h h h h h h V k C C C k V h h h h h h h j j j j D D g u p p p p a e e a p p p p p p ",
"p p p p p p u g u p p p f u D D F F G H j j h h h h h h h h h h h h h h h h h h j j J K L L D D u f p p p p a e e a f u f p p p ",
"p p p p p p f u f p p p u g D D P P I U j j h h h h h h h h h h h h h h h h h h j j I I P P D D p p f u f p a e e a u g u p p p ",
"p p p p p p p p p f u f f u D D P P J Y T J j j j j k k k k k k k k k k j j j j J R E E P P D D p p u g u p a e e a f u f f u f ",
"p f u f p p p p p u g u p p D D P P H W Q G j j j j k k k k k k k k k k j j j j R R J ! P P D D p p f u f p a e e a p p p u z q ",
"p u g u p p p p p f u f p p D D P P J J ~ J ^ ^ j j j j j j j j j j j j j j ^ ^ / ( ) _ P P D D p p p p p c a e e a c p p f u f ",
"a l x l a a a a a a a a a a a a ` ` ' ] [ { } } j j j j j j j j j j j j j j } } |  .] ..` ` a a a a a a a a b n n b a a a a a a ",
"d d d d d d d d d e e d d d d d ` ` X.X.} } } } o.o.O.O.j j j j j j +.+.o.o.} } } } @.#.` ` d d d d d d d d m M M m d d d d d d ",
". . . . . . . . = B B = . . . . . . D D } } } } C C $.$.^ ^ ^ ^ ^ ^ $.$.C C } } } } D D . . . . . . . . . . . . . . . . . . . . ",
"O O O O O O O ; + $ $ + v O O O O O D D } } } } C C %.%.} } } } } } %.%.C C } } } } D D O O O O O O O O O O O O O O O O O O O O ",
"% % % % % % & - ; : = * & % % % % % ` ` } } } } &.&.%.%.*.} } =.} =.%.%.&.&.} } } } ` ` % % % % % % % % % % % % % % % % % % % % ",
"> > > > 2 2 3 & O . 1 < , > > > > > ` ` } } } } &.&.-.;.:.*.*.>.,.<.%.%.&.&.} } } } ` ` > > > > > > > > > > > > > > > > > > > > ",
"4 4 4 4 4 8 2 % O . 7 6 4 4 4 4 4 4 4 4 D D } ,.` ` 1.2.3.*.=.=.=.4.5.` ` ` *.} D D 4 4 4 4 4 4 4 4 4 4 4 4 4 4 4 4 4 4 4 4 4 4 ",
"q q q q r 4 2 % O . e w q q q q q q q q D D } } 1.` ` ` 6.7.8.8.:.` ` ` ` ` *.} D D q q q q q q q q q q q q q q q q q q q q q q ",
"p p p u 9.0.> % O . d a p p p p u p p p $.$.D D q.w.` ` ` ` ` ` ` ` ` ` ` e.r.D k k ` ` ` ` p p p p u p p p p p u p p p p p u p ",
"p i u y 0 5 > % O . d a p p p u g u i p $.$.D D t.q.y.` 1.u.i.i.p.p.p.a.s.d.r.D k k ` ` ` ` p p p u g u p p p u g u p p p u z q ",
"f u f u 9 4 > % O . d a p p p f u f ` ` k k $.$.` ` D D t.t.t.t.t.t.D D ` ` $.$.k k &.&.f.f.` ` p f u f f u f f u f f u f f u f ",
"q z u s q 4 > % O . d a p f u f i u ` ` k k $.$.` ` D D t.t.t.t.t.t.D D ` ` $.$.k k &.&.f.f.` ` p p i p u g u p p p u g u p i p ",
"f u f u 9 4 > % O . d a p u g u i f ` ` k k $.$.g.g.$.$.h.h.h.h.h.h.$.$.g.g.$.$.k k &.&.f.f.` ` p f u f f u f p p p f u f f u f ",
"p i u y 0 5 > % O . d a p f u f u f ` ` k k $.$.g.g.$.$.h.h.h.h.h.h.$.$.g.g.$.$.k k j.j.f.f.` ` p u g u p p p f u f p p p u z q ",
"p p f u 9 4 > % O . d a p p i u g u h.h.k k ` ` g.g.$.$.k k k k k k $.$.g.g.` ` k.k.` ` ` ` p p p f u f p p p u g u p p p f u f ",
"p p p i q 4 , & v . d a c p p f u f h.h.k k ` ` g.g.$.$.k k k k k k $.$.g.g.` ` l.l.` ` ` ` p p p p p p p p p f u f p p p p p p ",
"a a a a w 6 < * + = m b a a a a ` ` C C C C ` ` g.g.z.x.g.g.g.g.g.g.c.v.g.g.` ` n b a a a a a a a a a a a a a a a a a a a a a a ",
"d d d d e 7 1 = @ N M m d d d d ` ` C C C C ` ` g.g.z.x.g.g.g.g.g.g.c.v.g.g.` ` M m d d d d d d d d d d d d d d e e d d d d d d ",
". . . . . . . : : . . . . . . . ` ` f.f.f.f.g.g.g.g.g.g.g.g.g.g.g.g.g.g.g.g.g.g.` ` . . . . . . . . . . . . . = B B = . . . . . ",
"O O O O O O O O O O O O O O O O ` ` f.f.f.f.g.g.g.g.g.g.g.g.g.g.g.g.g.g.g.g.g.g.` ` O O O O O O O O O O O O v + $ $ + v O O O O ",
"% % % % % % % % % % % % % % % % % % ` ` ` ` $.$.g.g.g.g.g.g.g.g.g.g.g.g.g.g.g.g.` ` % % % % % % % % % % % % & * = = * & % % % % ",
"> > > > > > > > > > > > > > > > > > ` ` ` ` $.$.g.g.g.g.g.g.g.g.g.g.g.g.g.g.g.g.` ` b.> > > > > > > > > > > , < 1 1 < , > > > > ",
"4 4 4 4 5 4 4 4 4 4 4 4 4 4 4 4 4 4 4 n.n.n.m.M.` ` ` ` g.g.g.g.g.g.g.g.g.g.g.g.` ` N.4 4 5 4 4 4 4 4 4 4 4 4 6 7 7 6 4 4 4 4 4 ",
"q q q 9 0 9 q q q q q q q q q q q B.B.B.B.V.n.M.` ` ` ` g.g.g.g.g.g.g.g.g.g.g.g.` ` B.C.Z.0 9 q q q q q q q q w e e w q q q q q ",
"p p i u y u i p p p p u p p p p p A.A.S.A.B.n.M.D.F.G.H.` ` ` ` g.g.g.g.g.g.J.J.A.A.A.K.u y u i p p p p u p p a e e a p p p u p ",
"p p p f u f p p p p u g u p p p p A.S.L.S.B.n.M.D.F.G.H.` ` ` ` g.g.g.g.g.g.J.J.S.A.A.a f u f p p p p u g u p a e e a p p u z q ",
"p p p p p p f u f p f u f p f u f A.P.S.A.B.n.M.D.F.G.H.I.S.P.P.U.J.Y.J.T.T.` ` P.A.P.R.E.p p f u f p f u f u l e e l u f f u f ",
"f u f p p p u g u p p p p p u g u A.A.A.A.B.n.M.D.F.G.H.W.A.A.S.U.J.Y.J.T.T.` ` A.A.S.L.Q.p p u g u p p i u g x d d x g u p p p ",
"q z u i p p f u f p p p p p f u f P.S.P.A.B.n.M.D.F.G.H.W.A.A.P.` ` !.!.!.!.` ` A.A.P.S.~.p p f u f p p p f u l e e l u f p p p ",
"f u f u f p p p p p f u f p p p p u g S.^.B.n.M.D.F.G.H.I.S.P.A.` ` !.!.!.!.` ` S.P.A.p f u f p p p p f u f p a e e a p p f u f ",
"p i u g u p p p p p u g u p p p p f u P.A.B.n.M.D.F.G.H./.L.S.A.A.S.` ` ` ` A.S.L.S.A.p u g u p p p p u g u p a e e a p p u z q ",
"p p f u f p p p p p f u f p p p p p p p p B.n.(.D.).G.H.I._.P.A.A.P.` ` ` ` A.P.S.f p p f u f p p p p f u f c a e e a c p f u f ",
"a a a a a a a a a a a a a a a a a a a a a w 6 `.'.+ = m ].a a a a a a a a a a a a a a a a a a a a a a a a a a [.n n [.a a a a a ",
"{.{.{.{.{.{.{.{.{.{.{.{.{.{.{.{.{.{.{.{.{.}.1 |.  . X  Xe {.{.{.{.{.{.{.{.{.{.{.{.{.{.{.{.{.{.{.{.{.{.{.{.{.{.e .X.Xe {.{.{.{.{."
};
