/* XPM */
static char *c6dba5b5b3ff45d1fcc032a0e469ca7b8RWiX3iGNoCH5hPB[] = {
/* columns rows colors chars-per-pixel */
"64 64 157 2 ",
"   c #1F1A28",
".  c #221C2A",
"X  c #352C2C",
"o  c #382E2D",
"O  c #373435",
"+  c #393536",
"@  c #38333F",
"#  c #4B3D2D",
"$  c #46373E",
"%  c #4C3A3F",
"&  c #5B3C3C",
"*  c #543B3E",
"=  c #4E4B3F",
"-  c #3B3642",
";  c #3D3945",
":  c #433A44",
">  c #493A42",
",  c #513F45",
"<  c #4D4543",
"1  c #4E4B4C",
"2  c #514743",
"3  c #504C4C",
"4  c #574F56",
"5  c #524E59",
"6  c #594E57",
"7  c #56525B",
"8  c #5E535C",
"9  c #655356",
"0  c #735D5E",
"q  c #BE4723",
"w  c #BE4A27",
"e  c #BF4D2B",
"r  c #C2751D",
"t  c #C04F2D",
"y  c #C1502E",
"u  c #D75227",
"i  c #DB5427",
"p  c #D75328",
"a  c #DB5529",
"s  c #DC582D",
"d  c #C35C3D",
"f  c #C15535",
"g  c #DC5C32",
"h  c #C47720",
"j  c #C67C21",
"k  c #C87F23",
"l  c #DC623B",
"z  c #865247",
"x  c #C46447",
"c  c #C7694E",
"v  c #DF6741",
"b  c #DF6842",
"n  c #DC6C48",
"m  c #DD714F",
"M  c #C7735B",
"N  c #DE7351",
"B  c #DC7B5B",
"V  c #E06A43",
"C  c #E1724E",
"Z  c #E27653",
"A  c #E37A57",
"S  c #E37A59",
"D  c #DD7E61",
"F  c #BA9637",
"G  c #CA8524",
"H  c #CC852E",
"J  c #CD8631",
"K  c #CF8934",
"L  c #D18E34",
"P  c #D39334",
"I  c #D3953E",
"U  c #D59A3F",
"Y  c #CBA235",
"T  c #CDA83E",
"R  c #DBA631",
"E  c #DEAC34",
"W  c #D0AB3F",
"Q  c #DFB236",
"!  c #E0AF36",
"~  c #E2B436",
"^  c #E2B53B",
"/  c #E4BB3F",
"(  c #D39640",
")  c #D69F47",
"_  c #E4805F",
"`  c #D7A048",
"'  c #E4BC41",
"]  c #E5BF49",
"[  c #E2B540",
"{  c #DD8062",
"}  c #DD8A6F",
"|  c #CD8E7C",
" . c #D48E77",
".. c #DE927A",
"X. c #E38364",
"o. c #E18669",
"O. c #E1886B",
"+. c #E78E72",
"@. c #E1957D",
"#. c #E7957A",
"$. c #E5C14B",
"%. c #C9C77B",
"&. c #DCD57A",
"*. c #EDDD79",
"=. c #EFE17B",
"-. c #F1E47A",
";. c #DB9781",
":. c #DD9C87",
">. c #E39C87",
",. c #DEA28E",
"<. c #D6AC9E",
"1. c #DBA797",
"2. c #E4A18A",
"3. c #E4A593",
"4. c #E3AD9D",
"5. c #ECA893",
"6. c #E8B09D",
"7. c #DEB3A4",
"8. c #DFB6A9",
"9. c #DEB8AC",
"0. c #C9B7B1",
"q. c #DFBFB6",
"w. c #D0BFBB",
"e. c #E4B3A3",
"r. c #E1B8AB",
"t. c #E0BDB1",
"y. c #DBDA83",
"u. c #F0E683",
"i. c #F3EC84",
"p. c #F6F48F",
"a. c #F8F68F",
"s. c #F7F590",
"d. c #F8F690",
"f. c #CFC3BF",
"g. c #DFC4BC",
"h. c #D0C2BD",
"j. c #F0CBBE",
"k. c #CDCECF",
"l. c #CEC7C4",
"z. c #D8C9C6",
"x. c #CDCFD0",
"c. c #CDD0D1",
"v. c #DFD9D7",
"b. c #DFDFDE",
"n. c #E1CBC6",
"m. c #F2D0C4",
"M. c #E1DBD9",
"N. c #F5E3DD",
"B. c #E0DFE0",
"V. c #DEE2E4",
"C. c #E1E5E6",
"Z. c #E1E2E3",
"A. c #E3E7E9",
"S. c #E4E7E8",
"D. c #F6EAE5",
"F. c #F6EBE6",
"G. c #FAF8F6",
/* pixels */
"t t t t t t t t t t e q q e t t t t t t t t t t t t t t t t t t t t t t t t t t t t t t t t t t t t e q q e t t t t t t t t t t ",
"O.O.O.O.O.O.O.O.O.O.{ e e { O.O.O.O.O.O.O.O.O.O.O.O.O.O.O.O.O.O.O.O.O.O.O.O.O.O.O.O.O.O.O.O.O.O.O.O.D e e { O.O.O.O.O.O.O.O.O.O.",
"+.+.+.+.+.+.+.+.+.+.o.e e o.+.+.+.+.+.+.+.+.+.+.+.+.+.+.+.+.+.+.+.+.+.+.+.+.+.+.+.+.+.+.+.+.+.+.+.#.O.e e o.+.+.+.+.+.+.+.+.+.+.",
"A A A A A A A A A A N w w N A A A A A A A A A X.C.V.V.V.V.V.V.V.V.V.V.V.V.V.V.C.F.A A A A A A A S +.O.e w N A A A A A A A A A A ",
"C C C C C C C C C C n w w n C C C C C C C C C Z.5 @ - - - - - - - - - - - - @ 5 Z.Z C C C C C Z A +.O.e w n C C C C C C C C C C ",
"s g s s s s s s g s a q q a s s s s s s g s g B.; . . . . . . . . . . . . . . ; C.V s s s s g C A +.O.e q a s s s s s s s g s s ",
"s v s i a a i s v s u q q u a a a s s l C V j.C.; . . . . . . . . . . . . . . ; C.N.l l l l V Z A +.O.e q u a s a a a i s v s i ",
"a s a a a a a a s a u q q u a Z M.V.Z.Z.V.Z.C.k.< X X X X X X o O O O O O O O 1 x.C.V.V.V.V.V.S.m.+.O.e q u s v s a a a a s a a ",
"a a a a s a a a a a u q q u g S.7 - ; ; ; ; ; < F Y Y Y Y Y Y T &.y.y.y.y.y.y.%.1 - ; ; ; ; - 7 A.5.O.e q u a s a a s a a a a a ",
"a a a s v s a a a a u q q u n V.;   . . . . . X Y ~ ~ ~ ~ ~ ~ ' i.p.p.p.p.p.d.y.+ . . . . .   ; V.N.+.e q u a a a s v s a a a i ",
"a a a a s a a s a a u q q l D.Z.;   . . . . . o Y ~ ~ ~ ~ ~ ~ ' i.p.p.p.p.p.p.y.+ . . . . . . ; C.G.D.c q u a a a a s a a a a a ",
"a s a a a a s v s i u y z.V.C.k.< X o o o o X # Y ~ ~ ~ ~ ~ ~ / -.i.i.i.i.i.i.&.= O + + + + O 1 c.C.Z.A.;.p s a a a a a a s a a ",
"s v s a a a a s a a u v.7 ; ; < F Y Y Y Y Y Y Y Q ~ ~ ~ ~ ~ ~ ~ ' ' ' ' ' ' ' $.&.y.y.y.y.y.y.%.3 ; - 7 Z.g v s a a a a s v s a ",
"a s a a a a a a a i a V.-   . X Y ~ ~ ~ ~ ~ ~ ~ ~ ~ ~ ~ ~ ~ ~ ~ ~ ~ ~ ~ ~ ~ ~ ' i.p.p.p.p.p.a.y.O .   - V.S s a a a a a a s a a ",
"u u u u u u u u u a 6.Z.: . . o Y ~ ~ ~ ~ ~ ~ ~ ~ ~ ~ ~ ~ ~ ~ ~ ~ ~ ~ ~ ~ ~ ~ ' i.p.p.p.p.p.p.y.+ . . ; C.F.@.l u u u u u u u u ",
"q q q q q q q q <.b.Z.k.< X o # Y ~ ~ ~ ~ ~ ~ ~ ! ! ! ! ! ! ! E E E E E E E E ^ -.i.i.i.i.i.i.&.= + O 1 k.C.C.Z.d q q q q q q q ",
"e e e e e e e 1.7 ; ; < F Y Y Y Q ~ ~ ~ ~ ~ ~ ! P L L L L L L L j j j j j j j G ^ ' ' ' ' ' ' ] &.y.y.%.1 ; ; 7 M.e e e e e e e ",
"O.O.O.O.O.O.O.g.-   . X Y ~ ~ ~ ~ ~ ~ ~ ~ ~ ~ ! L K K K K K K J h r r r r r r j E ~ ~ ~ ~ ~ ~ ' i.p.a.y.O .   - V.{ O.O.O.O.O.O.",
"+.+.+.+.+.+.+.n.; . . o Y ~ ~ ~ ~ ~ ~ ~ ~ ~ ~ ! L K K K K K K J h r r r r r r j E ~ ~ ~ ~ ~ ~ ' i.p.s.y.+ . . ; V.O.+.+.+.+.+.+.",
"A A A A A A A g.; . . o Y ~ ~ ~ ~ ~ ~ ~ ! E ! E L K K K K K K J j r h h h h r j R E E E ~ ~ ~ ' -.i.i.&.+ . . ; V.A A A A A A A ",
"C C C C C C C g.; . . o Y ~ ~ ~ ~ ~ ~ ! P L L L K K K K K K K K J J J J J J J H j j j G E ~ ~ ~ / / / T o . . ; V.N C C C C C C ",
"s s g s s s s <.; . . o Y ~ ~ ~ ~ ~ ~ E L K K K K K K K K K K K K K K K K K K J r r r j E ~ ~ ~ ~ ~ ~ Y o . . ; V.g s s s g s s ",
"i s v s i a a g.; . . X Y ~ ~ ~ ~ ~ ~ ! L K K K K K K K K K K K K K K K K K K J r r r j E ~ ~ ~ ~ ~ ~ Y X . . ; b.n a i s v s i ",
"a a s a g N 8.k.< X o # Y ~ ~ ~ ! ! ! E L K K K K K K K L L L L I I I I K K K J j r r j R E E E ~ ~ ~ Y # o X < k.n.;...a s a a ",
"a a a l 5 ; ; < F Y Y Y Q ~ ~ ! P L L L K K K K K K K L E ! E ^ *.u.u.*.I K K K J J J H j j j G E ~ ~ Q Y Y Y F < ; : 5 v a a a ",
"a a a l - . . X Y ~ ~ ~ ~ ~ ~ ! L K K K K K K K K K K L ! ~ ~ ' i.p.p.u.I K K K K K K J r r r j E ~ ~ ~ ~ ~ ~ Y X . . @ } a a a ",
"a a a n - . . X Y ~ ~ ~ ~ ~ ~ ! L K K K K K K K K K K L ! ~ ~ ' i.p.p.u.I J K K K K K J r r r j E ~ ~ ~ ~ ~ ~ Y o . . - 1.a a a ",
"a a a n - . . X Y ~ ~ ~ ~ ~ ~ ! L K K K K K K K L L L P ~ ~ ~ / -.i.i.=.) I I I K K K J j h h j E ~ ~ ~ ~ ~ ~ Y X . . - 1.a s a ",
"a a s n - . . X Y ~ ~ ~ ~ ~ ~ ! L K K K K K K L E ! ! ~ ~ ~ ~ ~ ' ' ' $.=.u.u.*.I K K K J J J L ! ~ ~ ~ ~ ~ ~ Y X . . - ,.s v s ",
"a s v v - . . X Y ~ ~ ~ ~ ~ ~ ! L K K K K K K L ! ~ ~ ~ ~ ~ ~ ~ ~ ~ ~ ' i.p.p.u.I K K K K K K L ! ~ ~ ~ ~ ~ ~ Y X . . - :.a s a ",
"u p a l - . . X Y ~ ~ ~ ~ ~ ~ ! L K K K K K K L ! ~ ~ ~ ~ ~ ~ ~ ~ ~ ~ ' i.p.p.u.I K K K K K K L ! ~ ~ ~ ~ ~ ~ Y X . . - ;.u u u ",
"q q q f - . . X Y ~ ~ ~ ~ ~ ~ ! L K K K K K K L ! ~ ~ ~ ~ ~ ~ ~ ~ ~ ~ ' -.i.i.*.I K K K K K K L ! ~ ~ ~ ~ ~ ~ Y X . . - | q q q ",
"e e e x - . . X Y ~ ~ ~ ~ ~ ~ ! L K K K K K K L ! ~ ~ ~ ~ ~ ~ ~ ~ ~ ~ ~ / ' ' ^ L K K K K K K L ! ~ ~ ~ ~ ~ ~ Y X . . - | e e e ",
"O.O.O.@.- . . X Y ~ ~ ~ ~ ~ ~ ! L K K K K K K L ! ~ ~ ~ ~ ~ ~ ~ ~ ~ ~ ~ ~ ~ ~ E L K K K K K K L ! ~ ~ ~ ~ ~ ~ Y X . . - 4.O.O.O.",
"+.+.+.>.- . . X Y ~ ~ ~ ~ ~ ~ ! L K K K K K K L ! ~ ~ ~ ~ ~ ~ ~ ~ ~ ~ ~ ~ ~ ~ ! L K K K K K K L ! ~ ~ ~ ~ ~ ~ Y o . . - 3.+.+.+.",
"A A A +.- . . X Y ~ ~ ~ ~ ~ ~ ! L K K K K K K L R E E E ~ ~ ~ ~ ~ ~ ~ ~ ~ ! ! E L K K K K K K L ! ~ ~ ~ ~ ~ ~ Y X . . - 2.A A A ",
"C C C O.- . . X Y ~ ~ ~ ~ ~ ~ ! L K K K K K K K k j j G E ~ ~ ~ ~ ~ ~ ~ P L L L K K K K K K K L ! ~ ~ ~ ~ ~ ~ Y o . . - +.C C C ",
"s s s n - . . X Y ~ ~ ~ ~ ~ ~ ! L K K K K K K J h r r j E ~ ~ ~ ~ ~ ~ ! L K K K K K K K K K K L ! ~ ~ ~ ~ ~ ~ Y X . . - m s s s ",
"a a a l @ . . X Y ~ ~ ~ ~ ~ ~ ! L K K K K K K J j r r j E ~ ~ ~ ~ ~ ~ ! L K K K K K K K K K K L ! ~ ~ ~ ~ ~ ~ Y X . . @ g a s a ",
"a i s n 4 : ; < F Y Y Y Q ~ ~ ~ U ( ( I L K K J j j j j R E E E E ! ! E L K K K K K K K L L L P ! ~ ~ Q Y Y Y F < ; : 6 i s v s ",
"a s a s s C X.l.< X o # Y ~ ~ / *.u.u.*.I K K K J J J J j j j k L L L L K K K K K K K L E ! ! ! ~ ~ ~ Y # o X < w.B l s a a s a ",
"s v s i s C A 4.; . . X Y ~ ~ ' i.p.p.u.( K K K K K K J h r r h J K K K K K K K K K K L ! ~ ~ ~ ~ ~ ~ Y X . . ; q.a s v s a i a ",
"a s a i s C A e.; . . o Y ~ ~ ' i.p.p.u.I J K K K K K J j r r h J K K K K K K K K K K L E ~ ~ ~ ~ ~ ~ Y o . . ; 7.a a s a a s a ",
"a i s v g C A 4.; . . o Y ~ ~ / -.i.i.=.` I ( I L K K J j j j j J K K K K K K K L L L P ! ~ ~ ~ ~ ~ ~ Y o . . ; 9.a a a a s v s ",
"a a a s s C A 3.; . . o Y ~ ~ ~ / ' ' $.=.u.u.*.I K K K J J J J K K K K K K K L E ! E ! ~ ~ ~ ~ ~ ~ ~ Y o . . ; q.s a a a a s a ",
"a a a i s C A 2.; . . o Y ~ ~ ~ ~ ~ ~ ' i.p.p.u.( K K K K K K K K K K K K K K L ! ~ ~ ~ ~ ~ ~ ~ ~ ~ ~ Y o . . ; 8.a a a a a a a ",
"u u u u a n N @.-   . X Y ~ ~ ~ ~ ~ ~ ' i.p.p.u.( J K K K K K K K K K K K K K L ! ~ ~ ~ ~ ~ ~ ~ ~ ~ ~ Y X .   - 1.u u u u u u u ",
"q q q q q w w y 7 ; ; < F Y Y Y Q ~ ~ / -.i.i.=.` I ( ( ( ( ( I L L L L L L L P ! ~ ~ ~ ~ ~ ~ Q Y Y Y F < ; ; 7 f q q q q q q q ",
"e e e e e e e e e f M l.< o o # Y ~ ~ ~ / ' / ] =.u.u.u.u.u.u.*.[ ! ! ! ! ! ! ! ~ ~ ~ ~ ~ ~ ~ Y # o X < 0.c x d q q e e e e e e ",
"O.O.O.O.O.O.O.O.O.O.O.r.; . . o Y ~ ~ ~ ~ ~ ~ ' i.p.p.p.p.p.p.i.' ~ ~ ~ ~ ~ ~ ~ ~ ~ ~ ~ ~ ~ ~ Y o . . ; t.O.O.{ e e { O.O.O.O.O.",
"+.+.+.+.+.+.+.+.+.+.+.4.-   . o Y ~ ~ ~ ~ ~ ~ ' i.p.p.p.p.p.p.i.' ~ ~ ~ ~ ~ ~ ~ ~ ~ ~ ~ ~ ~ ~ Y o . . : e.+.+.o.e e o.+.+.+.+.+.",
"A A A A A A A A A A A X.9 : : < F Y Y Y Y Y Y W =.i.i.i.i.i.i.-.' ~ ~ ~ ~ ~ ~ Q Y Y Y Y Y Y Y F < : - 8 o.A A N w w N A A A A A ",
"C C C C C C C C C C C C C Z O.f.2 X o o o o X # W ' ' ' ' ' ' / ~ ~ ~ ~ ~ ~ ~ Y # o o o o o X < h.>.@.X.C C C n w w n C C C C C ",
"s s s s g s s s s s s s s s s } ; . . . . . . o Y ~ ~ ~ ~ ~ ~ ~ ~ ~ ~ ~ ~ ~ ~ Y o . . . . . . ; 3.l g s s s s a q q a s s s s s ",
"a a i s v s i a a a a s a a a m :   . . . . . o Y ~ ~ ~ ~ ~ ~ ~ ~ ~ ~ ~ ~ ~ ~ Y X . . . . .   : D a a a s a a u q q u a a a s a ",
"a a a a s a a a a a s v s a a i 9 : ; : : : ; < F Y Y Y Y Y Y Y Y Y Y Y Y Y Y F 2 : : > : : : 9 g a a s v s a u q q u a a s v s ",
"a a a a a a a s a a a s a a a s a a a s a s Z <.< X X X X o X X X X X X X X X <  .s a s a a a a s a a a s a s p q q p s a a s a ",
"a s a a a a s v s a a a a a s v s a a a a s C X.; . . . . . . . . . . . . . . ; v a s v s a a s v s a a i s v a q q a v s a a a ",
"s v s i a a a s a a a a a a a s a a s a a s C _ ; . . . . . . . . . . . . . . : g a a s a a a a s a a a a a s p q q p s a a a a ",
"a s a s a a a a i a a s a a a a i s v s i s C A 0 , : $ % * & & & & & & & % $ z s a a a a s a a a a a a s a a u q q u a a a s a ",
"a i s v s a a a a i s v s a a a a a s a a s C A +.O.e q a v s a a s v s a a a s v s a a s v s a a a a s v s a u q q u a a s v s ",
"a a a s a a a a a i a s a a a a a a a a a s C A +.O.e q p s a a a a s a a a a a s a a a a s a a a a a a s a i u q q u i a a s a ",
"u u u u u u u u u u u u u u u u u u u u u a n N X.{ e q u u u u u u u u u u u u u u u u u u u u u u u u u u u u q q u u u u u u ",
"q q q q q q q q q q q q q q q q q q q q q w w t t e q q q q q q q q q q q q q q q q q q q q q q q q q q q q q q q q q q q q q q "
};
