/* XPM */
static char *result[] = {
/* columns rows colors chars-per-pixel */
"64 64 152 2 ",
"   c #000002",
".  c #0A0605",
"X  c #0C0A06",
"o  c #0C0909",
"O  c #130C05",
"+  c #1A0D05",
"@  c #140C0A",
"#  c #180A09",
"$  c #171107",
"%  c #191005",
"&  c #16120A",
"*  c #1C120A",
"=  c #161311",
"-  c #1C1413",
";  c #19151A",
":  c #220F0A",
">  c #211207",
",  c #25130D",
"<  c #29130D",
"1  c #261B0B",
"2  c #2C1D0E",
"3  c #251311",
"4  c #291612",
"5  c #271814",
"6  c #291A15",
"7  c #271A18",
"8  c #2B1B19",
"9  c #331F15",
"0  c #311F18",
"q  c #2D231B",
"w  c #32241E",
"e  c #3B271C",
"r  c #4B251A",
"t  c #432A24",
"y  c #492A27",
"u  c #402E29",
"i  c #413129",
"p  c #754C19",
"a  c #7B5516",
"s  c #7B5119",
"d  c #86580F",
"f  c #8E5F0E",
"g  c #855614",
"h  c #885716",
"j  c #865814",
"k  c #8C5C15",
"l  c #845619",
"z  c #885719",
"x  c #815919",
"c  c #8C5C18",
"v  c #915C16",
"b  c #935E1A",
"n  c #8E610E",
"m  c #92650E",
"M  c #97690F",
"N  c #8F6012",
"B  c #926313",
"V  c #986612",
"C  c #93611C",
"Z  c #BD4622",
"A  c #BB4825",
"S  c #C04722",
"D  c #C14824",
"F  c #CF4F26",
"G  c #C24E2B",
"H  c #D04F26",
"J  c #C1512E",
"K  c #CF542D",
"L  c #D55127",
"P  c #DB5327",
"I  c #D5552C",
"U  c #DB5529",
"Y  c #DC582D",
"T  c #C35433",
"R  c #C75836",
"E  c #CE5C35",
"W  c #C95B3A",
"Q  c #D45C34",
"!  c #DD5B31",
"~  c #E0592D",
"^  c #E15D32",
"/  c #DE6037",
"(  c #DE6138",
")  c #E1653C",
"_  c #D96743",
"`  c #DB714F",
"'  c #D77657",
"]  c #DF7552",
"[  c #D77758",
"{  c #D87758",
"}  c #DB7F5F",
"|  c #E16F4B",
" . c #E1714C",
".. c #E27451",
"X. c #E37C5A",
"o. c #DD7F61",
"O. c #BB8F35",
"+. c #B98F3B",
"@. c #B7903C",
"#. c #BA913C",
"$. c #C79736",
"%. c #CB9635",
"&. c #CC9A35",
"*. c #C7953C",
"=. c #CA963C",
"-. c #C6983A",
";. c #CC993C",
":. c #D19737",
">. c #D39C36",
",. c #D99E36",
"<. c #D39C39",
"1. c #D99E39",
"2. c #DBA62E",
"3. c #DDA82D",
"4. c #D6A135",
"5. c #DBA434",
"6. c #DEA833",
"7. c #D5A038",
"8. c #DBA139",
"9. c #E1A535",
"0. c #E0A833",
"q. c #E2A53A",
"w. c #EDCF1D",
"e. c #EFD21D",
"r. c #F4D31E",
"t. c #F7DA1D",
"y. c #DAC02E",
"u. c #EECD23",
"i. c #EDCB2B",
"p. c #F1CE23",
"a. c #F5CD2C",
"s. c #EFD022",
"d. c #F5D323",
"f. c #F8D423",
"g. c #F7D328",
"h. c #B79141",
"j. c #BB9043",
"k. c #C08B40",
"l. c #C59440",
"z. c #CB9741",
"x. c #CB9941",
"c. c #D09943",
"v. c #E7805D",
"b. c #E8805E",
"n. c #D78063",
"m. c #DE8265",
"M. c #E38769",
"N. c #E78C6F",
"B. c #E88C6E",
"V. c #E78D70",
"C. c #E98F72",
"Z. c #EA9174",
/* pixels */
"T T T R T R T T T T J Z A T T R T R T T T T T T R W ,                     3 W T T R T T R R R T R R T A A T T T T R T T T T T R ",
"m.m.m.m.m.m.m.m.m.m.' J J { m.m.m.m.m.m.m.m.n.m.m.n.e O % O $ $ $ $ $ % O e m.n.n.n.m.m.m.n.n.o.o.m.{ A J ' m.m.m.m.m.m.m.m.m.n.",
"N.N.V.V.N.B.N.N.V.N.n.J J m.N.N.N.N.B.C.V.V.u = ; w #.;.%.%.*.%.=.$.=.$.%.#.q - = u C.B.V.V.V.N.V.Z.m.R T o.V.V.V.V.N.N.N.N.C.V.",
"X.X.X.X.X.X.X.X.v.X.` J J ` X.X.X.X.X.X.X.m.8 . . > $.,.>.>.>.>.<.>.>.,.6.;.* . . 8 o.X.X.X.X.X.m.C.V.A G ` X.X.X.X.X.X.X.X.X.X.",
" .`  . . .|  . .| ` ( G G _  .` | |  . .t 8 j.$.$.*.C k k k k k k k c B <.5.%.*.;.h.7 t .. . ...X.V.o.T G _ | |  . .|  . . . . .",
"! ! ! ! ! Y Y ! ! ! Q G S U Y Y ! ! I E 6 & <.q.1.&.B j j k k c j k g k *.<.8.8.9.7.* 0 Q I ^ | } V.M.T A I ! ! Y ! Y ! ! ! ! ! ",
"Y ) U U U U U Y / Y L S S L U U U I 4 > j.c.8.>.c c &.:.>.:.<.%.c g z j k B <.8.1.:.x.j.* , Q | X.N.o.T S L U ! U U U P Y ( Y U ",
"U Y U U U U U U Y U L S D L U U U I @ o <.9.;.$.n B 1.5.5.,.9.,.v g j g g k %.>.5.5.9.;.o @ Q | X.N.m.T S L Y ^ Y U U U U Y U U ",
"U U U U Y U U U U U L S D L U U ~ I # X *.<.B B &.:.4.4.,.,.1.>.v g d g g k k B p.p.5.=.X # !  .X.N.M.T S L U Y U U Y Y U P U P ",
"U U U Y / Y P U U U L S D L U Y ) Q 6 < $.1.k d <.5.7.4.<.,.,.:.k k g k g k g k e.f.3.=.4 6 Q ` X.N.m.T S L U U U Y ( Y U U U U ",
"U U U U Y U U Y U U L S Z L U Y r 0 #.=.5.,.k d <.5.4.8.5.,.8.,.k g g g l l g n u.d.4.,.x.h.9 y X.N.m.T S L U U U U Y U U U P U ",
"U Y U U U U U ) Y U L S D L U Y : . ;.2.;.&.k k &.&.&.>.:.:.>.%.v k k k f c k m i.d.2.2.q.%.. - v.N.m.T S L Y U U U U U U Y U P ",
"Y / Y U U U U Y U U L Z D L U Y 4 O *.>.C c j g k c k v k v k B :.,.&.:.>.>.>.<.8.2.d.s.5.*.o 5 v.N.m.T S I ( Y U P U U Y ( Y U ",
"U Y U U U U U U U U L Z D L U Y < o z.<.k g j k g h j d h g g k ,.,.1.5.8.8.5.4.8.4.f.d.6.-.. 5 X.N.m.T S L Y Y P U U U U Y U U ",
"L L L L L L L L L L F Z Z L L U < X ;.>.c g z h g k j k k g g v &.4.<.4.,.,.<.,.4.6.d.d.5.=.X 3 ] m.[ A Z H L L L L L L L L L L ",
"S S S S S S S S S S Z Z Z S S D > X ;.,.c g j j g j g g h j g v >.4.4.,.,.,.,.,.<.5.d.f.5.=.o , T J T A Z S S S S S S S S S S A ",
"T T J T T J T T J R J J T T T R , X ;.>.c j j g g g d g g k g d <.8.5.5.5.8.8.5.4.5.f.d.5.*.o 3 R J T T A W A A A T T T T T T T ",
"m.M.m.m.M.m.M.m.m.m.m.M.m.m.m.M.7 X ;.7.N j f k k v v k v v v v :.>.:.>.:.&.<.:.:.>.d.d.0.*.. 7 M.m.M.m.m.m.n.T A [ m.m.m.m.m.M.",
"N.N.N.N.N.N.N.N.N.N.N.N.V.N.N.Z.6 X ;.>.k k %.>.>.>.>.>.:.>.>.%.B k c c c v c v k M u.d.5.=.. 8 C.N.N.N.m.N.v.T R n.B.M.N.M.N.N.",
"X.X.X.X.X.X.X.X.X.X.X.v.v.X.] v.6 X ;.1.k v <.,.,.1.,.8.,.,.,.,.k g j g g j g h g N d.f.5.=.. 7 v.X.X.X.v.v.` J J ] v.v.v.X.X.v.",
"| ` | | ` | | |  .` |  .| | |  .4 X ;.<.j k >.5.<.5.1.1.,.1.5.<.k g k g l j h j g N u.f.5.=.. 5  .`  .` | | _ G A ( | ` _ ` | ` ",
"Y Y / ! Y Y Y Y ! Y Y Y Y Y Y ) < X ;.1.k k <.5.,.,.,.,.,.,.1.>.v d k g g g h j g N u.f.6.=.X < ^ Y ! ! ! ~ I D G I ~ ~ ^ / ~ Y ",
"U Y / Y U U U U U U Y U U U U ~ < X ;.1.j k :.1.>.1.5.<.1.,.7.<.j g g g g g g g g N s.f.8.*.o < Y P Y / Y U L S A U U U Y / Y P ",
"U U Y U U U U U U Y / Y U U U ^ < X %.4.B n 4.5.2.5.5.5.2.4.2.>.B n N v N N N n k M s.d.6.*.. < ^ P Y Y U U L D A L U U U Y Y U ",
"U U U P U U U Y U U Y U U U U ~ < X ;.6.u.u.r.d.d.t.d.r.r.r.d.t.d.p.s.e.u.d.s.u.s.e.t.d.6.*.X 4 ( Y U U U U L S D L U U U U U U ",
"U U U U P U Y / Y U U U U Y U Y , X =.6.r.f.d.d.d.s.d.d.d.d.s.d.d.f.f.f.d.d.d.d.d.d.d.u.8.*.. 3 ^ U U U U U L D D L U Y U U U U ",
"U P P U U P U Y U U U U Y / Y ~ < X x.8.8.6.2.5.5.2.2.2.6.5.6.5.2.5.2.2.6.2.6.2.6.5.2.5.5.$.X < ! U U Y U U L D D L Y ( Y U U U ",
"U U P U U U U U U U Y U U Y U ~ < X ;.8.;.&.&.>.;.<.;.;.:.&.&.>.;.&.<.;.&.:.;.;.>.&.&.:.8.$.o < ~ U Y ( U U L D D L U Y U U U U ",
"P U Y U U U U U U Y ) Y U P U ~ < X =.>.m f c c N N k N k c k k k N k k k k k c c k k B 1.*.X 3 ~ P U U U U L S D L L U U Y ( Y ",
"U Y / Y U U U U U U Y Y U U U ~ 1 X ;.<.k g g g g g g j g j j j k c k k k k N k k c j k <.-.X < ~ P U U U U L S D L U U U Y U Y ",
"P L I L L L L L L L L L L L L U < X ;.1.v g j g j j z j j z j c &.1.:.<.>.>.<.7.4.&.v k 1.;.X > U L L L L L F Z S F L L L L L L ",
"S S S S S S S S S A S S S S S D > o ;.1.k g k g g g j j j j j k <.8.4.4.4.5.;.;.<.-.k j 1.;.X 1 D S S D S S S Z Z S S S D S S D ",
"T R T T T T T J J A A J T T T R > X ;.>.k g z j g k j g g j g k &.4.,.<.5.&.2 @ @ , x N ,.*.X 3 T T T T T T T T T T T T T T A W ",
"o.o.o.o.o.m.o.M.{ J J { o.M.o.M.7 X ;.4.k g j z g h h g c h h k <.8.4.<.;.O.1 X O & p d >.;.. 8 M.m.m.m.m.m.o.m.m.m.m.o.o.m.m.m.",
"C.V.V.V.C.V.V.Z.M.J J o.C.V.V.Z.8 X %.4.c j g g g g g k g g d k <.8.8.=., 2 y.u.&.@.* > ;.;.X 8 C.N.N.N.V.N.N.V.V.N.N.V.V.V.C.V.",
"X.o.X.X.X.o.o.V.m.T G ` X.X.X.X.5 X ;.7.k k c N c c v c c c c C &.&.4.$.o & i.r.6.x.@ O &.%.X 7 X.X.X.X.X.X.X.X.X.X.X.X.X.X.X.} ",
"| | | | ....X.V.o.T G _ | | | ..< X <.1.k k -.>.>.>.>.:.:.:.,.%.v k v x . & ;.6.0.;.@ O ;.;.. 5  . .|  .| ` |  .| ` | | | ` | | ",
"! ! ! ! !  .X.V.m.T D I ! ! ! ^ < X ;.1.k c >.4.4.,.,.,.,.5.5.:.k g k a + 1 #.-.;.+.: > ;.;.. 3 ) ! ! Y ! Y Y ! ! Y ! ! ! ! ! Y ",
"U U I U ! | X.V.o.T A L P P P ~ < X =.1.k k >.4.>.,.,.,.<.,.5.>.v g g j l s > $ $ * p z 7.-.o < ~ P Y U U U P U Y U U U U U Y U ",
"U U ! ^ ! | X.V.M.T S L P P P ^ < o ;.<.k N &.4.4.4.4.,.4.4.8.>.c h k g k a O . . + a B <.;.. < ~ U ( Y P U U Y ! Y U U U ! ! Y ",
"U Y Y Y ! | X.V.m.T S L P U P ~ < X ;.<.j k <.4.4.<.4.<.4.4.4.&.c g g h g g a s s a l h ,.;.X < ~ U Y Y U ! U U ! U Y Y P U Y I ",
"! ! Y U ! | X.V.m.T S L U U Y Y < X *.4.m B 7.5.5.4.5.5.5.5.5.7.B f v f f B f m B m k B <.;.X < ~ P U U ! ! ! U U U ! ! ! P U U ",
"Y Y U ! ! | X.V.m.T S L P Y ! ^ , X ;.6.i.d.t.f.d.d.f.f.f.d.f.d.s.s.r.u.u.w.p.p.s.s.e.u.5.*.o : ~ P ! I P ! U U U U Y Y Y I Y U ",
"U U Y ! ^ | X.V.m.T S L U U ! ^ < X ;.6.p.g.d.f.f.d.f.p.f.d.d.d.f.f.f.f.f.f.f.f.f.f.f.a.6.*.o < Y Y ! Y P P U U Y U P P U ! ^ Y ",
"U P U Y ! | o.V.m.T Z L U U U ^ < X *.5.2.5.5.5.2.5.5.2.5.2.5.6.5.5.5.5.5.2.2.5.8.2.6.5.8.=.o < ~ P Y P U U U ! ^ Y U U U U Y U ",
"P P I P ! | X.V.m.T D L P U U ~ < X =.6.;.:.>.>.>.>.>.>.:.>.:.:.>.>.>.>.>.>.>.:.<.>.<.:.8.=.o < ~ P P P U U U U ! U U U U P U U ",
"P L L L Y _ ` o.{ T Z H L L L U < X z.>.v k k k k k k k k k k k j k k k k c c k k k g b <.;.X < I H L L L L L L L L L L L L H P ",
"D D D D D G G J A Z S S S S S D , X ;.,.c g g g g j g g j j j j c k k k k k k k k k m m <.;.X > F S S S S S S S S S S S S S S S ",
"J T T T R T T R T T R T T W T W , X ;.4.c j j h h z z z h j z c &.;.>.>.<.<.>.<.>.>.i.u.6.*.o 3 T T T T J T T J A A J T J T T J ",
"o.o.o.o.o.o.o.o.o.o.o.o.o.o.o.o.5 X ;.<.c g k g g j j j h j g v <.5.8.1.1.1.1.8.,.5.r.f.8.=.. 8 M.m.m.m.M.o.o.{ J J ' M.m.m.M.m.",
"V.V.Z.C.V.V.V.V.Z.V.V.V.V.C.C.Z.6 X *.1.k h h g g k g g g g d k ,.4.,.,.8.,.,.8.,.5.f.f.6.*.. 8 C.N.V.V.V.B.V.} T J o.V.V.V.V.V.",
"X.X.X.o.X.X.X.X.o.X.X.X.X.X.X.o.5 X =.<.k d k k k k k c k v k v &.>.>.:.>.<.<.<.:.>.f.r.2.*.. 8 X.X.X.X.X.X.X.] G J ` X.X.X.X.X.",
"| | | | | | | | | | | | | | | ..1 X ;.<.k k ;.;.&.>.>.>.>.%.>.%.C k k k v c k k k m d.f.9.=.X 5 ..| | | | |  ._ G G _ | | | | | ",
"! ^ ! ! ^ ! ! ~ ! ! ! ^ ^ ! ^ ^ < X ;.1.N k >.5.,.5.,.,.,.,.9.>.k d g g j j g g g k u.f.5.=.X < ^ ^ ! ! ! ! ! I D D I ! ! ! ! ! ",
"U U P Y ( Y U P P U U Y U P L ~ , X x.7.j N &.5.<.,.,.,.,.,.5.:.v g j j j j z j g N e.r.5.=.. < ~ P P U Y U U L D D L U U U U U ",
"P U U U ! I P U U P Y ( Y P P ~ < o ;.7.j k <.4.4.4.4.4.,.,.,.>.c h c j z j z z g n u.f.9.*.o < Y P U Y ! ! U L D D L U U ! ! ! ",
"U U U U U U U Y U U U ! U P U ^ < X ;.<.j c &.7.4.4.4.<.4.7.8.;.k d g g g j g g l N s.d.5.=.. 4 ^ U U U Y Y Y L D D I U U U ! U ",
"U Y U U U U Y / Y U P U P U Y ) < X x.>.m B 7.5.4.8.8.4.5.8.5.<.B f B c k k k m k V s.f.5.=.. 4 ) Y U U U ! ^ I Z D Q ! ! U P P ",
"Y / Y U P U U Y U P U U U P U ^ < X x.2.i.r.f.f.f.r.d.d.f.f.f.r.w.p.d.u.p.d.e.p.s.s.r.d.6.*.X 3 ^ I U U U U Y I D D L U U P U P ",
"U Y U Y U P U P U U U Y U P P Y 4 o l.3.a.f.d.d.f.f.d.f.d.d.f.f.d.f.d.d.d.d.d.d.d.f.f.a.3.$.o < ~ P U U Y U U L D D L P U U ! U ",
"U U Y / Y U U U U U Y ( Y U U ~ < @ x.6.6.6.6.6.6.6.6.6.6.6.0.0.0.0.6.6.6.6.0.6.6.6.6.6.q.z.o < ~ P P U ^ ! U L D D L U U ! ^ ! ",
"U P U Y ~ U U P U U U Y U U P Y < X @.%.*.=.=.*.*.*.*.*.*.*.=.*.*.*.*.*.*.*.*.=.*.*.-.*.=.j.. < ~ P U U U I U L D D L U U U Y U ",
"L L L L L L L L L L L L L L L U <   % % + % % % % % % % % % % % + + % % % % + & % % % % + %   9 U L L L L L L F Z D H L L L L L ",
"D D D D D D D D D D D D D D D D <                                                             4 D D D D D D D Z Z Z D D D D D D "
};
