/* XPM */
static char *_f221c0b2d1b4cb2df8af848317cdb6fdu3hq6zwPDylgOnr[] = {
/* columns rows colors chars-per-pixel */
"64 64 186 2 ",
"   c #EF3F00",
".  c #E63D0C",
"X  c #E83E0B",
"o  c #F93700",
"O  c #F63A01",
"+  c #F83800",
"@  c #F33F0A",
"#  c #BC4D1F",
"$  c #B75618",
"%  c #BA5619",
"&  c #BB5B1F",
"*  c #AF7F00",
"=  c #B77700",
"-  c #B87700",
";  c #B27C03",
":  c #B4700D",
">  c #BB730B",
",  c #B57C09",
"<  c #BC7E0C",
"1  c #B76211",
"2  c #BF7010",
"3  c #BC7C15",
"4  c #BE7E19",
"5  c #BE4623",
"6  c #BE4A26",
"7  c #BF4E2B",
"8  c #DD5200",
"9  c #D35C00",
"0  c #C3451F",
"q  c #CC5F1C",
"w  c #DD5219",
"e  c #D35F1D",
"r  c #EF4000",
"t  c #E34C00",
"y  c #E8470A",
"u  c #F14102",
"i  c #F94106",
"p  c #F5410C",
"a  c #F94508",
"s  c #F94E0E",
"d  c #E65306",
"f  c #E65608",
"g  c #E34010",
"h  c #E34D1D",
"j  c #F44512",
"k  c #F24917",
"l  c #F24C1A",
"z  c #F75512",
"x  c #FA5614",
"c  c #FA5815",
"v  c #F45912",
"b  c #C16507",
"n  c #C46B00",
"m  c #CB6B04",
"M  c #CB7108",
"N  c #CE621D",
"B  c #C47715",
"V  c #C34B26",
"C  c #C04F2D",
"Z  c #CB4923",
"A  c #D04820",
"S  c #C35127",
"D  c #C5552D",
"F  c #C6582E",
"G  c #CE5E2C",
"H  c #D75227",
"J  c #DB5426",
"K  c #D65A24",
"L  c #D75328",
"P  c #DB5529",
"I  c #D75D28",
"U  c #DC592D",
"Y  c #DD5B31",
"T  c #E44F20",
"R  c #E05F2C",
"E  c #ED5A2C",
"W  c #F35121",
"Q  c #CF6320",
"!  c #CE612C",
"~  c #D16121",
"^  c #D1612D",
"/  c #DF6F2D",
"(  c #DB6B3C",
")  c #D37638",
"_  c #D47B3E",
"`  c #C77929",
"'  c #E0602F",
"]  c #E26E2D",
"[  c #FC6F24",
"{  c #FC7C2D",
"}  c #E06130",
"|  c #E86137",
" . c #E76238",
".. c #E9663D",
"X. c #E9683F",
"o. c #E66C34",
"O. c #F77C36",
"+. c #DF6741",
"@. c #DF6841",
"#. c #DC6C48",
"$. c #D67B41",
"%. c #DB7345",
"&. c #DE7351",
"*. c #E46D44",
"=. c #E96941",
"-. c #E87842",
";. c #E1724E",
":. c #E8714C",
">. c #E4784D",
",. c #E47551",
"<. c #EC7652",
"1. c #E37A57",
"2. c #E37B5A",
"3. c #DD7F62",
"4. c #AE8000",
"5. c #B28002",
"6. c #B6820B",
"7. c #B98308",
"8. c #BD811E",
"9. c #BD8314",
"0. c #BF8321",
"q. c #C78515",
"w. c #CB8214",
"e. c #C68914",
"r. c #CD8C1A",
"t. c #D08E1D",
"y. c #D69123",
"u. c #D89124",
"i. c #DE942A",
"p. c #EA8D2D",
"a. c #F6812D",
"s. c #E1962D",
"d. c #E7833D",
"f. c #EC8B3D",
"g. c #FD8533",
"h. c #F4853A",
"j. c #F58D3F",
"k. c #FE8D39",
"l. c #E79832",
"z. c #E89933",
"x. c #EE9B39",
"c. c #FE963E",
"v. c #F69F3F",
"b. c #FA9B3F",
"n. c #F3963C",
"m. c #D08046",
"M. c #D3844C",
"N. c #D58650",
"B. c #D78A51",
"V. c #F49441",
"C. c #FF9740",
"Z. c #F79B43",
"A. c #FC9A43",
"S. c #F7964C",
"D. c #F7984C",
"F. c #FB9E49",
"G. c #F6A040",
"H. c #FDA246",
"J. c #FDA346",
"K. c #FFA347",
"L. c #FEA246",
"P. c #FEA146",
"I. c #FFA347",
"U. c #FFA348",
"Y. c #FCA04B",
"T. c #FFA448",
"R. c #FFA449",
"E. c #FFA348",
"W. c #DD8062",
"Q. c #DD8062",
"!. c #E08565",
"~. c #E98464",
"^. c #E28B65",
"/. c #E18568",
"(. c #E18669",
"). c #E18568",
"_. c #E1886B",
"`. c #E2886B",
"'. c #E2896C",
"]. c #E2886B",
"[. c #EA906D",
"{. c #E78E72",
"}. c #E78F72",
"|. c #E78E71",
" X c #E78E72",
".X c #E89276",
/* pixels */
"C C C C C C C C C C 7 5 5 7 C C C C C A O + + + + + + + + + + + + + + + + + + X C C C C C C C C C C 7 5 5 7 C C C C C C C C C C ",
"_._._._._._._._._._.W.7 7 W._._._._._.:.+ + + + + + + + + + + + + + + + + + + l /._._._._._._._._._.3.7 7 W._._._._._._._._._._.",
"{.{.{.{.{.{.{.{.{.{./.7 7 /.{.{.{.{.{.<.+ + + + + + + + + + + + + + + + + + + W {.{.{.{.{.{.{.{.{..X'.7 7 /.{.{.{.{.{.{.{.{.{.{.",
"1.1.1.1.1.1.1.1.1.1.&.6 6 &.1.,.X...X.E + + + + + + + + + + + + + + + + + + + j ................=.<.:.Z 6 &.1.1.1.1.1.1.1.1.1.1.",
";.;.;.;.;.;.;.;.;.;.#.6 6 #.;. .O + + + + + + + + + + + + + + + + + + + + + + + + + + + + + + + + + + . 6 #.;.;.;.;.;.;.;.;.;.;.",
"U Y U U U U U U Y U P 5 5 P U T O + + + + + + + + + + + + + + + + + + + + + + + + + + + + + + + + + + X 5 P U U U U U U U Y U U ",
"U +.U J P P J U +.U H 5 5 H P h + o o o o o o o o o o o o o o o o o o o o o o o o o o o + + + + + + + X 5 H P U P P P J U +.U J ",
"P U P P P P P P U P H 5 5 H P h r r r r r r r r r r r u a a a a a a a i u r r u a a a i O O O @ p p p g 5 H U @.U P P P P U P P ",
"P P P P U P P P P P H 5 5 H P e - - - - - - - - - - = w.c.c.c.c.c.c.C.p.- - = w.c.c.c.h.J J J *.:.~.2.V 5 H P U P P U P P P P P ",
"P P P U @.U P P P P H 5 5 H P N 4.4.4.4.4.4.4.4.4.4.* e.J.T.T.T.T.T.T.z.5.4.* e.J.T.T.j.P P U ;.1.{._.7 5 H P P P U @.U P P P P ",
"P P P P U P P U P P H 5 5 H P N * * * * * * * * * * * e.J.J.J.J.J.J.T.z.5.* * e.J.J.J.j.P P U ;.1.{._.7 5 H P P P P U P P P P P ",
"P U P P P P U @.U P H 5 # K K N 7.7.7.7.* * * 5.7.7.7.r.J.J.J.J.J.J.T.z.5.* * e.J.J.J.j.R U } >.1.[.^.F 5 L U P P P P P P U P P ",
"U +.U P P P P U P P H % ; ; ; q.v.v.Z.s.5.* * e.v.v.v.G.J.J.J.J.J.J.T.z.5.* * e.J.J.J.J.A.C.A.F.F.Y.U.d.5 P @.U P P P P U @.U P ",
"P U P P P P P P P J H % * * * e.J.U.T.z.5.* * e.J.U.U.J.J.J.J.J.J.J.T.z.5.* * e.J.J.J.J.J.J.J.J.U.J.J.f.5 L U P P P P P P U P P ",
"H H H H H H H H H H H % * * * e.J.J.T.z.5.* * e.J.T.T.U.J.J.J.J.J.J.T.z.* * * e.J.T.T.U.J.J.J.J.U.J.J.f.5 H H L H H H H H H H H ",
"5 5 5 5 5 5 5 5 5 5 5 $ * * * e.J.J.T.z.5.* * 7.l.z.z.n.J.J.J.J.J.J.U.x.e.e.e.t.z.z.z.x.J.J.J.J.J.J.J.V.! ^ ^ G V 5 5 5 5 5 5 5 ",
"7 7 7 7 7 7 7 7 7 7 7 & * * * e.J.J.T.z.5.* * * 5.5.* e.J.J.J.J.J.J.J.J.J.J.J.z.5.5.* e.J.J.J.J.J.J.J.J.J.J.J.Z.S 7 7 7 7 7 7 7 ",
"_._._._._._._._._._._.M.; * * e.J.J.T.z.5.; * * * * * e.J.J.J.J.J.J.J.J.J.J.T.z.5.* * e.J.J.J.J.J.J.J.J.J.J.J.Z.F W.'._._._._._.",
"{.{.{.{.{.{.{.{.{.{.{.B.; * * e.J.T.T.z.; * * * * * * e.J.J.J.J.J.J.J.J.T.T.T.z.5.* * e.J.T.T.T.T.T.T.U.J.J.J.Z.F /.{.{.{.{.{.{.",
"1.1.1.1.1.1.1.1.1.1.1._ ; * * 7.l.z.z.i.e.e.e.e.e.e.e.y.J.J.J.J.J.J.J.G.z.z.z.u.5.* * 7.l.z.z.z.z.z.z.x.D.S.S.d.D &.1.1.1.1.1.1.",
";.;.;.;.;.;.;.;.;.;.;.) ; * * * 5.5.* e.J.J.J.J.J.J.J.J.J.J.J.J.J.J.T.z.5.5.5.5.* * * * 5.5.5.5.5.5.5.3 ;.;.#.6 6 #.;.;.;.;.;.;.",
"U U Y U U U U U U U U Q ; * * * * * * e.J.J.J.J.J.J.J.J.J.J.J.J.J.J.T.z.5.* * * * * * * * * * * * * * > U U P 5 5 P U U U Y U U ",
"J U +.U J P P P P P U N * * * * * * * e.J.J.J.J.J.J.J.J.J.J.J.J.J.J.T.z.; * * * * * * * * * * * * * * 3 I J H 5 5 H P J U +.U J ",
"P P U P P P P P P U @.~ ; ; ; ; , ; ; q.J.J.J.J.J.J.J.J.J.J.J.J.J.J.T.z.7.7.7.7.7.7.7.7.7.7.7.7.; ; ; 2 P P H 5 5 H P P P U P P ",
"P P P P P P P U P P U P K K K K I K K ] J.J.J.J.J.J.J.J.J.J.J.J.J.J.J.J.v.v.v.v.v.v.v.v.v.v.v.f.( I K K P P H 5 5 H P P P P P P ",
"P P P P P P U @.U P P P P U P P P P P o.J.J.J.J.J.J.J.J.J.J.J.J.J.J.J.J.U.U.U.U.U.U.U.U.T.U.U.j.U P P P P P H 5 5 H P U P P P P ",
"P P P P P P P J P P P P U @.U P P P U -.U.U.U.U.T.T.T.T.U.U.U.U.U.U.U.U.U.U.U.J.J.J.J.J.J.J.J.j.J P P U P P H 5 5 H U @.U P P P ",
"P P P P P P P P P P U P P U P P I K K / v.v.v.b.c.c.c.b.v.v.v.v.v.v.v.v.v.v.v.Z.A.C.A.Z.A.Z.Z.h.J P U @.U P H 5 5 H P U P P U P ",
"P P U P P P P P P U @.U P P P ~ , ; ; , 7.7.7.M a a a f 7.7.7.7.7.7.7.7.7.7.7.B U U U U ' U U U P P P U P P H 5 5 H P P P U +.U ",
"P U @.U P P P P P P U P P P P N * * * * * * 4.n O o o t ; * * * * * * * * * * > P P P P P P P P P P P P P J H 5 5 H J P P P U P ",
"H L P L H H H H H H H H H H H q ; * * * * * 4.n O + o t ; * * * * * * * 4.4.4.> H H H H H H H H H H H H H H H 5 5 H H H H H H H ",
"5 5 5 5 5 5 5 5 5 5 5 # % % % 1 * * * * * * 4.n O + o t ; * * * * * * = n n n b % % % % % % % % % % % % 5 5 5 5 5 5 5 5 5 5 5 5 ",
"7 7 7 7 7 7 7 7 7 5 5 & ; * * * * * * * * * 4.n O + o t ; * * * * * 4.n O O + t ; * * * * * * * * * * : 7 7 7 7 7 7 7 7 7 7 7 7 ",
"_._._._._._._.'.W.7 7 m.; * * * * * * * * * 4.n O + o t ; * * * * * 4.n O + o t ; * * * * * * * * * * 8._._._._._._._._._._._._.",
"{.{.{.{.{.{.{..X'.7 7 M.; * * * * * * * * * 4.n O + o t * 4.4.4.4.4.4.n O + o t ; * * * * * * * * * * 0.{.{.{.{.{.{.{.{.{.{.{.{.",
"1.1.1.1.1.1.2.'.N.& & ` ; * * * * * * * * * 4.n O + o r n n n n n n n 9 O + o t ; * * * * * * * * * * 3 _ _ _ $.1.1.1.1.1.1.1.1.",
";.;.;.;.;.,.1.^.6.* * ; * * * * * * * * * * 4.n O + + + O O O O O O O O + + o t ; * * * * * * * * * * * ; ; ; , %.;.;.;.;.;.;.;.",
"U U U U Y ;.1.^.6.* * * * * * * * * * * * * 4.n O + + + + + + + + + + + + + o t ; * * * * * * * * * * * * * * ; I U U U U U U U ",
"P P P U U ;.1.^.6.* * * * * * * * * * * 4.4.4.n O o o o + + + + + + + + o o o t ; 4.4.* * * * * * * * * * * * ; I P P P P P U P ",
"P J U +.Y ;.1.^.9.7.7.7.7.7.7.7.* * * ; = - = m a a a i + + + + + + + O a a a d - - - = * * * 5.7.7.7.7.7.7.7.< ( U P P P U +.U ",
"P U P U U ;.1.[.Z.v.v.v.v.Z.Z.s.5.* 4.n r r   v c.c.C.{ + + + + + + o x c.c.C.{ u r O 8 ; * * e.v.v.v.v.v.v.v.n.U P P U P P U P ",
"U +.U J U ;.1.[.Y.U.U.U.U.U.T.z.5.* 4.n O o o c J.T.T.g.+ + + + + + o c J.T.T.g.+ o o t ; * * e.J.U.U.U.U.U.U.Z.U P U @.U P J P ",
"P U P U U ;.1.[.U.J.J.J.J.J.T.z.; * 4.n O + o c J.T.T.g.+ + + + + + o c J.T.T.g.+ + o t * * * e.J.J.J.J.J.J.J.A.U P P U P P U P ",
"P J U +.Y ;.1.[.U.J.J.J.J.J.T.z.7.7.7.m O + o x c.c.C.{ + + + + + + o x c.c.C.{ + + o t 7.7.7.r.J.J.J.J.J.J.J.A.' P P P P U +.U ",
"P P P U U ;.1.[.U.J.J.J.J.J.J.J.v.v.G.a.+ + + O a a a i + + + + + + + O a a a i + + o z v.v.v.G.J.J.J.J.J.J.J.Z.*.U P P P P U P ",
"P P P J U ;.1.[.U.J.J.J.J.J.J.J.U.U.T.g.+ + + + o o o o + + + + + + + + o o o o + + o c J.U.U.J.J.J.J.J.J.J.J.A.' P P P P P P P ",
"H H H H P #.&.^.F.J.J.J.J.J.J.T.T.T.T.g.+ + + + + + + + + + + + + + + + + + + + + + o c J.T.T.T.J.J.J.J.J.J.J.A.U H H H H H H H ",
"5 5 5 5 5 6 V F Z.J.J.J.J.J.T.C.g.g.g.[ + + + + + + + + + + + + + + + + + + + + + + o s g.g.g.k.J.J.J.J.J.J.J.Z.S 5 5 5 5 5 5 5 ",
"7 7 7 7 7 7 7 F Z.J.J.J.J.J.T.g.O + + + + + + + + + + + + + + + + + + + + + + + + + + + + + + c J.J.J.J.J.J.J.Z.S 5 7 7 7 7 7 7 ",
"_._._._._._._.^.U.J.J.J.J.J.T.g.+ + + + + + + + + + + + + + + + + + + + + + + + + + + + + + o c J.J.J.J.J.J.J.F.F 7 W.'._._._._.",
"{.{.{.{.{.{.{.[.U.J.J.J.J.J.T.g.+ + + + + + + + + + + + + + + + + + + + + + + + + + + + + + o c J.J.J.J.J.J.J.U.F 7 /.{.{.{.{.{.",
"1.1.1.1.1.1.1.1.S.D.S.S.S.S.D.O.+ + + + + + + + + + + O k l l l l l l j + + + + + + + + + + o x S.S.S.S.S.S.D.S.D 6 &.1.1.1.1.1.",
";.;.;.;.;.;.;.;.;.;.;.;.;.;.;. .+ + + + + + + + + O O X #.;.;.;.;.;.;.| + + + + + + + + + + + k ;.;.;.;.;.;.;.#.6 6 #.;.;.;.;.;.",
"U U U U Y U U U U U U U U U U T O + + + + + + + + + + X P U U U U U U T O + + + + + + + + + + p U U U U U U U P 5 5 P U U U U U ",
"P P J U +.U J P P P P U P P P h + o o o o o o + + + + X J U P P P P U h + + + + o o o o o o o @ J P P P U P P H 5 5 H P P P U P ",
"P P P P U P P P P P U ( I K K w r r r r r r r u p p O . P @.U P J U @.T O O O @ u r r r r r u y K K K I @.U P H 5 5 H P P U +.U ",
"P P P P P P P U P P P ~ ; ; ; ; = - - - - - = B ~.2.V 0 L U P P U P U J J J J e - - - - - - - = ; ; ; > P P U L 5 5 L U P P U P ",
"P U P P P P U @.U P P N * * * * 4.4.4.4.4.4.4.4 {._.7 5 H P P U @.U J P P U @.Q * 4.4.4.4.4.4.* * * * > J U @.P 5 5 P @.U P P P ",
"U +.U J P P P U P P P N ; * * * * * * * * * * 4 {._.7 5 H P P P U P P P P P U N ; * * * * * * * * * * > P P U L 5 5 L U P P P P ",
"P U P U P P P J K K K N ; * * * * * * * * * * 4 {._.7 5 L U P P P P U P P P P N ; * * ; * * * * * * * > I K K K 5 5 H P P P U P ",
"P J U @.U P P K > ; ; ; * * * * * * * * * * * 4 {._.7 5 P @.U P P U @.U P P P N ; * * * * * * * * * * ; , ; ; > # 5 H P P U +.U ",
"P P P U P P P K ; * * * * * * * * * * * * * * 4 {.'.7 5 L U P P P P U P P P P N ; * * * * * * * * * * * * * * ; # 5 H J P P U P ",
"H H H H H H H K ; * * * * * * * * * * * * * * 3 !.W.7 5 H H H H H H H H H H H q ; * * * * * * * * * * * * * * ; # 5 H H H H H H ",
"5 5 5 5 5 5 5 # ; * * * * * * * * * * * * * * : S 7 5 5 5 5 5 5 5 5 5 5 5 5 5 % * * * * * * * * * * * * * * * ; # 5 5 5 5 5 5 5 "
};
