/* XPM */
static char *_a577716bfce4d61f57379a42d01bcfbwLI1PrOHOtyL0MEo[] = {
/* columns rows colors chars-per-pixel */
"64 64 67 1 ",
"  c #C04F2D",
". c #BF4E2C",
"X c #BB4623",
"o c #E1886B",
"O c #E2886B",
"+ c #DD8062",
"@ c #BE4C2A",
"# c #DD7F62",
"$ c #BE4D2A",
"% c #E78E72",
"& c #E78F72",
"* c #E18568",
"= c #BF4D2B",
"- c #E89276",
"; c #E2886C",
": c #BF4E2B",
"> c #E37A57",
", c #E37A58",
"< c #DE7351",
"1 c #BF4B28",
"2 c #E37957",
"3 c #E37C5B",
"4 c #E1724E",
"5 c #E1714D",
"6 c #DC6C48",
"7 c #BE4A27",
"8 c #E27552",
"9 c #DC592E",
"0 c #DD5B31",
"q c #DC582D",
"w c #D8562C",
"e c #BE4723",
"r c #DD5C32",
"t c #DC582C",
"y c #DF6740",
"u c #DC572C",
"i c #DB5427",
"p c #DB5428",
"a c #D75227",
"s c #DB5327",
"d c #BE4622",
"f c #DB5529",
"g c #DF6841",
"h c #D75328",
"j c #DF6741",
"k c #D8562B",
"l c #DC5428",
"z c #E2896C",
"x c #D45127",
"c c #BD4623",
"v c #BD4622",
"b c #BA4521",
"n c #BA4523",
"m c #BA4623",
"M c #DC582E",
"N c #E1724D",
"B c #DC5529",
"V c #DD7351",
"C c #E18567",
"Z c #D35027",
"A c #D35127",
"S c #BF4723",
"D c #BF4824",
"F c #C04C29",
"G c #BA4522",
"H c #BB4522",
"J c white",
/* pixels */
"          .XX.                                    .XX.          ",
"oooooooooO+@@+OooooooooooooooooooooooooooooooooooO#@$+Oooooooooo",
"%%%%%%%%%&*==*&%%%%%%%%%%%%%%%%%%%%%%%%%%%%%%%%%&-;:=*&%%%%%%%%%",
">>>>>>>>>,<11<,>>>>>>>>>>>>>>>>>>>>>>>>>>>>>>>223&O.1<,>>>>>>>>>",
"4544444454677644444454444445444444445444444444482%O.764444444544",
"909qqqq909weewqqqqq909qqqq909qqqqqq909qqqqqqqqr42%O.ewqqqqqq909q",
"tyuippiuyuaeeappppiuyuippiuyuippppiuyuippppupsq4>%O.dapupppiuyui",
"fufppppfufaeeapppppfufppppfufppppppfufppppuguiq4>%O.daugupppfufp",
"pppfufppppaeeapfufppppfufpppppfufpppppfufpfufpq4>%O.dafuffufpppp",
"pppuguppppaeeapuguppppugupppppugupppppugupppppq4>%O.dapppugupppp",
"pppfuffufpaeeapfuffufpfufpppppfufpfufpfufpppppq4>%O.dapppfufpppp",
"fufpppugupaeeappppugupppppfufpppppugupppppppppq4>%O.dhufppppfufp",
"qjupppfufpaeeappppfufpppppugupppppfufpppppfufpq4>%O.dkguppppugup",
"fufpppppplaeealpppppppppppfufpppppppppppppuguiq4,&z.dhtfppppfufp",
"aaaaaaaaaaxccxaaaaaaaaaaaaaaaaaaaaaaaaaaaahkhaw6<*+=vxaaaaaaaaaa",
"ddddddddddvbbvdddddddddddeeddddddddddddddddddde71=@nbvdeeddddddd",
"........................=mm=.....................::...=mm=......",
"OOOOOOOOOOOOOOOOOOOOOOO;+$$+zOOOOOOOOOOOOOOOOOOOOOOOOz+$$+zOOOOO",
"%%%%%%%%%%%%%%%%%%%%%%&-;:=*&%%%%%%%%%%%%%%%%%%%%%%%%&*==*&%%%%%",
">>>>>>>>>>>>>>>>>>>>223&O.1<,>>>>>>>>>>>>>>>>>>>>>>>>,<11<,>>>>>",
"44544444444444444444482%O.76444544444444444454444445446776444544",
"q909qqqqqqqqqqqqqqqqr42%O.ewqq909qqqqqqqqqq909qqqq909qweewqq909q",
"iuyuipppppupppppuppsq4>%O.dapsuyuipppuppppiuyuipisuyuiaeeapiuyui",
"pfufpppppugupppuguppq4>%O.dafufufpppuguppppfufpfuffufpaeeappfufp",
"ppppppfuffufpppfufpiq4>%O.dauguippppfufpfufppppuguppppaeeapppppp",
"ppppppugupppfufpppfu94>%O.dafufppfufppppuguppppfufppppaeeafufppp",
"ppppppfufpppugupppuy05>%O.dapppppuguppppfuffufppppfufpaeeauguppp",
"pppppppppfuffuffuffu94>%O.dapfufpfufpfufpppuguppppugupaeeafuffuf",
"pfufpppppugupppugupiq4>%O.dapugupppppugupppfufppppfufpaeeapppujq",
"pugupppppfufpppfufppq4,&z.dalfufpppppfufppppppppppppplaeealppfuf",
"ahkhaaaaaaaaaaaaaaaaw6<*+=vxaaaaaaaaaaaaaaaaaaaaaaaaaaxccxaaaaaa",
"dddddddddeeddddddddde71=@nbvdddddddddddeedddddddddddddvbbvdddddd",
"........=mm=...........::.............=mm=......................",
"OOOOOOO;+$$+zOOOOOOOOOOOOOOOOOOOOOOOOz+$$+zOOOOOOOOOOOOOOOOOOOOO",
"%%%%%%&-;:=*&%%%%%%%%%%%%%%%%%%%%%%%%&*==*&%%%%%%%%%%%%%%%%%%%%%",
">>>>223&O.1<,>>>>>>>>>>>>>>>>>>>>>>>>,<11<,>>>>>>>>>>>>>>>>>>>>>",
"4444482%O.764444444444444444444444444467764444444444444444444444",
"qqqqr42%O.ewqqqqqqqqqqqqqqqqqqqqqqqqqqweewqqqqqqqqqqqqqqqqqqqqqq",
"pppuMN>%O.dappppuppppupppppupppppuppppaeeapuppppppupppppupppppup",
"piuy05>%O.dapppuguipugupppugupppugupppaeeauguppppugupppugupppujq",
"fufu94>%O.dapppfufuffuffuffufpppfufpppaeeafuffufpfuffuffuffuffuf",
"qjusq4>%O.dapfufiugupppuguppfufpppfufpaeeapppuguppipugupppugupip",
"fufu94>%O.dapuguifufpppfufpiugupppugupaeeapppfufpfuffufpppfuffuf",
"piuy05>%O.dapfufufppfufpppfufuffuffufpaeeafufppppugupppfufpppujq",
"ppfu94>%O.dappiuguppugupppuguipuguppppaeeauguppppfufpppugupppfuf",
"pppiq4,&z.dalppfufppfufpppfufppfufppplaeeaBufppppppppppfufpppppp",
"aaaaw6<*+=vxaaaaaaaaaaaaaaaaaaaaaaaaaaxccxaaaaaaaaaaaaaaaaaaaaaa",
"dddde71=@nbvddddddddddddddeeddddddddddvbbvddddddddddddddeedddddd",
".......::................=mm=..........................=mm=.....",
"OOOOOOOOOOOOOOOOOOOOOOOO;+$$+zOOOOOOOOOOOOOOOOOOOOOOOOz+$$+zOOOO",
"%%%%%%%%%%%%%%%%%%%%%%%&-;:=*&%%%%%%%%%%%%%%%%%%%%%%%%&*==*&%%%%",
">>>>>>>>>>>>>>>>>>>>>223&O.1<,>>>>>>>>>>>>>>>>>>>>>>>>,<11<,>>>>",
"444454444444444444444482%O.7644444444444444445444444444677644444",
"qqq909qqqqqqqqqqqqqqqr42%O.ewqqqqqqqqqqqqqqq909qqqqqqqqweewqqqqq",
"ppiuyuippppupppppppupq4>%O.dhuppppuppppupppiuyuippppuppaeeapppup",
"pppfufppppugupppppuguq4>%O.dkgupiuguppugupppfufppppugupaeeappujq",
"ppppppfufpfufpfufpfupq4>%O.dhuffufufpfqqfpfufppfufpfufuheehuffuf",
"fufpppugupppppuguppppq4>%O.dappuguippuguppuguppuguppiugkddkguppp",
"qjuippfufpppppfuffufpq4>%O.dappfufpppfufppfufppfufpppfuheehufppp",
"fufufpppppfufppppuguiq4>%O.dhufppfufpppfufppfufppppfufpaeeappfuf",
"piugupppppuguppppfufpq4>%O.dkguppugupppuguppuguppppugupaeeappujq",
"ppfufpppppfufppppppppq4,&z.dhtfppfufpppfufppfufppppfuflaeealpfuf",
"aaaaaaaaaaaaaaaaaaaaaw6VC+=vZaaaaaaaaaaaaaaaaaaaaaaaaaaAccAaaaaa",
"SSSSSSSSSSSSSSSSSSSSSD1F .XGeSSSSSSSSSSSSSSSSSSSSSSSSSSeHHeSSSSS"
};
